<?xml version="1.0" standalone="no"?> <!DOCTYPE svg PUBLIC "-//W3C//DTD SVG 1.0//EN" "http://www.w3.org/TR/2001/REC-SVG-20010904/DTD/svg10.dtd" > <svg xmlns="http://www.w3.org/2000/svg" width="100%" height="100%">
<defs >
<font id="NewsflashBB" horiz-adv-x="339" ><font-face
    font-family="Newsflash BB"
    units-per-em="1000"
    panose-1="2 0 5 6 0 0 0 2 0 4"
    ascent="849"
    descent="-95"
    alphabetic="0" />
<missing-glyph horiz-adv-x="364" d="M33 0V666H298V0H33ZM66 33H265V633H66V33Z" />
<glyph unicode=" " glyph-name="space" horiz-adv-x="150" />
<glyph unicode="!" glyph-name="exclam" horiz-adv-x="177" d="M159 776L138 207H49L24 776H159ZM159 0H24V138H159V0Z" />
<glyph unicode="&quot;" glyph-name="quotedbl" horiz-adv-x="366" d="M342 637L308 543H243L206 637V776H342V637ZM159 637L125 543H60L23 637V776H159V637Z" />
<glyph unicode="#" glyph-name="numbersign" horiz-adv-x="469" d="M448 376L404 370V267H269V349L205 340V267H69V320L28 313V449L69 455V544L28 538V673L69 679V774H205V699L269 709V774H404V729L448 736V601L404 594V505L448 511V376ZM269 485V574L205 564V475L269
485Z" />
<glyph unicode="$" glyph-name="dollar" horiz-adv-x="382" d="M366 211Q366 174 347 144Q325 110 290 110L289 58H224V110H173V58H108V110Q29 114 29 211V321H165V283Q165 261 170 254T197 247Q218 247 224 254T231 281V301Q231 321 215 329L54 414Q29 427 29
455V621Q29 715 108 722V776H173V722H224V776H289V722Q325 722 347 688Q366 658 366 621V515H231V549Q231 585 198 585Q165 585 165 550V529Q165 512 179 504L339 418Q366 403 366 377V211Z" />
<glyph unicode="%" glyph-name="percent" horiz-adv-x="677" d="M660 101Q660 53 636 27T570 0H409Q367 0 344 30Q324 57 324 101V135L279 0H134L271 416H112Q70 416 48 446Q28 473 28 517V674Q28 718 48 745Q70 776 112 776H287Q317 776 338 749Q357 726 362
695L389 776H534L397 359H584Q620 359 641 325Q660 295 660 258V101ZM228 583V605Q228 640 195 640Q162 640 162 605V583Q162 551 195 551Q228 551 228 583ZM525 167V189Q525 224 492 224Q459 224 459 189V167Q459 135 492 135Q525 135 525 167Z" />
<glyph unicode="&amp;" glyph-name="ampersand" horiz-adv-x="506" d="M509 297L413 122L479 0H110Q68 0 46 31Q26 58 26 101V372Q26 398 47 419T95 444Q65 493 65 516V674Q65 718 85 745Q108 776 150 776H312Q352 776 377 749Q399 725 402 675Q402 635 403 594Q403
555 403 514Q403 496 393 477T372 441L307 320L335 268L350 297H509ZM267 547V605Q267 640 233 640Q200 640 200 605V548L234 482L267 547ZM254 147L160 322V167Q160 142 188 138Q191 137 211 137H233Q247 137 254 147Z" />
<glyph unicode="&apos;" glyph-name="quotesingle" horiz-adv-x="177" d="M159 637L125 543H60L23 637V776H159V637Z" />
<glyph unicode="(" glyph-name="parenleft" horiz-adv-x="228" d="M226 -41H91Q20 181 20 395Q20 610 91 818H226Q147 602 147 388Q147 173 226 -41Z" />
<glyph unicode=")" glyph-name="parenright" horiz-adv-x="228" d="M135 -41H0Q79 173 79 388Q79 603 0 818H135Q207 610 207 395Q207 180 135 -41Z" />
<glyph unicode="*" glyph-name="asterisk" horiz-adv-x="317" d="M295 608H223L259 546L198 511L162 573L126 511L65 546L101 608H30V679H101L65 741L126 776L162 714L198 776L259 741L223 679H295V608Z" />
<glyph unicode="+" glyph-name="plus" horiz-adv-x="319" d="M294 373H229V307H93V373H28V508H93V573H229V508H294V373Z" />
<glyph unicode="," glyph-name="comma" horiz-adv-x="178" d="M157 0Q157 -38 132 -66T69 -95V-29Q92 -27 90 -6V0H23V138H157V0Z" />
<glyph unicode="-" glyph-name="uni2010" horiz-adv-x="250" d="M236 373H12V508H236V373Z" />
<glyph unicode="." glyph-name="period" horiz-adv-x="188" d="M162 0H27V138H162V0Z" />
<glyph unicode="/" glyph-name="slash" horiz-adv-x="399" d="M402 776L147 0H2L256 776H402Z" />
<glyph unicode="0" glyph-name="zero" horiz-adv-x="387" d="M368 102Q368 65 349 35Q327 1 291 1H116Q32 1 32 102V675Q32 718 52 745Q74 776 116 776H292Q327 776 349 742Q368 712 368 675V102ZM233 167V605Q233 641 199 641Q166 641 166 605V167Q166 136 199
136Q233 136 233 167Z" />
<glyph unicode="1" glyph-name="one" horiz-adv-x="267" d="M243 0H108V637H18V776H243V0Z" />
<glyph unicode="2" glyph-name="two" horiz-adv-x="348" d="M331 455Q331 428 311 401T265 374H163V138H326V0H29V438Q29 469 52 489T108 509H163Q196 509 196 544V606Q196 638 163 638H30V776H232Q267 776 291 765Q331 747 331 698V455Z" />
<glyph unicode="3" glyph-name="three" horiz-adv-x="346" d="M322 78Q322 39 291 18Q264 0 223 0H21V138H154Q187 138 187 172V338Q187 373 154 373H21V509H154Q187 509 187 544V606Q187 638 154 638H21V776H223Q253 776 283 765Q322 750 322 698V507Q322 481
303 463T256 441V439Q284 436 303 418T322 373V78Z" />
<glyph unicode="4" glyph-name="four" horiz-adv-x="399" d="M390 138H345V0H210V138L1 137L105 775H240L219 639H345V273H390V138ZM210 273V575L165 273H210Z" />
<glyph unicode="5" glyph-name="five" horiz-adv-x="343" d="M325 78Q325 35 289 14Q265 0 227 0H23V138H157Q190 138 190 172V338Q190 373 157 373H23V776H305V640H159V508H261Q288 504 306 485T325 440V78Z" />
<glyph unicode="6" glyph-name="six" horiz-adv-x="379" d="M359 104Q359 59 339 31Q316 0 273 0H106Q64 0 42 30Q22 57 22 101V674Q22 718 42 745Q64 776 106 776H314V638H191Q156 638 156 605V509H274Q359 509 359 408V104ZM224 171V343Q224 355 213 363T189
372H156V167Q156 137 191 138Q224 139 224 171Z" />
<glyph unicode="7" glyph-name="seven" horiz-adv-x="326" d="M336 776L146 3H0L158 640H11V776H336Z" />
<glyph unicode="8" glyph-name="eight" horiz-adv-x="376" d="M361 101Q361 64 342 34Q320 0 284 0H109Q67 0 44 30Q24 57 24 101V372Q24 396 46 417T93 442Q66 442 45 463T24 511V674Q24 718 44 745Q67 776 109 776H284Q320 776 342 741Q361 711 361 674V511Q361
485 342 464T297 443Q322 440 341 419T361 372Q361 372 361 236V101ZM225 547V605Q225 640 192 640Q159 640 159 605V548Q159 508 193 508Q225 508 225 547ZM225 167V335Q225 373 191 373Q159 373 159 333V167Q159 135 192 135Q225 135 225 167Z" />
<glyph unicode="9" glyph-name="nine" horiz-adv-x="379" d="M362 101Q362 58 341 31Q318 0 277 0H69V138H192Q227 138 227 171V266H109Q67 266 45 296Q25 323 25 367V672Q25 776 110 776H277Q318 776 340 747T362 674V101ZM227 404V609Q227 621 216 629T192 638Q159
637 159 605V433Q159 404 194 404H227Z" />
<glyph unicode=":" glyph-name="colon" horiz-adv-x="188" d="M161 202H26V340H161V202ZM162 0H27V138H162V0Z" />
<glyph unicode=";" glyph-name="semicolon" horiz-adv-x="188" d="M161 202H26V340H161V202ZM161 0Q161 -38 136 -66T73 -95V-29Q96 -27 94 -6V0H27V138H161V0Z" />
<glyph unicode="&lt;" glyph-name="less" horiz-adv-x="254" d="M250 2H115L10 375L115 774H250L144 375L250 2Z" />
<glyph unicode="=" glyph-name="equal" horiz-adv-x="299" d="M285 485H20V620H285V485ZM285 260H20V396H285V260Z" />
<glyph unicode="&gt;" glyph-name="greater" horiz-adv-x="246" d="M246 375L140 2H6L111 375L6 774H140L246 375Z" />
<glyph unicode="?" glyph-name="question" horiz-adv-x="384" d="M366 511Q366 484 342 471L181 386Q163 376 165 358V206H29V433Q29 460 57 475L216 561Q231 569 231 586V641H165V571H29V675Q29 713 48 742Q70 776 106 776H281Q366 776 366 675V511ZM165 0H29V138H165V0Z"
/>
<glyph unicode="@" glyph-name="at" horiz-adv-x="797" d="M780 101Q780 64 761 34Q739 0 703 0H532Q489 0 463 29T437 103V202H318Q276 202 253 232Q233 259 233 303V473Q233 517 254 545T318 574H493Q528 574 550 540Q569 510 569 473Q569 417 568 304T567 135H612Q645
135 645 167V605Q645 640 612 640H190Q157 640 157 605V167Q157 135 190 135H296V0H107Q65 0 43 31Q23 58 23 101V674Q23 717 44 746T107 776H703Q739 776 761 741Q780 711 780 674V101ZM434 369V403Q434 438 401 438Q368 438 368 403V369Q368 337 401 337Q434
337 434 369Z" />
<glyph unicode="A" glyph-name="A" horiz-adv-x="367" d="M356 0H221L214 139H157L149 0H15L55 776H316L356 0ZM207 274L188 640H183L164 274H207Z" />
<glyph unicode="B" glyph-name="B" horiz-adv-x="380" d="M359 79Q359 40 331 21T261 1H23V776H261Q301 776 328 758Q359 736 359 699V507Q359 481 340 463T297 443L294 442Q321 438 340 419T359 374V79ZM224 545V607Q224 639 191 639H158V509H191Q224 509 224
545ZM224 173V339Q224 374 191 374H158V139H191Q224 139 224 173Z" />
<glyph unicode="C" glyph-name="C" horiz-adv-x="337" d="M319 1H111Q27 1 27 102V675Q27 718 47 745Q69 776 111 776H319V638H196Q161 638 161 605V167Q161 154 172 146T196 138H319V1Z" />
<glyph unicode="D" glyph-name="D" horiz-adv-x="383" d="M364 102Q364 57 328 29T246 1L28 0V776H246Q292 776 328 748T364 675V102ZM229 174V599Q229 641 196 641H163V136H196Q229 136 229 174Z" />
<glyph unicode="E" glyph-name="E" horiz-adv-x="305" d="M284 0H31V776L284 777V638H166V508H284V373H166V138H284V0Z" />
<glyph unicode="F" glyph-name="F" horiz-adv-x="296" d="M282 373H164V0H29V776H282V639H164V508H282V373Z" />
<glyph unicode="G" glyph-name="G" horiz-adv-x="385" d="M365 0Q301 0 239 1H113Q29 1 29 102V675Q29 719 50 747T113 776H321V638H197Q163 638 163 605V167Q163 138 197 138H229V373H190V508L365 509V0Z" />
<glyph unicode="H" glyph-name="H" horiz-adv-x="382" d="M360 0H224V374H158V0H24V776H158V509H224V776H360V0Z" />
<glyph unicode="I" glyph-name="I" horiz-adv-x="178" d="M159 0H24V776H159V0Z" />
<glyph unicode="J" glyph-name="J" horiz-adv-x="329" d="M308 102Q308 1 223 1H16V138H138Q151 138 162 146T173 167V776H308V102Z" />
<glyph unicode="K" glyph-name="K" horiz-adv-x="373" d="M365 1H225L160 275V1H25V776H160V502L225 776H365L273 388L365 1Z" />
<glyph unicode="L" glyph-name="L" horiz-adv-x="284" d="M272 0H19L20 776H154V138H272V0Z" />
<glyph unicode="M" glyph-name="M" horiz-adv-x="460" d="M440 0H305V302L234 100H232L159 302V0H25V776H159L233 552L305 776H440V0Z" />
<glyph unicode="N" glyph-name="N" horiz-adv-x="390" d="M369 0H234L167 374V0H32V776H167L234 509V776H369V0Z" />
<glyph unicode="O" glyph-name="O" horiz-adv-x="387" d="M368 102Q368 65 349 35Q327 1 291 1H116Q32 1 32 102V675Q32 718 52 745Q74 776 116 776H292Q327 776 349 742Q368 712 368 675V102ZM233 167V605Q233 641 199 641Q166 641 166 605V167Q166 136 199 136Q233
136 233 167Z" />
<glyph unicode="P" glyph-name="P" horiz-adv-x="376" d="M365 454Q365 374 267 374H163V1H29V776H266Q306 776 334 758Q365 737 365 699V454ZM230 545V607Q230 639 197 639H163V509H197Q230 509 230 545Z" />
<glyph unicode="Q" glyph-name="Q" horiz-adv-x="383" d="M363 102Q363 65 344 35Q322 1 286 1H258L296 -67H161L123 1H111Q27 1 27 102V675Q27 719 48 747T111 776H287Q322 776 344 742Q363 712 363 675V102ZM227 167V605Q227 641 194 641Q161 641 161 605V167Q161
136 194 136Q227 136 227 167Z" />
<glyph unicode="R" glyph-name="R" horiz-adv-x="379" d="M359 0H224V316Q224 358 172 374H157V0H23V776H260Q300 776 323 763Q359 742 359 699V454Q359 408 316 386Q359 351 359 316V0ZM223 545V607Q223 639 191 639H157V509H191Q223 509 223 545Z" />
<glyph unicode="S" glyph-name="S" horiz-adv-x="378" d="M361 102Q361 65 342 35Q320 1 284 1H109Q25 1 25 102V375H159V174Q159 152 164 145T192 138Q212 138 218 145T225 172V355Q225 375 209 383L48 468Q25 480 25 508V675Q25 719 46 747T109 776H285Q320
776 342 741Q361 711 361 675V569H225V603Q225 639 192 639Q159 639 159 604V583Q159 566 174 558L333 472Q361 457 361 431V102Z" />
<glyph unicode="T" glyph-name="T" horiz-adv-x="351" d="M347 641H248V0H113V641H16V776H347V641Z" />
<glyph unicode="U" glyph-name="U" horiz-adv-x="385" d="M365 102Q365 65 346 35Q324 1 289 1H113Q29 1 29 102V776H164V175Q164 138 197 138Q230 138 230 175V776H365V102Z" />
<glyph unicode="V" glyph-name="V" horiz-adv-x="358" d="M357 776L276 0H93L7 776H145L179 294H184L218 776H357Z" />
<glyph unicode="W" glyph-name="W" horiz-adv-x="488" d="M483 776L440 0H304L248 224L187 0H51L11 776H145L158 475L246 765H249L332 475L348 776H483Z" />
<glyph unicode="X" glyph-name="X" horiz-adv-x="400" d="M391 0H252L205 227H200L152 1H14L119 393L14 776H154L200 550H205L253 776H391L286 384L391 0Z" />
<glyph unicode="Y" glyph-name="Y" horiz-adv-x="370" d="M377 776L256 232V1H120V233L0 776H139L186 502H190L239 776H377Z" />
<glyph unicode="Z" glyph-name="Z" horiz-adv-x="370" d="M348 1H16L177 638H45V776H347L185 138H348V1Z" />
<glyph unicode="[" glyph-name="bracketleft" horiz-adv-x="265" d="M256 -74H33V849H256V775H167V0H256V-74Z" />
<glyph unicode="\" glyph-name="backslash" horiz-adv-x="373" d="M392 0H246L-8 776H137L392 0Z" />
<glyph unicode="]" glyph-name="bracketright" horiz-adv-x="257" d="M234 -74H11V0H99V775H11V849H234V-74Z" />
<glyph unicode="^" glyph-name="asciicircum" horiz-adv-x="298" d="M277 664L149 697L18 661V796L149 831L277 799V664Z" />
<glyph unicode="_" glyph-name="underscore" horiz-adv-x="333" d="M319 1H12V136H319V1Z" />
<glyph unicode="`" glyph-name="grave" horiz-adv-x="250" d="M236 680L12 767V841L236 754V680Z" />
<glyph unicode="a" glyph-name="a" horiz-adv-x="349" d="M337 0H209L202 131H148L141 1H15L52 732H298L337 0ZM196 259L178 603H173L155 259H196Z" />
<glyph unicode="b" glyph-name="b" horiz-adv-x="358" d="M343 74Q343 38 314 18Q289 1 251 1H26V732H251Q282 732 307 719Q343 698 343 659V478Q343 454 325 437T282 417V415Q306 412 323 398Q343 381 343 353V74ZM216 514V572Q216 602 185 602H153V481H185Q216
481 216 514ZM216 163V320Q216 353 185 353H153V131H185Q216 131 216 163Z" />
<glyph unicode="c" glyph-name="c" horiz-adv-x="319" d="M304 602H187Q155 602 155 571V158Q155 131 187 131H303V1H108Q28 1 28 96V637Q28 732 108 732H304V602Z" />
<glyph unicode="d" glyph-name="d" horiz-adv-x="358" d="M341 96Q341 54 307 28T229 1H24V732H229Q273 732 305 707Q341 679 341 637V96ZM214 164V565Q214 604 182 604H151V128H183Q214 128 214 164Z" />
<glyph unicode="e" glyph-name="e" horiz-adv-x="275" d="M261 1H22L23 732L261 733V602H150V480H261V352H150V131H261V1Z" />
<glyph unicode="f" glyph-name="f" horiz-adv-x="275" d="M263 352H152V1H25V732Q65 732 144 732Q223 731 263 731V603H152V480H263V352Z" />
<glyph unicode="g" glyph-name="g" horiz-adv-x="356" d="M340 0Q280 0 221 1H103Q23 1 23 96V637Q23 732 103 732H299V602H183Q150 602 150 571V158Q150 131 183 131H213V352H176V480H340V0Z" />
<glyph unicode="h" glyph-name="h" horiz-adv-x="365" d="M342 1H215V353H152V1H26V732H152V481H215V732H342V1Z" />
<glyph unicode="i" glyph-name="i" horiz-adv-x="177" d="M154 1H26V732H154V1Z" />
<glyph unicode="j" glyph-name="j" horiz-adv-x="314" d="M293 96Q293 1 212 1H17V131H132Q165 131 165 158V732H293V96Z" />
<glyph unicode="k" glyph-name="k" horiz-adv-x="350" d="M346 1H215L153 260V1H27V732H153V474L215 732H346L260 367L346 1Z" />
<glyph unicode="l" glyph-name="l" horiz-adv-x="276" d="M264 1H26V732H152V131H264V1Z" />
<glyph unicode="m" glyph-name="m" horiz-adv-x="439" d="M420 1H293V285L225 95H224L155 285V1H28V732H155L225 521L293 732H420V1Z" />
<glyph unicode="n" glyph-name="n" horiz-adv-x="367" d="M346 1H218L156 353V1H28V732H156L218 481V732H346V1Z" />
<glyph unicode="o" glyph-name="o" horiz-adv-x="370" d="M345 96Q345 61 327 33Q306 1 273 1H108Q28 1 28 96V637Q28 732 108 732H273Q306 732 327 700Q345 672 345 637V96ZM218 158V571Q218 605 186 604Q155 604 155 571V158Q155 128 186 128Q218 128 218 158Z" />
<glyph unicode="p" glyph-name="p" horiz-adv-x="356" d="M345 428Q345 353 252 353H155V1H28V732H252Q286 732 308 719Q345 696 345 659V428ZM217 514V572Q217 602 186 602H155V481H186Q217 481 217 514Z" />
<glyph unicode="q" glyph-name="q" horiz-adv-x="359" d="M345 96Q345 59 327 34Q308 5 273 1H246L282 -63H154L119 1H107Q28 1 28 96V637Q28 732 107 732H273Q306 732 327 700Q345 671 345 637V96ZM217 158V571Q217 604 186 604Q155 604 155 571V158Q155 128
186 128Q217 128 217 158Z" />
<glyph unicode="r" glyph-name="r" horiz-adv-x="363" d="M345 1H218V298Q218 339 169 353H155V1H28V732H252Q281 732 308 719Q345 700 345 659V428Q345 383 304 365Q345 330 345 298V1ZM217 514V572Q217 602 186 602H155V481H186Q217 481 217 514Z" />
<glyph unicode="s" glyph-name="s" horiz-adv-x="371" d="M349 96Q349 61 331 33Q310 1 277 1H112Q33 1 33 96V354H159V164Q159 144 164 137T190 130Q210 130 216 136T222 163V335Q222 354 207 362L55 442Q33 454 33 480V637Q33 732 112 732H276Q310 732 331 700Q349
672 349 637V536H222V569Q222 602 191 602Q159 602 159 570V550Q159 533 173 527L323 446Q349 432 349 406V96Z" />
<glyph unicode="t" glyph-name="t" horiz-adv-x="337" d="M329 605H237V1H109V605H17V732H329V605Z" />
<glyph unicode="u" glyph-name="u" horiz-adv-x="366" d="M345 96Q345 62 327 33Q306 1 273 1H108Q28 1 28 96V732H155V166Q155 130 186 131Q217 132 217 166V732H345V96Z" />
<glyph unicode="v" glyph-name="v" horiz-adv-x="349" d="M340 732L264 0H92L11 732H141L173 277H178L210 732H340Z" />
<glyph unicode="w" glyph-name="w" horiz-adv-x="466" d="M454 732L413 1H286L232 212L175 1H48L10 732H136L148 448L231 722H234L313 448L327 732H454Z" />
<glyph unicode="x" glyph-name="x" horiz-adv-x="367" d="M362 1H230L186 214H182L136 1H7L105 371L7 732H138L182 518H186L232 732H362L263 362L362 1Z" />
<glyph unicode="y" glyph-name="y" horiz-adv-x="356" d="M360 732L246 219V1H118V220L4 732H136L180 473H184L230 732H360Z" />
<glyph unicode="z" glyph-name="z" horiz-adv-x="337" d="M320 1H7L158 602H34V732Q106 732 176 732L318 731L165 131H320V1Z" />
<glyph unicode="{" glyph-name="braceleft" horiz-adv-x="267" d="M251 -74H98Q66 -74 42 -54T27 -2L93 233L27 374L93 512L27 776Q24 787 24 795Q24 818 48 835Q68 849 104 849H251V775H162L227 510L162 374L227 232L162 0H251V-74Z" />
<glyph unicode="|" glyph-name="bar" horiz-adv-x="188" d="M165 -41H29V818H165V-41Z" />
<glyph unicode="}" glyph-name="braceright" horiz-adv-x="267" d="M250 -2Q258 -33 235 -53T180 -74H27V0H116L50 232L116 374L50 510L116 775H27V849H174Q207 849 230 835T253 796Q253 787 250 776L185 512L250 374L185 233L250 -2Z" />
<glyph unicode="~" glyph-name="asciitilde" horiz-adv-x="375" d="M357 373Q317 351 276 351Q242 351 191 373T105 395Q62 395 20 373V508Q63 532 105 532Q140 532 188 509T271 485Q313 485 357 508V373Z" />
</font>
</defs>
</svg>
