<?xml version="1.0" standalone="no"?>
<!DOCTYPE svg PUBLIC "-//W3C//DTD SVG 1.1//EN" "http://www.w3.org/Graphics/SVG/1.1/DTD/svg11.dtd" >
<svg xmlns="http://www.w3.org/2000/svg">
<metadata></metadata>
<defs>
<font id="AlbaSuperRegular" horiz-adv-x="995" >
<font-face units-per-em="2048" ascent="1638" descent="-410" />
<missing-glyph horiz-adv-x="620" />
<glyph horiz-adv-x="0" />
<glyph horiz-adv-x="2048" />
<glyph unicode=" "  horiz-adv-x="620" />
<glyph unicode="&#x09;" horiz-adv-x="620" />
<glyph unicode="&#xa0;" horiz-adv-x="620" />
<glyph unicode="!" horiz-adv-x="479" d="M-31 -35q0 53 19 101q-18 51 -19 104q0 76 37 143q-6 29 -6 58v936q0 115 78 192.5t192 77.5q117 0 195 -77t78 -193v-936q0 -29 -4 -56q37 -68 36 -145q0 -55 -16 -104q16 -48 16 -101q0 -127 -88 -215t-215 -88t-215 88t-88 215zM102 170q0 -72 49.5 -121t120.5 -49 q72 0 121 49t49 121q0 70 -50 119t-120 49t-120 -49t-50 -119zM133 575q0 -61 38 -100t99 -39t100.5 39t39.5 100v732q0 61 -39 99t-101 38q-59 0 -98 -39t-39 -98v-732z" />
<glyph unicode="&#x22;" horiz-adv-x="968" d="M0 817v457q0 125 89 214t214 89q127 0 215 -90q88 90 215 90t215 -88t88 -215v-457q0 -127 -88 -214t-215 -87t-215 90l-2 -2q-88 -88 -213 -88t-214 88t-89 213zM133 1022q0 -70 50 -119t120 -49t120 49t50 119v252q0 70 -50 120t-120 50t-120 -50.5t-50 -119.5v-252z M565 1022q0 -70 49.5 -119t118.5 -49q72 0 121 48t49 120v252q0 72 -49 121t-121 49q-70 0 -119 -50.5t-49 -119.5v-252z" />
<glyph unicode="#" horiz-adv-x="1175" d="M0 545q0 53 18 102q-18 49 -18 103q0 51 16 96q-16 47 -16 98q0 53 18 103q-18 47 -18 102q0 86 46 156.5t126 99.5q29 80 99.5 126t156.5 46q121 0 201 -84q76 84 198 84q86 0 157 -46t99 -126q80 -29 126 -99.5t46 -156.5q0 -53 -18 -102q18 -49 18 -103q0 -51 -16 -96 q16 -47 16 -98q0 -57 -16 -107q16 -47 16 -98q0 -205 -174 -258q-29 -78 -97.5 -125t-156.5 -47q-121 0 -200 84q-78 -84 -199 -84q-88 0 -157.5 47t-98.5 127q-80 29 -126 99.5t-46 156.5zM133 750q0 -61 38 -100.5t99 -39.5h19v-18q0 -61 39 -100t100 -39t99 38.5 t38 100.5v18h125v-18q0 -61 38 -100t99 -39t100.5 38.5t39.5 100.5v18h18q137 1 137 140q0 61 -37.5 99t-99.5 38h-18v125h18q61 0 99 37.5t38 99.5q0 61 -37.5 100t-99.5 39h-18v19q0 61 -39 99t-101 38q-61 0 -99 -38t-38 -99v-19h-125v19q0 61 -38 99t-99 38t-100 -38 t-39 -99v-19h-19q-61 0 -99 -39t-38 -100t38 -99t99 -38h19v-125h-19q-61 0 -99 -38t-38 -99zM565 887v125h125v-125h-125z" />
<glyph unicode="$" horiz-adv-x="991" d="M0 121q0 53 18 102q-18 49 -18 103q0 115 75 192.5t189 79.5v25q0 23 2 47q-2 27 -2 45v112q0 100 35 193q-27 53 -27 110q0 53 23 103q-23 49 -23 102q0 100 71 171t171 71q94 0 162.5 -62.5t77.5 -154.5q23 2 45 2q117 0 194.5 -77t77.5 -193q0 -55 -18 -103 q18 -47 18 -102q0 -111 -72.5 -186.5t-183.5 -84.5q0 2 -4 8.5t-4 8.5q-2 -51 -2 -129v-39q0 -217 -57 -328q8 -31 8 -65q0 -55 -23 -103q23 -49 23 -102q0 -102 -72 -171t-170 -69q-96 0 -165.5 64.5t-76.5 158.5h-2q-117 0 -193.5 77t-76.5 194zM133 326q0 -61 38 -99.5 t99 -38.5q168 0 284 117t118 285l2 237q0 31 5 46.5t31.5 42t93 38t100.5 45.5t34 93q0 61 -39 99t-100 38q-170 0 -286 -116t-116 -286v-112q0 -14 -2 -84v-41q0 -53 -35.5 -89t-89.5 -36q-61 0 -99 -39t-38 -100zM406 72q0 -45 31.5 -76t76.5 -31t77 31t32 76t-32 76.5 t-77 31.5t-76.5 -31.5t-31.5 -76.5zM406 1335q0 -45 31.5 -76.5t76.5 -31.5t77 31.5t32 76.5t-32 77t-77 32t-76.5 -32t-31.5 -77z" />
<glyph unicode="%" horiz-adv-x="1540" d="M0 969q0 53 12 102q-12 49 -12 103q0 164 115.5 279.5t279.5 115.5q117 0 212 -61.5t145 -161.5l69 194q66 182 252 182q113 0 195 -77.5t82 -190.5q0 -51 -17 -96l-2 -10q18 -47 19 -99q0 -51 -17 -96l-147 -416q18 2 39 2q164 0 279.5 -115.5t115.5 -279.5 q0 -53 -12 -102q12 -52 12 -103q0 -164 -115.5 -279.5t-279.5 -115.5q-215 0 -332 178l-111 -311q-63 -180 -250 -180q-113 0 -195.5 76.5t-82.5 189.5q0 47 18 98l2 6q-20 47 -20 101q0 47 18 98l207 582q-41 -8 -84 -9q-164 0 -279.5 116t-115.5 280zM133 1174 q0 -109 77 -186t185 -77q109 0 185.5 77t76.5 186t-76.5 185.5t-185.5 76.5t-185.5 -77t-76.5 -185zM272 1174q0 51 36 86.5t87 35.5t87 -35.5t36 -86.5t-36 -87t-87 -36t-87 35.5t-36 87.5zM387 -98q0 -57 44 -95t101 -38q92 0 125 92l551 1542q9 22 9 51q0 57 -43.5 96 t-100.5 39q-94 0 -127 -94l-549 -1540q-10 -29 -10 -53zM963 344q0 -109 76.5 -185.5t185.5 -76.5t185.5 76.5t76.5 185.5t-77 185.5t-185 76.5q-109 0 -185.5 -76.5t-76.5 -185.5zM1102 344q0 51 36 87t87 36t87 -36t36 -87t-36 -87t-87 -36t-87 36t-36 87z" />
<glyph unicode="&#x26;" horiz-adv-x="1773" d="M18 467q0 53 13 102q-12 49 -13 103q0 164 116 279.5t280 115.5q156 0 268 -104q102 102 250 102q145 0 248 -98q109 96 254 100v4q0 90 56 146.5t146 56.5t146.5 -56.5t56.5 -146.5v-604q0 -164 -115.5 -279.5t-279.5 -115.5q-115 0 -211 59q-55 -59 -150 -59 q-94 0 -151 61q-57 -61 -152 -61q-49 0 -90 18q-39 -16 -84 -16q-51 0 -94 20q-43 -23 -98 -22q-164 0 -280 115.5t-116 279.5zM152 672q0 -109 76.5 -185.5t185.5 -76.5q70 0 69 69q0 70 -69 70q-51 0 -87 36t-36 87t35.5 87t87.5 36q51 0 87 -36t36 -87v-193q0 -68 69 -67 q70 -1 70 67v193q0 109 -77 185.5t-185 76.5q-109 0 -185.5 -77t-76.5 -185zM711 479q0 -70 69 -69q70 0 70 69v232q0 35 23.5 59.5t58.5 24.5t58.5 -25t23.5 -59v-232q0 -70 69 -69q70 -1 70 69v232q0 92 -64.5 156.5t-156.5 64.5t-156.5 -64.5t-64.5 -156.5v-232z M1182 672q0 -109 76.5 -185.5t185.5 -76.5t185.5 76.5t76.5 185.5v399q0 70 -70 70t-69 -70v-399q0 -51 -36 -87t-87 -36t-87 36t-36 87t36 87t87 36q70 0 69 69q0 70 -69 70q-109 0 -185.5 -77t-76.5 -185z" />
<glyph unicode="'" horiz-adv-x="548" d="M0 817v457q0 125 89 214t214 89t214 -89t89 -214v-457q0 -125 -89 -213t-214 -88t-214 88t-89 213zM133 1022q0 -70 50 -119t120 -49t120 49t50 119v252q0 70 -50 120t-120 50t-120 -50.5t-50 -119.5v-252z" />
<glyph unicode="(" horiz-adv-x="1075" d="M0 362v492q0 365 251 615.5t615 250.5q117 0 195 -76.5t78 -193.5q0 -53 -19 -102q18 -49 19 -103q0 -117 -78 -194.5t-195 -77.5q-139 0 -231 -92.5t-92 -231.5v-82q0 -139 92 -231t231 -92q117 0 195 -78t78 -195q0 -55 -19 -102q19 -49 19 -102q0 -117 -79 -194 t-194 -77q-365 0 -615.5 251t-250.5 615zM133 567q0 -309 212 -521t521 -212q61 0 100.5 38t39.5 99t-39 100.5t-101 39.5q-195 0 -325.5 131t-130.5 325v287q0 195 131 326t325 131q61 0 100.5 39t39.5 100t-39 99t-101 38q-309 0 -521 -212t-212 -521v-287z" />
<glyph unicode=")" horiz-adv-x="1075" d="M0 -29q0 117 78 195t194 78q139 0 231.5 92t92.5 231v82q0 139 -92 231.5t-232 92.5q-117 0 -194.5 77.5t-77.5 194.5q0 53 18 103q-18 49 -18 102q0 117 78 193.5t194 76.5q365 0 616 -250.5t251 -615.5v-492q0 -362 -252 -614t-615 -252q-117 0 -194.5 77t-77.5 194 q0 53 18 102q-18 49 -18 102zM133 -29q0 -61 39 -99t100 -38q309 0 521.5 212t212.5 521v287q0 309 -212 521t-522 212q-61 0 -100 -38t-39 -99t39 -100t100 -39q195 0 326 -131t131 -326v-287q0 -195 -131 -325.5t-326 -130.5q-61 0 -100 -39t-39 -101z" />
<glyph unicode="*" horiz-adv-x="946" d="M0 397q0 61 37 107q-37 70 -37 98q0 98 96 154q49 27 180 61q70 106 95 135q66 68 143 68q92 0 162 -90q8 -10 76 -113q131 -35 180 -61q96 -55 96 -154q0 -29 -37 -98q37 -46 37 -107q0 -68 -129 -235q4 -84 4 -111q0 -229 -182 -229q-49 0 -207 57q-158 -57 -207 -57 q-182 0 -182 229q0 27 4 111q-129 168 -129 235zM133 602q0 -33 131 -192q-6 -123 -6 -154q0 -96 49 -96q35 0 207 67q172 -68 207 -67q49 0 49 96q0 31 -6 154q131 159 131 192q0 29 -55 51q-31 12 -172 49q-86 133 -93 140q-35 45 -61 45q-31 0 -61 -45q-45 -66 -93 -140 q-141 -37 -172 -49q-55 -23 -55 -51z" />
<glyph unicode="+" horiz-adv-x="978" d="M0 315q0 53 18 103q-18 49 -18 102q0 111 71.5 187.5t182.5 83.5q6 117 79 185t193 68q111 0 188 -71.5t83 -181.5q111 -6 182.5 -83t71.5 -188q0 -57 -17 -106q17 -48 17 -99q0 -121 -69 -193.5t-185 -78.5q-6 -111 -82 -182.5t-189 -71.5t-189.5 71.5t-82.5 182.5 q-111 6 -182.5 83t-71.5 189zM133 520q0 -61 38 -100t99 -39h117v-117q0 -61 39 -99t100 -38t99.5 38t38.5 99v117h116q138 0 138 139q0 61 -38 99t-100 38h-116v117q0 61 -38 99t-100 38q-139 0 -139 -137v-117h-117q-61 0 -99 -37.5t-38 -99.5z" />
<glyph unicode="," horiz-adv-x="542" d="M0 170q0 125 89 213t214 88t214 -88t89 -213v-457q0 -125 -89 -214t-214 -89t-214 89t-89 214v457zM133 -82q0 -70 50 -120t120 -50t120 50t50 120v252q0 70 -50 119t-120 49t-120 -49t-50 -119v-252z" />
<glyph unicode="-" horiz-adv-x="534" d="M0 430q0 53 18 102q-18 49 -18 103q0 125 89 214t214 89t214 -89t89 -214q0 -53 -18 -103q18 -49 18 -102q0 -125 -89 -214t-214 -89t-214 89t-89 214zM133 635q0 -70 50 -120t120 -50t120 50t50 120t-50 120t-120 50t-120 -50t-50 -120z" />
<glyph unicode="." horiz-adv-x="542" d="M0 -35q0 53 18 101q-18 51 -18 104q0 125 89 213t214 88t214 -88t89 -213q0 -55 -16 -104q16 -48 16 -101q0 -127 -88 -215t-215 -88t-215 88t-88 215zM133 170q0 -72 49 -121t121 -49t121 49t49 121q0 70 -50 119t-120 49t-120 -49t-50 -119z" />
<glyph unicode="/" horiz-adv-x="966" d="M-45 -98q0 53 16 98l551 1540q66 182 250 182q115 0 196 -76.5t81 -191.5q0 -51 -17 -96l-2 -8q19 -48 19 -101q0 -51 -17 -96l-551 -1542q-63 -180 -250 -180q-113 0 -194.5 76.5t-81.5 189.5q0 53 16 98l2 8q-18 47 -18 99zM88 -98q0 -57 43 -95t100 -38q92 0 125 92 l551 1542q8 22 8 51q0 59 -42 97t-101 38q-92 0 -125 -94l-551 -1540q-8 -23 -8 -53z" />
<glyph unicode="0" horiz-adv-x="1654" d="M-6 506q0 51 6 102q-6 51 -6 103q0 365 251 615.5t615 250.5q365 0 615.5 -251t250.5 -615q0 -53 -6 -105q6 -49 6 -100q0 -362 -251.5 -614t-614.5 -252q-365 0 -615.5 250.5t-250.5 615.5zM127 711q0 -309 212 -521.5t521 -212.5t521 212.5t212 521.5t-212 521 t-521 212t-521 -212t-212 -521zM403 711q0 197 131.5 326.5t325.5 129.5q195 0 326 -130.5t131 -325.5t-131 -326t-326 -131q-193 0 -325 131t-132 326zM553 608q31 -98 114 -159.5t193 -61.5q111 0 194.5 61.5t114.5 161.5q-23 70 -77 127q-94 92 -232 92 q-111 0 -194.5 -60t-112.5 -161z" />
<glyph unicode="1" horiz-adv-x="477" d="M0 -86v1393q0 117 77 193.5t193 76.5q117 0 195 -77t78 -193v-1393q0 -117 -79 -193.5t-194 -76.5q-117 0 -193.5 76.5t-76.5 193.5zM133 119q0 -61 38 -99t99 -38t100.5 38t39.5 99v1188q0 61 -39 99t-101 38q-61 0 -99 -38t-38 -99v-1188z" />
<glyph unicode="2" horiz-adv-x="1230" d="M-20 100q0 102 88 197q59 63 188 147q-111 6 -183.5 83t-72.5 190q0 63 10 125q-10 39 -10 80q0 279 188.5 467t466.5 188q279 0 468.5 -188.5t189.5 -466.5q0 -49 -8 -99q8 -53 8 -106q0 -190 -119 -371q119 -78 119 -227q0 -53 -19 -103q19 -49 19 -102 q0 -117 -78 -193.5t-195 -76.5h-770q-121 0 -198 57q-92 66 -92 195q0 49 20 98q-20 47 -20 106zM113 100q0 -119 157 -118h770q61 0 100.5 38t39.5 99t-39 100t-101 39h-335q225 178 315 283q160 184 160 381q0 223 -150.5 372.5t-374.5 149.5q-223 0 -372.5 -149.5 t-149.5 -372.5q0 -61 38 -100.5t99 -39.5t100.5 39t39.5 101q0 102 71.5 173.5t173.5 71.5t175 -71.5t73 -173.5q0 -182 -436 -498q-154 -111 -268 -186q-86 -57 -86 -138zM532 641q124 100 183 172q-27 16 -60 16q-47 0 -79.5 -32.5t-32.5 -79.5q0 -39 -11 -76z" />
<glyph unicode="3" horiz-adv-x="1052" d="M-2 -86q0 53 18 102q-18 49 -18 103q0 117 78 194.5t194 77.5h39q-29 55 -28 121v23h-9q-117 -2 -194.5 76.5t-77.5 195.5q0 61 12 121q-12 41 -12 84q0 238 164 401.5t401 163.5q238 0 403 -164t165 -401q0 -53 -9 -103q8 -51 9 -102q0 -104 -35 -197q35 -92 35 -196 q0 -53 -9 -103q9 -51 9 -102q0 -238 -165 -401.5t-403 -163.5h-295q-117 0 -194.5 76.5t-77.5 193.5zM131 119q0 -61 39 -99t100 -38h295q184 0 309 124t125 308q0 174 -120 297q121 125 120 301q0 184 -124.5 308t-309.5 124q-184 0 -308 -124t-124 -308q0 -61 39 -100.5 t100 -39.5t99.5 40t38.5 102.5t46 107.5t109 45q66 0 112 -45t46 -110q0 -66 -46 -111t-111.5 -47t-108.5 -38t-43 -99q0 -55 40 -93t97 -44q70 -8 121 -53.5t51 -112.5q0 -66 -46 -111t-112 -45h-295q-61 0 -100 -39t-39 -100z" />
<glyph unicode="4" horiz-adv-x="1079" d="M0 639v664q0 117 77 194.5t193 77.5q117 0 195 -78t78 -194v-459q0 -33 32 -33h31v496q0 115 79 192.5t194 77.5q117 0 193.5 -77t76.5 -193v-1393q0 -117 -77 -193.5t-193 -76.5q-115 0 -194 77.5t-79 192.5v149h-31q-244 0 -409.5 166t-165.5 410zM133 844 q0 -190 126 -316.5t316 -126.5h164v-282q0 -59 40 -98t100 -39q61 0 99 38t38 99v1188q0 61 -38 99t-99 38q-59 0 -99.5 -39t-40.5 -98v-629h-164q-70 0 -117.5 48t-47.5 118v459q0 61 -39 100t-101 39q-61 0 -99 -39t-38 -100v-459z" />
<glyph unicode="5" horiz-adv-x="1062" d="M0 -86q0 53 18 102q-18 49 -18 103q0 117 77 194.5t193 77.5h246q27 0 51 10q-25 12 -51 13h-246q-111 0 -190.5 79.5t-79.5 190.5v623q0 111 80 190.5t190 79.5h609q117 0 193.5 -77t76.5 -193q0 -57 -16 -107q16 -47 16 -98q0 -141 -94 -217q119 -166 119 -381 q0 -51 -9 -101q9 -51 9 -104q0 -276 -190.5 -465.5t-467.5 -189.5h-246q-117 0 -193.5 76.5t-76.5 193.5zM133 119q0 -61 38 -99t99 -38h246q221 0 372.5 150.5t151.5 371.5q0 223 -150.5 373.5t-373.5 150.5h-106v139h469q137 0 137 140q0 61 -38 99t-99 38h-609 q-55 0 -96 -41t-41 -96v-418q0 -55 41 -96t96 -41h246q102 0 175 -73t73 -175t-73 -174t-175 -72h-246q-61 0 -99 -39t-38 -100z" />
<glyph unicode="6" horiz-adv-x="1247" d="M0 297v625q0 279 188.5 467t466.5 188q184 0 355 -100q199 -117 198 -289q0 -53 -20 -103q20 -49 20 -102q0 -49 -18 -94q123 -170 123 -387q0 -53 -8 -105q8 -49 8 -100q0 -276 -190.5 -466.5t-467.5 -190.5q-279 0 -467 189t-188 468zM133 502q0 -223 149.5 -374 t372.5 -151t374 151t151 374t-150.5 372.5t-374.5 149.5q-129 0 -241 -59q14 88 82.5 145t158.5 57q106 0 179 -75q43 -45 98 -45q57 0 100 41.5t43 99.5q0 53 -41 96q-156 160 -379 160t-372.5 -149.5t-149.5 -372.5v-420zM410 502q0 102 71.5 174t173.5 72t175 -72 t73 -174t-72.5 -175t-175.5 -73q-102 0 -173.5 72.5t-71.5 175.5z" />
<glyph unicode="7" horiz-adv-x="1112" d="M0 1102q0 53 18 102q-18 49 -18 103q0 117 77 193.5t193 76.5h652q119 0 193.5 -69.5t74.5 -190.5q0 -45 -14 -113q14 -43 14 -92q0 -127 -123 -479l-279 -805q-63 -186 -251 -186q-115 0 -196 76.5t-81 191.5q0 43 14 88l7 14q-20 49 -21 103q0 43 14 88l205 626h-209 q-117 0 -193.5 78t-76.5 195zM133 1307q0 -61 38 -100.5t99 -39.5h461l-330 -1005q-8 -25 -8 -47q0 -59 42 -97t102 -38q94 0 127 96l278 805q115 332 115 436q0 127 -135 127h-652q-61 0 -99 -38t-38 -99z" />
<glyph unicode="8" horiz-adv-x="1110" d="M0 233q0 53 8 103q-8 51 -8 102q0 141 59 262q-14 61 -14 127q0 51 8 103q-8 49 -8 102q0 223 153.5 385t391.5 162q231 0 389 -157.5t158 -389.5q0 -51 -9 -102q8 -49 9 -103q0 -68 -15 -129q57 -119 58 -260q0 -53 -9 -102q9 -50 9 -103q0 -248 -171 -418.5 t-419 -170.5t-419 171t-171 418zM133 438q0 -195 131 -325.5t326 -130.5t326 130.5t131 325.5t-140 330q96 115 97 264q0 176 -119 295t-295 119q-174 0 -293 -119t-119 -295q0 -150 94 -264q-139 -135 -139 -330zM410 438q0 76 52 129.5t128 53.5t128 -53.5t52 -129.5 t-52 -128t-128 -52q-74 0 -127 53.5t-53 126.5zM455 1032q0 57 38.5 97t96.5 40q57 0 97 -40t40 -97t-40 -96t-97 -39q-55 0 -95 40t-40 95z" />
<glyph unicode="9" horiz-adv-x="1249" d="M0 717q0 51 8 102q-8 51 -8 103q0 279 188.5 467t466.5 188q279 0 468.5 -189.5t189.5 -465.5v-625q0 -276 -190.5 -466.5t-467.5 -190.5q-180 0 -352 100q-199 119 -199 289q0 53 21 102q-20 49 -21 102q0 49 17 95q-121 172 -121 389zM133 922q0 -223 149.5 -374 t372.5 -151q129 0 244 60q-16 -88 -85 -145.5t-159 -57.5q-104 0 -178 76q-43 45 -98 45q-57 0 -99 -42t-42 -100q0 -51 41 -94q154 -162 376 -162q223 0 374 151t151 374v420q0 223 -150.5 372.5t-374.5 149.5q-223 0 -372.5 -149.5t-149.5 -372.5zM410 922 q0 102 71.5 173.5t173.5 71.5t175 -71.5t73 -173.5t-72.5 -175t-175.5 -73q-102 0 -173.5 72.5t-71.5 175.5z" />
<glyph unicode=":" horiz-adv-x="532" d="M0 -35q0 53 18 101q-18 51 -18 104q0 70 29 129q-29 63 -29 131q0 53 18 102q-18 49 -18 103q0 125 89 214t214 89t214 -89t89 -214q0 -53 -18 -103q18 -49 18 -102q0 -70 -28 -131q29 -61 28 -129q0 -55 -16 -104q16 -48 16 -101q0 -127 -88 -215t-215 -88t-215 88 t-88 215zM133 170q0 -72 49 -121t121 -49t121 49t49 121q0 70 -50 119t-120 49t-120 -49t-50 -119zM133 635q0 -70 50 -120t120 -50t120 50t50 120t-50 120t-120 50t-120 -50t-50 -120z" />
<glyph unicode=";" horiz-adv-x="540" d="M0 170q0 68 29 129q-29 61 -29 131q0 53 18 102q-18 49 -18 103q0 125 89 214t214 89t214 -89t89 -214q0 -53 -18 -103q18 -49 18 -102q0 -70 -28 -131q29 -61 28 -129v-457q0 -125 -89 -214t-214 -89t-214 89t-89 214v457zM133 -82q0 -70 50 -120t120 -50t120 50t50 120 v252q0 70 -50 119t-120 49t-120 -49t-50 -119v-252zM133 635q0 -70 50 -120t120 -50t120 50t50 120t-50 120t-120 50t-120 -50t-50 -120z" />
<glyph unicode="&#x3c;" horiz-adv-x="669" d="M0 315q0 49 25 103q-25 53 -25 102q0 100 104 219q88 86 172 170t195 84t192.5 -82t81.5 -192q0 -53 -20 -103q20 -49 20 -102q0 -51 -18 -96q18 -45 18 -96q0 -53 -20 -103q20 -49 20 -102q0 -111 -81.5 -193t-192.5 -82q-100 0 -213 97q-59 51 -166 176 q-92 106 -92 200zM133 520q0 -45 60 -114q12 -14 180 -183q43 -43 98 -43t98 43.5t43 98.5q0 53 -43 96l-102 102l102 103q43 43 43 96q0 55 -43 98t-98 43t-98 -43l-180 -182q-59 -59 -60 -115z" />
<glyph unicode="=" horiz-adv-x="978" d="M0 115q0 53 18 102q-18 49 -18 102q0 51 16 99q-16 45 -16 96q0 53 18 102q-18 49 -18 103q0 117 77 194.5t193 77.5h510q117 0 194 -77.5t77 -194.5q0 -55 -19 -103q18 -49 19 -102q0 -53 -17 -98q16 -45 17 -97q0 -57 -17 -106q17 -47 17 -98q0 -125 -73 -199t-198 -74 h-510q-117 0 -193.5 78t-76.5 195zM133 319q0 -61 38 -100t99 -39h510q138 0 138 139q0 61 -38 99.5t-100 38.5h-510q-61 0 -99 -38t-38 -100zM133 719q0 -61 38 -99t99 -38h510q61 0 99.5 38t38.5 99t-38 100t-100 39h-510q-61 0 -99 -39t-38 -100z" />
<glyph unicode="&#x3e;" horiz-adv-x="673" d="M0 117q0 53 20 102q-20 49 -20 103q0 51 18 96q-18 45 -18 96q0 53 20 102q-20 49 -20 103q0 111 82 192.5t192 81.5q102 0 211 -96q82 -84 162 -168q98 -100 98 -209q0 -49 -24 -100q24 -52 24 -105q0 -94 -92 -200q-106 -125 -166 -176q-113 -96 -213 -97 q-111 0 -192.5 82t-81.5 193zM133 322q0 -55 43 -98.5t98 -43.5t99 43l180 183q59 69 59 114q0 55 -59 115l-180 182q-43 43 -99 43q-55 0 -98 -43t-43 -98q0 -53 43 -96l103 -103l-103 -102q-43 -43 -43 -96z" />
<glyph unicode="?" horiz-adv-x="1234" d="M0 717q0 63 10 125q-10 39 -10 80q0 279 188.5 467t466.5 188q279 0 468.5 -188.5t189.5 -466.5q0 -53 -8 -105q8 -49 8 -100q0 -276 -191 -467q-135 -135 -317 -174q-2 -10 -4 -19q16 -47 16 -100q0 -127 -88 -215t-215 -88t-215 88t-88 215q0 53 18 100q-18 51 -18 105 q0 55 18 104q-6 31 -6 64q0 53 19 102q-2 6 -4 14q-104 12 -171 88t-67 183zM133 922q0 -61 38 -100.5t99 -39.5t100.5 39t39.5 101q0 102 71.5 173.5t173.5 71.5t175 -71.5t73 -173.5t-72.5 -175t-175.5 -73h-161q-61 0 -99.5 -39t-38.5 -100t38 -99.5t100 -38.5h161 q223 0 374 151t151 374t-150.5 372.5t-374.5 149.5q-223 0 -372.5 -149.5t-149.5 -372.5zM344 162q0 -72 49 -121t121 -49t121 49t49 121q0 70 -50 119t-120 49t-120 -49.5t-50 -118.5zM586 807h69q27 0 52 12q-25 10 -52 10q-39 0 -69 -22z" />
<glyph unicode="@" horiz-adv-x="1673" d="M0 506q0 51 6 102q-6 51 -6 103q0 365 251 615.5t615 250.5q365 0 616 -251t251 -615q0 -53 -7 -105q7 -49 7 -100q0 -362 -252 -614t-615 -252q-365 0 -615.5 250.5t-250.5 615.5zM133 711q0 -309 212 -521.5t521 -212.5t521 212.5t212 521.5t-211.5 521t-521.5 212 q-309 0 -521 -212t-212 -521zM410 711q0 197 130 326.5t326 129.5q195 0 326 -130.5t131 -325.5q0 -141 -80 -258v258q0 158 -109.5 267t-267.5 109t-267.5 -109.5t-109.5 -266.5q0 -158 110 -267.5t267 -109.5q43 0 72 27.5t29 70.5q0 100 -101 100q-74 0 -126 52.5 t-52 126.5t52.5 126t125.5 52q74 0 126 -52.5t52 -125.5v-422q-86 -35 -178 -35q-195 0 -325.5 131t-130.5 326z" />
<glyph unicode="A" horiz-adv-x="1249" d="M0 -86v1008q0 279 188.5 467t466.5 188q279 0 468.5 -189.5t189.5 -465.5v-949q0 -33 30 -32q121 0 201 -76t80 -197q0 -53 -18 -100q18 -50 18 -105q0 -115 -78 -192.5t-192 -77.5q-248 0 -416 165t-168 411v301q-57 -10 -115 -11q-59 0 -112 23v-168q0 -117 -78 -193.5 t-195 -76.5t-193.5 76.5t-76.5 193.5zM133 119q0 -61 38 -99t99 -38t100.5 37.5t39.5 99.5v803q0 102 71.5 173.5t173.5 71.5t175 -71.5t73 -173.5t-72.5 -175t-175.5 -73q-61 0 -99 -38t-38 -99t38 -100.5t99 -39.5q131 0 248 62v-486q0 -188 126 -315t314 -127h11 q59 0 98 39t39 98q0 61 -38 100t-99 39h-11q-70 0 -116.5 48.5t-46.5 117.5v949q0 223 -150.5 372.5t-374.5 149.5q-223 0 -372.5 -149.5t-149.5 -372.5v-803zM573 795q48 1 134 24q-25 10 -52 10q-49 0 -82 -34z" />
<glyph unicode="B" horiz-adv-x="1054" d="M0 -86v1098q0 238 164 401.5t401 163.5q238 0 403 -164t165 -401q0 -53 -9 -103q8 -51 9 -102q0 -104 -35 -197q35 -92 35 -196q0 -53 -9 -103q9 -51 9 -102q0 -238 -165 -401.5t-403 -163.5q-80 0 -145 41q-66 -41 -148 -41q-117 0 -194.5 76.5t-77.5 193.5zM133 119 q0 -61 39 -99t100 -38t99.5 37.5t38.5 99.5v893q0 63 46 109t109 46q66 0 112 -45t46 -110q0 -66 -46 -111t-111.5 -47t-108.5 -38t-43 -99q0 -55 40 -93t97 -44q70 -8 121 -53.5t51 -112.5q0 -63 -46 -109.5t-108.5 -46.5t-101.5 -39t-39 -100q0 -59 39 -98t98 -39 q184 0 309 124t125 308q0 174 -120 297q121 125 120 301q0 184 -124.5 308t-309.5 124q-184 0 -308 -124t-124 -308v-893z" />
<glyph unicode="C" horiz-adv-x="1075" d="M0 506q0 51 6 102q-6 51 -6 103q0 365 251 615.5t615 250.5q117 0 195 -77t78 -193q0 -53 -19 -103q18 -49 19 -102q0 -117 -78 -195t-191.5 -78t-196.5 -60t-116 -161q33 -100 116 -160.5t196.5 -60.5t191.5 -78t78 -194q0 -55 -19 -103q19 -49 19 -102 q0 -117 -79 -193.5t-194 -76.5q-365 0 -615.5 250.5t-250.5 615.5zM133 711q0 -309 212 -521.5t521 -212.5q61 0 100.5 38.5t39.5 99.5t-39 100t-101 39q-195 0 -325.5 131t-130.5 326t131 325.5t325 130.5q61 0 100.5 39t39.5 101q0 61 -39 99t-101 38q-309 0 -521 -212 t-212 -521z" />
<glyph unicode="D" horiz-adv-x="1372" d="M0 -86v1393q0 111 80 190.5t190 79.5h305q367 0 617 -250t250 -616q0 -53 -6 -105q6 -49 6 -100q0 -365 -251 -615.5t-616 -250.5q-88 0 -155 45q-66 -41 -150 -41q-117 0 -193.5 76.5t-76.5 193.5zM133 119q0 -61 38 -99t99 -38t100.5 37.5t39.5 99.5v1048h165 q197 0 327 -130t130 -326q0 -195 -131 -326t-326 -131q-61 0 -99 -39t-38 -100t38 -99.5t99 -38.5q311 0 522.5 211.5t211.5 522.5t-211 522t-523 211h-305q-55 0 -96 -41t-41 -96v-1188zM543 385q16 2 32 2q111 0 195 61.5t115 159.5q-31 100 -114 160.5t-196 60.5h-32 v-444z" />
<glyph unicode="E" horiz-adv-x="1083" d="M0 506q0 51 6 102q-6 51 -6 103q0 365 251 615.5t615 250.5q117 0 195 -77t78 -193q0 -53 -19 -103q18 -49 19 -102q0 -113 -74 -191q74 -78 74 -190q0 -53 -19 -103q18 -49 19 -102q0 -123 -84 -201q84 -78 84 -200q0 -53 -19 -103q19 -49 19 -102q0 -117 -78 -193.5 t-195 -76.5q-365 0 -615.5 250.5t-250.5 615.5zM133 711q0 -309 212 -521.5t521 -212.5q61 0 100.5 38.5t39.5 99.5t-39 100t-101 39q-152 0 -273.5 91t-164.5 237h438q61 0 100.5 38.5t39.5 100.5q0 61 -39 99t-101 38h-432q47 139 166 224t266 85q61 0 100.5 39t39.5 101 q0 61 -39 99t-101 38q-309 0 -521 -212t-212 -521z" />
<glyph unicode="F" horiz-adv-x="972" d="M0 -86v1087q0 244 166 410t409 166h191q117 0 194.5 -77t77.5 -193q0 -53 -18 -103q18 -49 18 -102q0 -137 -102 -217q102 -78 102 -215q0 -55 -18 -103q18 -49 18 -102q0 -117 -77.5 -194.5t-194.5 -77.5h-223v-279q0 -117 -78 -193.5t-195 -76.5t-193.5 76.5 t-76.5 193.5zM133 119q0 -61 38 -99t99 -38t100.5 37.5t39.5 99.5v411h356q61 0 100 39.5t39 100.5t-39 99t-100 38h-356v194q0 70 48 118t117 48h191q61 0 100 39t39 101q0 61 -39 99t-100 38h-191q-190 0 -316 -126t-126 -317v-882z" />
<glyph unicode="G" horiz-adv-x="1669" d="M0 506q0 51 6 102q-6 51 -6 103q0 365 251 615.5t615 250.5q219 0 451 -125q268 -145 268 -344q0 -53 -20 -102q10 -25 14 -52q154 -76 154 -243q0 -68 -11 -133q11 -35 11 -72q0 -365 -251 -615.5t-616 -250.5t-615.5 250.5t-250.5 615.5zM133 711q0 -309 212 -521.5 t521 -212.5t521 212.5t212 521.5q0 55 -40.5 97t-96.5 42h-438q-61 0 -99 -38t-38 -99t38 -100.5t99 -39.5h279q-45 -145 -165 -232t-272 -87q-195 0 -325.5 131t-130.5 326q0 197 130 326.5t326 129.5q207 0 342 -151q45 -49 101 -49q57 0 100 42t43 99q0 47 -39 90 q-221 246 -547 246q-309 0 -521 -212t-212 -521zM557 608q51 -164 217 -209q-20 51 -20 109q0 53 18 102q-18 49 -18 103q0 55 18 104q-164 -45 -215 -209z" />
<glyph unicode="H" horiz-adv-x="1314" d="M0 -86v1393q0 117 77 193.5t193 76.5q117 0 195 -77t78 -193v-265h295v265q0 117 76.5 193.5t193.5 76.5t194.5 -77t77.5 -193v-1334q0 -33 33 -32q123 0 204 -76t81 -197q0 -55 -19 -102q19 -48 19 -103q0 -117 -79 -193.5t-194 -76.5q-248 0 -417.5 164t-169.5 412v526 h-295v-381q0 -117 -78 -193.5t-195 -76.5t-193.5 76.5t-76.5 193.5zM133 119q0 -61 38 -99t99 -38t100.5 37.5t39.5 99.5v514h561v-660q0 -188 127 -315t315 -127h12q61 0 100.5 38t39.5 99t-39 100t-101 39h-12q-70 0 -118 48.5t-48 117.5v1334q0 61 -39 99t-100 38 t-99 -38t-38 -99v-398h-561v398q0 61 -39 99t-101 38q-61 0 -99 -38t-38 -99v-1188z" />
<glyph unicode="I" horiz-adv-x="477" d="M0 -86v1393q0 117 77 193.5t193 76.5q117 0 195 -77t78 -193v-1393q0 -117 -79 -193.5t-194 -76.5q-117 0 -193.5 76.5t-76.5 193.5zM133 119q0 -61 38 -99t99 -38t100.5 38t39.5 99v1188q0 61 -39 99t-101 38q-61 0 -99 -38t-38 -99v-1188z" />
<glyph unicode="J" horiz-adv-x="1101" d="M0 225q0 43 12 84q-12 59 -12 121q0 117 78 193.5t194 76.5q117 0 194 -76.5t77 -193.5q0 -43 41 -43q43 0 43 43v877q0 117 76.5 193.5t193.5 76.5t194.5 -77t77.5 -193v-1082q0 -246 -170 -415.5t-415 -169.5q-246 0 -415 170t-169 415zM133 430q0 -193 129 -323 t322 -130t322.5 130t129.5 323v877q0 61 -39 99t-100 38t-99 -38t-38 -99v-877q0 -74 -51.5 -125t-124.5 -51q-74 0 -124 51t-50 125q0 61 -38 99t-100 38q-61 0 -100 -37.5t-39 -99.5z" />
<glyph unicode="K" horiz-adv-x="1142" d="M0 -86v1389q0 117 77 194.5t193 77.5q117 0 195 -78t78 -194v-185q27 84 97.5 135.5t160.5 51.5q117 0 194.5 -78t77.5 -195q0 -61 -12 -121q12 -39 12 -84v-26q135 -154 135 -375v-453q0 -33 33 -32q125 0 202 -75t77 -198q0 -53 -17 -100q17 -48 17 -105 q0 -117 -77 -193.5t-194 -76.5q-248 0 -415.5 164t-167.5 412v452q0 31 -33 31h-90v-338q0 -117 -78 -193.5t-195 -76.5t-193.5 76.5t-76.5 193.5zM133 119q0 -61 38 -99t99 -38t100.5 37.5t39.5 99.5v471h223q68 0 117 -48t49 -116v-453q0 -190 126 -316t316 -126h8 q61 0 99 38t38 99q0 139 -137 139h-8q-70 0 -118 48.5t-48 117.5v453q0 240 -203 371q68 109 68 235q0 61 -39 100t-100 39q-59 0 -98 -38.5t-39 -98.5q0 -66 -42 -114t-108 -54l-104 2v435q0 61 -39 100t-101 39q-61 0 -99 -39t-38 -100v-1184z" />
<glyph unicode="L" horiz-adv-x="854" d="M0 219v1088q0 117 77 193.5t193 76.5q117 0 195 -77t78 -193v-883q0 -33 32 -33h91q117 0 193.5 -77.5t76.5 -194.5q0 -55 -18 -103q18 -49 18 -102q0 -117 -77 -193.5t-193 -76.5h-91q-244 0 -409.5 165.5t-165.5 409.5zM133 424q0 -190 126 -316t316 -126h91 q61 0 99 38t38 99t-38 100t-99 39h-91q-70 0 -117.5 48t-47.5 118v883q0 61 -39 99t-101 38q-61 0 -99 -38t-38 -99v-883z" />
<glyph unicode="M" horiz-adv-x="1654" d="M0 -86v1087q0 242 167 409t408 167q156 0 287 -76q129 76 287 76q242 0 407.5 -167t165.5 -409v-1028q0 -33 33 -32q121 0 201 -77t80 -196q0 -53 -19 -102q19 -48 19 -103q0 -117 -78 -193.5t-195 -76.5q-246 0 -414.5 165t-168.5 411v1028q0 31 -29 32v-915 q0 -117 -78 -193.5t-194 -76.5q-117 0 -194 76.5t-77 193.5v883q0 33 -33 32q-33 0 -32 -32v-883q0 -117 -77 -193.5t-194 -76.5t-194.5 76.5t-77.5 193.5zM133 119q0 -61 39 -99t100 -38t99.5 37.5t38.5 99.5v882q0 70 48 118t117 48q68 0 117 -49t49 -117v-882 q0 -61 38 -99t100 -38q61 0 100 37.5t39 99.5v983q48 65 129 65h2q68 0 116 -49t48 -117v-1028q0 -188 127 -315t315 -127h8q61 0 100.5 38t39.5 99t-39 100t-101 39h-8q-70 0 -118 48.5t-48 117.5v1028q0 188 -126 315.5t-314 127.5q-164 0 -287 -107q-125 106 -287 107 q-188 0 -315 -127t-127 -316v-882z" />
<glyph unicode="N" horiz-adv-x="1083" d="M0 -86v1087q0 242 167 409t408 167q231 0 400 -158q174 -164 174 -393l2 -1053q0 -33 33 -32q121 0 200.5 -77t79.5 -196q0 -55 -18 -102q18 -48 18 -103q0 -117 -78.5 -193.5t-193.5 -76.5q-248 0 -416 164t-168 412v118l-2 910q0 33 -31 32q-33 0 -32 -32v-883 q0 -117 -78 -193.5t-195 -76.5t-193.5 76.5t-76.5 193.5zM133 119q0 -61 38 -99t99 -38t100.5 37.5t39.5 99.5v882q0 70 48 118t117 48q68 0 116 -49t48 -117l2 -1028q0 -190 126 -316t317 -126h8q61 0 100 38t39 99t-39 100t-100 39h-8q-70 0 -118 48.5t-48 117.5l-2 1053 q0 174 -132 296t-309 122q-188 0 -315 -127t-127 -316v-882z" />
<glyph unicode="O" horiz-adv-x="1654" d="M-6 506q0 51 6 102q-6 51 -6 103q0 365 251 615.5t615 250.5q365 0 615.5 -251t250.5 -615q0 -53 -6 -105q6 -49 6 -100q0 -362 -251.5 -614t-614.5 -252q-365 0 -615.5 250.5t-250.5 615.5zM127 711q0 -309 212 -521.5t521 -212.5t521 212.5t212 521.5t-212 521 t-521 212t-521 -212t-212 -521zM403 711q0 197 131.5 326.5t325.5 129.5q195 0 326 -130.5t131 -325.5t-131 -326t-326 -131q-193 0 -325 131t-132 326zM553 608q31 -98 114 -159.5t193 -61.5q111 0 194.5 61.5t114.5 161.5q-23 70 -77 127q-94 92 -232 92 q-111 0 -194.5 -60t-112.5 -161z" />
<glyph unicode="P" horiz-adv-x="1247" d="M0 -86v1008q0 279 188.5 467t466.5 188q279 0 468.5 -188.5t189.5 -466.5q0 -53 -8 -105q8 -49 8 -100q0 -276 -190.5 -467t-467.5 -191q-59 0 -112 23v-168q0 -117 -78 -193.5t-195 -76.5q-115 0 -192.5 77.5t-77.5 192.5zM133 119q0 -59 39 -98t98 -39q61 0 100.5 37.5 t39.5 99.5v803q0 102 71.5 173.5t173.5 71.5t175 -71.5t73 -173.5t-72.5 -175t-175.5 -73q-61 0 -99 -38t-38 -99t38 -100.5t99 -39.5q223 0 374 151t151 374t-150.5 372.5t-374.5 149.5q-223 0 -372.5 -149.5t-149.5 -372.5v-803zM573 795q48 1 134 24q-25 10 -52 10 q-49 0 -82 -34z" />
<glyph unicode="Q" horiz-adv-x="1662" d="M0 506q0 51 6 100q-6 51 -6 105q0 365 251 615.5t615 250.5q365 0 616 -251t251 -615q0 -51 -7 -101q7 -51 7 -104q0 -279 -161 -505t-421 -314l-2 -11q-2 -113 -6 -225q-12 -131 -62 -196q-63 -86 -202 -86q-115 0 -193 77.5t-78 192.5v362q-55 -28 -117 -28h-4 q-94 0 -172 65q-315 258 -315 668zM133 711q0 -346 266 -566q42 -34 86 -34h2q57 0 99.5 43t42.5 100q0 61 -54 104q-165 136 -165 350q0 200 130 329.5t326 129.5q195 0 326 -131t131 -325q0 -147 -84 -266t-223 -166v118q0 188 -126 315.5t-315 127.5q-61 0 -100 -38 t-39 -100q0 -63 40 -101t106.5 -38t111.5 -49t45 -117l2 -753q0 -59 39 -98.5t99 -39.5q59 0 99 39t40 99l-2 350q258 51 420.5 252t162.5 465q0 309 -211.5 521t-521.5 212q-309 0 -521 -212t-212 -521zM979 811q121 -117 156 -283q27 39 39 80q-45 152 -195 203z" />
<glyph unicode="R" horiz-adv-x="1243" d="M0 -86v1008q0 279 188.5 467t466.5 188q279 0 468.5 -188.5t189.5 -466.5q0 -51 -8 -101q8 -51 8 -104q0 -236 -148 -416q66 -76 66 -182q0 -53 -19 -103q18 -47 19 -102q0 -117 -78 -193.5t-195 -76.5q-262 0 -428 186q-27 -84 -97.5 -135t-162.5 -51 q-115 0 -192.5 77.5t-77.5 192.5zM133 119q0 -59 39 -98t98 -39q61 0 100.5 37.5t39.5 99.5v803q0 102 71.5 173.5t173.5 71.5t175 -71.5t73 -173.5t-72.5 -175t-175.5 -73q-55 0 -96 -41t-41 -96v-113q0 -190 126 -316t314 -126q61 0 100.5 37.5t39.5 99.5q0 63 -39 101 t-103.5 38t-111.5 46t-49 112q172 49 278.5 188.5t106.5 317.5q0 223 -150.5 372.5t-374.5 149.5q-223 0 -372.5 -149.5t-149.5 -372.5v-803zM571 793q50 3 136 26q-25 10 -52 10q-51 0 -84 -36z" />
<glyph unicode="S" horiz-adv-x="991" d="M0 -88q0 53 18 102q-18 49 -18 103q0 115 76 192.5t190 79.5l-6 449q0 29 2 59l-2 145v11q0 216 152 368q156 156 383 156q117 0 194.5 -77t77.5 -193q0 -55 -18 -105q18 -47 18 -100q0 -117 -72.5 -189.5t-183.5 -81.5l-6 -655q-2 -223 -156.5 -378.5t-378.5 -155.5 q-117 0 -193.5 76.5t-76.5 193.5zM133 117q0 -61 38 -99t99 -38q168 0 285 115.5t117 285.5l-2 661q0 115 132 126.5t132 138.5q0 61 -39 99t-100 38q-170 0 -286 -116t-116 -286l2 -661q0 -53 -35.5 -89t-89.5 -36q-61 0 -99 -39t-38 -100z" />
<glyph unicode="T" horiz-adv-x="1112" d="M0 1102q0 53 18 102q-18 49 -18 103q0 117 78 193.5t194 76.5h648q117 0 194.5 -77t77.5 -193q0 -55 -18 -103q18 -49 18 -102q0 -117 -78 -195t-194 -78h-58v-915q0 -117 -76.5 -193.5t-193.5 -76.5t-195 76.5t-78 193.5v915h-47q-117 0 -194.5 78t-77.5 195zM133 1307 q0 -61 39 -100.5t100 -39.5h181v-1048q0 -61 38.5 -99t100.5 -38q61 0 99 37.5t38 99.5v1048h191q61 0 100 39.5t39 100.5t-39 99t-100 38h-648q-61 0 -100 -38t-39 -99z" />
<glyph unicode="U" horiz-adv-x="1083" d="M0 219v1088q0 117 77 193.5t193 76.5q117 0 195 -77t78 -193v-883q0 -33 32 -33q31 0 31 33v885q0 115 79 193.5t194 78.5q117 0 193.5 -78t76.5 -194v-1090q0 -242 -166 -408.5t-408 -166.5q-244 0 -409.5 165.5t-165.5 409.5zM133 424q0 -190 126 -316t316 -126 q188 0 314.5 127t126.5 315v885q0 61 -38 100t-99 39q-59 0 -99.5 -40t-40.5 -99v-885q0 -70 -47 -118t-117 -48t-117.5 48t-47.5 118v883q0 61 -39 99t-101 38q-61 0 -99 -38t-38 -99v-883z" />
<glyph unicode="V" horiz-adv-x="1234" d="M-53 1106q0 53 20 100l-4 13q-16 45 -16 92q0 113 82 190.5t194 77.5q131 0 221 -127q68 -92 119 -266q35 -119 68 -238q33 119 67 238q51 174 119 266q90 127 221 127q113 0 195 -78t82 -190q0 -41 -19 -92l-2 -11q21 -49 21 -102q0 -41 -19 -92l-409 -1188 q-70 -207 -256 -207t-256 207l-412 1188q-16 45 -16 92zM80 1311q0 -25 8 -49l412 -1188q41 -117 131 -117t131 117l409 1188q11 31 11 49q0 57 -43 96t-101 39q-94 0 -127 -94l-280 -811l-281 811q-33 94 -127 94q-57 0 -100 -39t-43 -96z" />
<glyph unicode="W" horiz-adv-x="1654" d="M0 219v1088q0 117 78 193.5t194 76.5q117 0 194 -77t77 -193v-883q0 -29 26 -33v916q0 117 78 193.5t195 76.5t193.5 -77t76.5 -193v-883q0 -33 33 -33t33 33v883q0 117 76.5 193.5t193.5 76.5t194.5 -77t77.5 -193v-1088q0 -242 -167 -408.5t-408 -166.5q-156 0 -285 75 q-127 -75 -281 -75h-4q-244 0 -409.5 165.5t-165.5 409.5zM133 424q0 -190 126 -316t316 -126q162 0 285 104q123 -104 285 -104q188 0 315 127t127 315v883q0 61 -39 99t-100 38t-99 -38t-38 -99v-883q0 -70 -48.5 -118t-117.5 -48q-70 0 -118 48t-48 118v883q0 61 -38 99 t-99 38t-100.5 -38t-39.5 -99v-990q-49 -59 -127 -59q-70 0 -117.5 48t-47.5 118v883q0 61 -38 99t-100 38q-61 0 -100 -38t-39 -99v-883z" />
<glyph unicode="X" horiz-adv-x="1075" d="M0 -86v483q0 111 37 209q-37 96 -37 207v494q0 117 77 193.5t193 76.5q117 0 195 -77t78 -193v-289q0 -31 32 -31q31 0 31 31v289q0 115 79 192.5t194 77.5q117 0 193.5 -77t76.5 -193v-494q0 -111 -37 -207q37 -98 37 -209v-483q0 -117 -77 -193.5t-193 -76.5 q-115 0 -194 77.5t-79 192.5v279q0 33 -31 32q-33 0 -32 -32v-279q0 -117 -78 -193.5t-195 -76.5t-193.5 76.5t-76.5 193.5zM133 119q0 -61 38 -99t99 -38t100.5 37.5t39.5 99.5v278q0 70 48 118t117 48q68 0 116 -49t48 -117v-278q0 -59 40 -98t100 -39q61 0 99 38t38 99 v278q0 182 -127 312q127 129 127 309v289q0 61 -38 99t-99 38q-59 0 -99.5 -39t-40.5 -98v-289q0 -68 -48 -116t-116 -48q-70 0 -117.5 47t-47.5 117v289q0 61 -39 99t-101 38q-61 0 -99 -38t-38 -99v-289q0 -180 127 -309q-127 -129 -127 -312v-278z" />
<glyph unicode="Y" horiz-adv-x="1085" d="M0 219v21q0 39 10 75q-10 53 -10 109v20q0 86 45 154q-45 106 -45 227v482q0 117 77 193.5t193 76.5q117 0 195 -77t78 -193v-277q0 -33 32 -33q31 0 31 33v277q0 115 79 192.5t194 77.5q117 0 193.5 -77t76.5 -193v-1088q0 -242 -166 -408.5t-408 -166.5 q-244 0 -409.5 165.5t-165.5 409.5zM133 424q0 -190 126 -316t316 -126q188 0 314.5 127t126.5 315v883q0 61 -38 99t-99 38q-59 0 -99.5 -39t-40.5 -98v-277q-6 -27 -12 -47q-14 -51 -35 -70q-47 -49 -117 -49t-117.5 48.5t-47.5 117.5v277q0 61 -39 99t-101 38 q-61 0 -99 -38t-38 -99v-277q0 -190 126 -316t316 -126q86 0 164 33v-197q0 -70 -47 -118t-117 -48t-117.5 48t-47.5 118v20q0 61 -39 99.5t-101 38.5q-61 0 -99 -38t-38 -100v-20z" />
<glyph unicode="Z" horiz-adv-x="1150" d="M-27 98q0 84 45 160l336 571q-113 4 -186.5 81t-73.5 192q0 53 19 102q-18 49 -19 103q0 117 77 193.5t194 76.5h585q117 0 193 -57q88 -68 88 -193q0 -49 -19 -100q19 -48 19 -105q0 -78 -47 -157l-338 -574h112q117 0 194 -77.5t77 -194.5q0 -53 -19 -103 q18 -49 19 -102q0 -117 -77 -193.5t-194 -76.5h-706q-115 0 -197 67.5t-82 182.5q0 55 21 106q-20 45 -21 98zM106 98q0 -57 43.5 -86.5t102.5 -29.5h706q61 0 99.5 37.5t38.5 99.5q0 61 -38 100t-100 39h-464l575 979q29 49 29 90q0 117 -148 117h-585q-61 0 -99.5 -38 t-38.5 -99t38 -100.5t100 -39.5h344l-576 -977q-27 -45 -27 -92z" />
<glyph unicode="[" horiz-adv-x="880" d="M0 -190v1423q0 242 167 408.5t408 166.5h91q117 0 193.5 -77.5t76.5 -194.5q0 -53 -18 -102q18 -49 18 -103q0 -117 -77 -193.5t-193 -76.5h-91q-33 0 -32 -33v-1014q0 -33 32 -32h91q117 0 193.5 -78t76.5 -195q0 -55 -18 -102q18 -50 18 -103q0 -117 -77 -193.5 t-193 -76.5h-91q-242 0 -408.5 167t-166.5 409zM133 14q0 -188 127 -315t315 -127h91q61 0 99 38t38 99t-38 100t-99 39h-91q-70 0 -117.5 48.5t-47.5 117.5v1219q0 70 48 118t117 48h91q61 0 99 38t38 99t-38 100t-99 39h-91q-188 0 -315 -127t-127 -315v-1219z" />
<glyph unicode="\" horiz-adv-x="983" d="M-47 1249q0 53 18 101l-2 8q-16 45 -16 96q0 115 81 191.5t195 76.5q184 0 250 -182l551 -1540q16 -45 17 -98q0 -53 -19 -99l2 -8q17 -45 17 -98q0 -113 -82 -189.5t-195 -76.5q-186 0 -250 180l-551 1542q-16 45 -16 96zM86 1454q0 -29 8 -51l551 -1542q33 -92 125 -92 q57 0 100 38t43 95q0 31 -8 53l-551 1540q-33 94 -125 94q-59 0 -101 -38t-42 -97z" />
<glyph unicode="]" horiz-adv-x="872" d="M0 -291q0 117 78 195t194 78h90q33 0 33 32v1014q0 33 -33 33h-90q-117 0 -194.5 76.5t-77.5 193.5q0 53 18 103q-18 49 -18 102q0 117 78 194.5t194 77.5h90q240 0 408 -167.5t168 -407.5v-1423q0 -242 -167 -409t-409 -167h-90q-117 0 -194.5 77t-77.5 193q0 53 18 103 q-18 49 -18 102zM133 -291q0 -61 39 -99t100 -38h90q188 0 315.5 127t127.5 315v1219q0 186 -128 314t-315 128h-90q-61 0 -100 -39t-39 -100t39 -99t100 -38h90q68 0 117 -49.5t49 -116.5v-1219q0 -70 -48 -118t-118 -48h-90q-61 0 -100 -38.5t-39 -100.5z" />
<glyph unicode="^" horiz-adv-x="876" d="M0 889q0 49 23 98q-23 51 -23 107q0 100 96 211q39 43 176 165q106 94 201 95q92 0 217 -107l176 -174q82 -82 82 -190q0 -55 -20 -105q20 -47 20 -100q0 -113 -82 -194t-194 -81q-106 0 -189 82h-20q-82 -82 -189 -82q-111 0 -192.5 82t-81.5 193zM133 1094 q0 -55 43 -98.5t98 -43.5q53 0 97 43l102 101l102 -101q43 -43 97 -43q57 0 100 42.5t43 99.5q0 53 -43 96q-156 154 -184 180q-68 61 -115 62q-43 0 -113 -62q-35 -31 -184 -180q-43 -43 -43 -96z" />
<glyph unicode="_" horiz-adv-x="1239" d="M0 -66q0 53 18 103q-18 49 -18 102q0 117 78 194t194 77h768q117 0 194 -77t77 -194q0 -55 -19 -102q19 -50 19 -103q0 -115 -77 -193.5t-194 -78.5h-768q-117 0 -194.5 78t-77.5 194zM133 139q0 -61 39 -100t100 -39h768q61 0 99.5 39t38.5 100t-38 99t-100 38h-768 q-61 0 -100 -37.5t-39 -99.5z" />
<glyph unicode="`" horiz-adv-x="628" d="M0 1059q0 55 16 104q-16 47 -16 101q0 131 87 217t214 86q117 0 193 -68q59 -51 108 -160q37 -94 76 -190q23 -53 22 -117q0 -55 -16 -104q16 -48 16 -101q0 -199 -184 -278q-59 -25 -119 -25q-115 0 -192 68q-59 53 -107 162q-39 96 -75 190q-23 55 -23 115zM133 1264 q0 -33 12 -64l97 -233q43 -104 155 -105q33 0 66 15q104 44 104 155q0 37 -12 66l-96 231q-43 104 -158 105q-33 0 -63 -13q-104 -43 -105 -157z" />
<glyph unicode="a" horiz-adv-x="1247" d="M0 297q0 51 8 102q-8 51 -8 103q0 279 188.5 467t466.5 188q279 0 468.5 -189.5t189.5 -465.5v-588q0 -117 -79 -193.5t-194 -76.5t-190 73q-77 -77 -192 -77h-3q-279 0 -467 189t-188 468zM133 502q0 -223 149.5 -374t372.5 -151q61 0 100.5 39t39.5 101q0 61 -39 99 t-101 38q-102 0 -173.5 72.5t-71.5 175.5q0 102 71.5 174t173.5 72t175 -72t73 -174v-383q0 -61 38 -99t99 -38t100.5 38t39.5 99v383q0 223 -150.5 372.5t-374.5 149.5q-223 0 -372.5 -149.5t-149.5 -372.5zM606 399q20 -10 64 -14q51 -4 69 -10q-35 35 -84 35 q-27 0 -49 -11z" />
<glyph unicode="b" horiz-adv-x="1239" d="M0 299v1008q0 115 78 192.5t192 77.5q117 0 195 -77t78 -193v-168q51 22 107 22h5q279 0 468.5 -189.5t189.5 -467.5q0 -53 -8 -103q8 -51 8 -102q0 -274 -191.5 -464.5t-466.5 -190.5q-276 0 -465.5 189.5t-189.5 465.5zM133 504q0 -221 150.5 -371.5t371.5 -150.5 t373 150.5t152 371.5q0 223 -150.5 373.5t-374.5 150.5q-61 0 -99 -39t-38 -100t38 -99t99 -38q102 0 175 -73t73 -175t-72.5 -174t-175.5 -72q-102 0 -173.5 71.5t-71.5 174.5v803q0 61 -39 99t-101 38q-59 0 -98 -39t-39 -98v-803zM573 426q33 -35 82 -35q27 0 52 10 q-23 10 -66 15q-49 4 -68 10z" />
<glyph unicode="c" horiz-adv-x="858" d="M0 299q0 51 8 102q-8 51 -8 103q0 279 188.5 468t466.5 189q117 0 195 -77.5t78 -194.5q0 -53 -19 -103q18 -49 19 -102q0 -117 -78 -193.5t-195 -76.5q-27 0 -49 -13q23 -10 49 -10q117 0 195 -77.5t78 -194.5q0 -55 -19 -103q19 -49 19 -102q0 -117 -79 -193.5 t-194 -76.5q-276 0 -465.5 189.5t-189.5 465.5zM133 504q0 -221 150.5 -371.5t371.5 -150.5q61 0 100.5 38t39.5 99t-39 100t-101 39q-102 0 -173.5 71.5t-71.5 174.5q0 102 71.5 175t173.5 73q61 0 100.5 37.5t39.5 99.5q0 61 -39 100t-101 39q-223 0 -372.5 -150.5 t-149.5 -373.5z" />
<glyph unicode="d" horiz-adv-x="1247" d="M0 299q0 51 8 102q-8 51 -8 103q0 279 188.5 468t466.5 189q61 0 115 -22v168q0 115 78 192.5t192 77.5q117 0 195 -77t78 -193v-1008q0 -274 -191.5 -464.5t-466.5 -190.5q-276 0 -465.5 189.5t-189.5 465.5zM133 504q0 -221 150.5 -371.5t371.5 -150.5t373 150.5 t152 371.5v803q0 61 -39 99t-101 38q-59 0 -98 -39t-39 -98v-803q0 -102 -72.5 -174t-175.5 -72q-102 0 -173.5 71.5t-71.5 174.5q0 102 71.5 175t173.5 73q61 0 100.5 37.5t39.5 99.5q0 61 -39 100t-101 39q-223 0 -372.5 -150.5t-149.5 -373.5zM606 401q23 -10 49 -10 q49 0 82 35q-47 -2 -131 -25z" />
<glyph unicode="e" horiz-adv-x="1136" d="M0 297q0 51 8 102q-8 51 -8 103q0 279 188.5 467t466.5 188q182 0 355 -100q198 -114 198 -285q0 -57 -20 -104q20 -50 20 -103q0 -129 -104 -213q-16 -16 -57 -59q61 -74 61 -176q0 -53 -18 -103q18 -49 18 -102q0 -117 -77 -194.5t-193 -77.5h-183q-276 0 -465.5 189 t-189.5 468zM133 502q0 -223 149.5 -374t372.5 -151h183q61 0 99 39t38 101q0 61 -38 99t-99 38h-183q-102 0 -173.5 72.5t-71.5 175.5q0 102 71.5 174t173.5 72q27 0 54 -5l-148 -145q-45 -45 -45 -96q0 -57 42 -100.5t99 -43.5q51 0 97 43l262 256q59 45 59 113 q0 51 -41 94q-156 160 -379 160t-372.5 -149.5t-149.5 -372.5z" />
<glyph unicode="f" horiz-adv-x="1071" d="M0 -86v1087q0 244 166 410t409 166q242 0 408 -167t166 -409v-14q0 -41 -10 -78q10 -55 10 -112v-15q0 -51 -16 -96q24 -51 24 -112q0 -60 -18 -107q18 -49 18 -102q0 -117 -76.5 -194t-193.5 -77h-344v-180q0 -117 -78 -193.5t-195 -76.5t-193.5 76.5t-76.5 193.5z M133 119q0 -61 38 -99t99 -38t100.5 37.5t39.5 99.5v313h477q61 0 99 38t38 99t-38 100.5t-99 39.5h-477v292q0 70 48 118t117 48q70 0 117 -48t47 -118v-14q0 -59 40 -99t100 -40q61 0 99 39t38 100v14q0 188 -126 315.5t-315 127.5q-190 0 -316 -126t-126 -317v-882z" />
<glyph unicode="g" horiz-adv-x="1247" d="M0 297q0 51 8 102q-8 51 -8 103q0 279 188.5 467t466.5 188q279 0 467.5 -188.5t188.5 -466.5v-699q0 -119 -54 -223q53 -72 54 -168q0 -63 -11 -123q11 -39 11 -82q0 -276 -189.5 -465.5t-466.5 -189.5q-276 0 -465.5 189.5t-189.5 465.5q0 51 8 103q-8 51 -8 102 q0 256 166 443q-166 184 -166 442zM133 502q0 -223 149.5 -374t372.5 -151q61 0 100.5 39t39.5 101q0 61 -39 99t-101 38q-102 0 -173.5 72.5t-71.5 175.5q0 102 71.5 174t173.5 72t174 -72t72 -174v-494q0 -29 -20.5 -50t-49.5 -21h-178q-221 0 -370.5 -152t-149.5 -373 t150.5 -371.5t371.5 -150.5t372 150.5t151 371.5q0 61 -38 100t-100 39q-59 0 -99 -39.5t-40 -99.5q0 -102 -71.5 -174t-174.5 -72q-102 0 -173.5 72t-71.5 174t71.5 175t173.5 73h176q145 0 246 101.5t101 246.5v494q0 223 -149.5 372.5t-373.5 149.5q-223 0 -372.5 -149.5 t-149.5 -372.5zM606 399q20 -10 66.5 -14t64.5 -8q-33 33 -82 33q-27 0 -49 -11zM606 -690q23 -10 49 -10h3q37 0 67 22h-70q-27 0 -49 -12z" />
<glyph unicode="h" horiz-adv-x="1079" d="M0 -86v1393q0 117 77 193.5t193 76.5q117 0 195 -77t78 -193v-150h32q242 0 409 -166t167 -407v-611q0 -33 33 -32q121 0 199.5 -77t78.5 -196q0 -55 -18 -102q18 -48 18 -103q0 -117 -76.5 -193.5t-193.5 -76.5q-248 0 -416 165t-168 411l-2 610q0 31 -31 31 q-33 0 -32 -31v-465q0 -117 -78 -193.5t-195 -76.5t-193.5 76.5t-76.5 193.5zM133 119q0 -61 38 -99t99 -38t100.5 37.5t39.5 99.5v465q0 70 48 117t117 47q68 0 116 -48.5t48 -115.5l2 -611q0 -188 127 -315t316 -127h8q61 0 99 38t38 99t-38 100t-99 39h-8 q-70 0 -118 48.5t-48 117.5v611q0 188 -127 314t-316 126q-88 0 -165 -31v314q0 61 -39 99t-101 38q-61 0 -99 -38t-38 -99v-1188z" />
<glyph unicode="i" horiz-adv-x="475" d="M-33 1087q0 53 19 103q-18 49 -19 102q0 125 89 214t214 89t214 -89t89 -214q0 -53 -18 -102q18 -50 18 -103q0 -78 -34 -143q4 -27 4 -57v-973q0 -117 -79 -193.5t-194 -76.5q-117 0 -193.5 76.5t-76.5 193.5v973q0 29 4 55q-37 68 -37 145zM100 1292q0 -70 50.5 -120 t119.5 -50q70 0 120 50t50 120t-50 120t-120 50t-120 -50t-50 -120zM133 119q0 -61 38 -99t99 -38t100.5 38t39.5 99v768q0 137 -140 137q-61 0 -99 -38t-38 -99v-768z" />
<glyph unicode="j" horiz-adv-x="473" d="M-313 -332q0 117 77.5 195t194.5 78q41 0 41 32v914q0 29 4 55q-37 68 -37 145q0 53 19 103q-18 49 -19 102q0 125 89 214t214 89t214 -89t89 -214q0 -55 -18 -102q18 -50 18 -103q0 -78 -34 -143q4 -27 4 -57v-1118q0 -242 -167 -409t-409 -167q-121 0 -200.5 76 t-79.5 194q0 53 18 103q-18 47 -18 102zM-180 -332q0 -61 39 -99t100 -38h8q188 0 315.5 127t127.5 315v914q0 137 -140 137q-61 0 -99 -38t-38 -99v-914q0 -70 -48 -118t-118 -48h-8q-61 0 -100 -38.5t-39 -100.5zM100 1292q0 -70 50.5 -120t119.5 -50q70 0 120 50t50 120 t-50 120t-120 50t-120 -50t-50 -120z" />
<glyph unicode="k" horiz-adv-x="1044" d="M0 -86v1389q0 117 77 194.5t193 77.5q117 0 195 -78t78 -194v-328q51 182 258 182q117 0 194.5 -76.5t77.5 -193.5q0 -63 -12 -121q12 -41 12 -84q0 -96 -29 -182q74 -127 74 -285v-242q0 -33 33 -32q121 0 201 -77t80 -196q0 -53 -19 -102q19 -48 19 -103 q0 -117 -78 -193.5t-195 -76.5q-246 0 -415 165t-169 411v241q0 31 -32 31v-127q0 -117 -78 -193.5t-195 -76.5t-193.5 76.5t-76.5 193.5zM133 119q0 -61 38 -99t99 -38t100.5 37.5t39.5 99.5v260h133q70 0 118 -47t48 -117v-242q0 -188 127 -315t315 -127h8q61 0 100 38 t39 99t-38.5 100t-100.5 39h-8q-70 0 -118 48.5t-48 117.5v242q0 221 -180 354q135 131 135 318q0 61 -39 99t-100 38q-137 0 -137 -141q0 -68 -50 -116q-48 -46 -111 -46h-5l-88 2v580q0 61 -39 100t-101 39q-61 0 -99 -39t-38 -100v-1184z" />
<glyph unicode="l" horiz-adv-x="473" d="M0 -86v1389q0 117 77 193.5t193 76.5q125 0 199 -73t74 -197v-1389q0 -117 -79 -193.5t-194 -76.5q-117 0 -193.5 76.5t-76.5 193.5zM133 119q0 -61 38 -99t99 -38t100.5 38t39.5 99v1184q0 137 -140 137q-61 0 -99 -38t-38 -99v-1184z" />
<glyph unicode="m" horiz-adv-x="1654" d="M0 -86v670q0 242 167 407.5t408 165.5q156 0 287 -76q129 76 287 76q242 0 407.5 -166t165.5 -407v-611q0 -33 33 -32q121 0 201 -77t80 -196q0 -53 -19 -102q19 -48 19 -103q0 -117 -78 -193.5t-195 -76.5q-246 0 -414.5 165t-168.5 411v610q0 31 -29 31v-496 q0 -117 -78 -193.5t-194 -76.5q-117 0 -194 76.5t-77 193.5v465q0 31 -33 31t-32 -31v-465q0 -117 -77 -193.5t-194 -76.5t-194.5 76.5t-77.5 193.5zM133 119q0 -61 39 -99t100 -38t99.5 37.5t38.5 99.5v465q0 70 48 117t117 47q68 0 117 -48.5t49 -115.5v-465q0 -61 38 -99 t100 -38q61 0 100 37.5t39 99.5v565q49 63 131 64q68 0 116 -48.5t48 -115.5v-611q0 -188 127 -315t315 -127h8q61 0 100.5 38t39.5 99t-39 100t-101 39h-8q-70 0 -118 48.5t-48 117.5v611q0 188 -126 314t-314 126q-164 0 -287 -104q-125 104 -287 104q-188 0 -315 -126 t-127 -314v-465z" />
<glyph unicode="n" horiz-adv-x="1079" d="M0 -86v670q0 242 167 407.5t408 165.5q242 0 409 -166t167 -407v-611q0 -33 33 -32q121 0 200.5 -77t79.5 -196q0 -55 -18 -102q18 -48 18 -103q0 -117 -78.5 -193.5t-193.5 -76.5q-248 0 -416 164t-168 412v96l-2 514q0 31 -31 31q-33 0 -32 -31v-465q0 -117 -78 -193.5 t-195 -76.5t-193.5 76.5t-76.5 193.5zM133 119q0 -61 38 -99t99 -38t100.5 37.5t39.5 99.5v465q0 70 48 117t117 47q68 0 116 -48.5t48 -115.5l2 -611q0 -190 126 -316t317 -126h8q61 0 100 38t39 99t-39 100t-100 39h-8q-70 0 -118 48.5t-48 117.5v611q0 188 -127 314 t-316 126q-188 0 -315 -126t-127 -314v-465z" />
<glyph unicode="o" horiz-adv-x="1234" d="M0 297q0 51 8 102q-8 51 -8 103q0 279 188.5 467t466.5 188q279 0 468.5 -188.5t189.5 -466.5q0 -53 -8 -105q8 -49 8 -100q0 -276 -190.5 -466.5t-467.5 -190.5q-279 0 -467 189t-188 468zM133 502q0 -223 149.5 -374t372.5 -151t374 151t151 374t-150.5 372.5 t-374.5 149.5q-223 0 -372.5 -149.5t-149.5 -372.5zM410 502q0 102 71.5 174t173.5 72t175 -72t73 -174t-72.5 -175t-175.5 -73q-102 0 -173.5 72.5t-71.5 175.5z" />
<glyph unicode="p" horiz-adv-x="1234" d="M0 502q0 279 188.5 467t466.5 188q279 0 468.5 -188.5t189.5 -466.5q0 -53 -8 -105q8 -49 8 -100q0 -276 -190.5 -466.5t-467.5 -190.5q-59 0 -112 22v-166q0 -117 -78 -194.5t-195 -77.5t-193.5 77.5t-76.5 194.5v1006zM133 -299q0 -61 38 -100t99 -39t100.5 39 t39.5 100v801q0 102 71.5 174t173.5 72t175 -72t73 -174t-72.5 -175t-175.5 -73q-61 0 -99 -38t-38 -99t38 -100.5t99 -39.5q223 0 374 151t151 374t-150.5 372.5t-374.5 149.5q-223 0 -372.5 -149.5t-149.5 -372.5v-801zM573 375q48 1 134 24q-25 10 -52 11q-49 0 -82 -35z " />
<glyph unicode="q" horiz-adv-x="1243" d="M0 297q0 51 8 102q-8 51 -8 103q0 279 188.5 467t466.5 188q279 0 468.5 -189.5t189.5 -465.5v-1006q0 -117 -78 -194.5t-195 -77.5t-193.5 77.5t-76.5 194.5v166q-51 -22 -110 -22h-5q-279 0 -467 189t-188 468zM133 502q0 -223 149.5 -374t372.5 -151q61 0 100.5 39 t39.5 101q0 61 -39 99t-101 38q-102 0 -173.5 72.5t-71.5 175.5q0 102 71.5 174t173.5 72t175 -72t73 -174v-801q0 -61 38 -100t99 -39t100.5 39t39.5 100v801q0 223 -150.5 372.5t-374.5 149.5q-223 0 -372.5 -149.5t-149.5 -372.5zM606 399q20 -10 64 -14q51 -4 67 -10 q-33 35 -82 35q-27 0 -49 -11z" />
<glyph unicode="r" horiz-adv-x="761" d="M0 -86v670q0 242 167 407.5t408 165.5q115 0 193 -78t78 -192q0 -57 -19 -105q19 -47 19 -100q0 -121 -73 -191.5t-189 -80.5q-41 -2 -41 -31v-465q0 -117 -78 -193.5t-195 -76.5t-193.5 76.5t-76.5 193.5zM133 119q0 -61 38 -99t99 -38t100.5 37.5t39.5 99.5v465 q0 70 46 113.5t115 50.5q142 12 142 139q0 59 -39 98t-99 39q-188 0 -315 -126t-127 -314v-465z" />
<glyph unicode="s" horiz-adv-x="987" d="M0 -84q0 53 18 102q-18 49 -18 103q0 115 75 192.5t189 79.5v25q0 23 2 47q-2 27 -2 45v113q0 225 154.5 379.5t380.5 154.5q117 0 194.5 -76.5t77.5 -193.5q0 -55 -18 -103q18 -47 18 -102q0 -111 -72.5 -186.5t-183.5 -83.5q0 2 -4 8t-4 8q-2 -51 -2 -129v-39 q0 -154 -23 -235q-33 -121 -133 -224q-155 -155 -376 -155h-3q-117 0 -193.5 76.5t-76.5 193.5zM133 121q0 -61 38 -99t99 -38q168 0 284 116.5t118 284.5l2 238q0 31 5 46t31.5 41.5t93 38t100.5 45.5t34 93q0 61 -39 99t-100 38q-170 0 -286 -115.5t-116 -285.5v-113 q0 -14 -2 -84v-41q0 -53 -35.5 -89t-89.5 -36q-61 0 -99 -39t-38 -100z" />
<glyph unicode="t" horiz-adv-x="1071" d="M0 219v909q0 117 77 195t193 78q109 0 185.5 -69.5t87.5 -178.5h336q117 0 193.5 -77t76.5 -193q0 -57 -16 -107q16 -47 16 -98q0 -68 -23 -123q23 -53 23 -113v-18q0 -57 -10 -111q10 -37 10 -75v-19q0 -242 -166 -408.5t-408 -166.5q-244 0 -409.5 165.5t-165.5 409.5z M133 424q0 -190 126 -316t316 -126q188 0 314.5 127t126.5 315v18q0 59 -39 98.5t-98 39.5t-99.5 -39t-40.5 -99v-18q0 -70 -47 -118t-117 -48t-117.5 48t-47.5 118v319h469q137 0 137 140q0 61 -38 99t-99 38h-469v108q0 61 -39 100.5t-101 39.5q-61 0 -99 -39t-38 -101 v-704zM547 406q10 -14 28 -15q19 1 27 15h-55z" />
<glyph unicode="u" horiz-adv-x="1083" d="M0 219v664q0 117 77 194.5t193 77.5q117 0 195 -78t78 -194v-459q0 -33 32 -33q31 0 31 33v463q0 117 78 193.5t195 76.5t193.5 -76.5t76.5 -193.5v-668q0 -242 -166 -408.5t-408 -166.5q-244 0 -409.5 165.5t-165.5 409.5zM133 424q0 -190 126 -316t316 -126 q188 0 314.5 127t126.5 315v463q0 61 -38 99t-99 38t-100.5 -38t-39.5 -99v-463q0 -70 -47 -118t-117 -48t-117.5 48t-47.5 118v459q0 61 -39 100t-101 39q-61 0 -99 -39t-38 -100v-459z" />
<glyph unicode="v" horiz-adv-x="1026" d="M-31 686q0 53 21 100l-2 5q-18 49 -19 100q0 113 82 190.5t195 77.5q127 0 196 -90q39 -47 97 -199q57 152 96 199q70 90 196 90q113 0 195 -77.5t82 -190.5q0 -51 -18 -100l-3 -5q21 -47 21 -100q0 -51 -18 -100l-297 -768q-76 -197 -254 -197t-254 197l-297 768 q-18 49 -19 100zM102 891q0 -27 11 -53l297 -768q43 -111 129 -111t129 111l297 768q10 26 10 53q0 57 -43 96t-101 39q-90 0 -124 -90l-168 -434l-168 434q-35 90 -125 90q-57 0 -100.5 -39t-43.5 -96z" />
<glyph unicode="w" horiz-adv-x="1654" d="M0 223v668q0 125 73.5 197.5t198.5 72.5q117 0 194 -76.5t77 -193.5v-463q0 -33 32 -33q33 0 33 33v463q0 117 77 193.5t194 76.5q125 0 198.5 -72.5t73.5 -197.5v-496q29 0 29 33v463q0 117 77.5 193.5t194.5 76.5t193.5 -76.5t76.5 -193.5v-668q0 -242 -165.5 -408.5 t-407.5 -166.5q-158 0 -287 76q-131 -76 -287 -76q-244 0 -409.5 166t-165.5 409zM133 428q0 -190 126 -316t316 -126q162 0 287 104q123 -104 287 -104q188 0 314 127t126 315v463q0 61 -38 99t-99 38t-100 -38t-39 -99v-463q0 -70 -47 -118t-117 -48q-82 0 -131 64v565 q0 137 -139 137q-61 0 -99.5 -38t-38.5 -99v-463q0 -70 -48 -118t-118 -48t-117.5 48t-47.5 118v463q0 61 -38 99t-100 38q-139 0 -139 -137v-463z" />
<glyph unicode="x" horiz-adv-x="1079" d="M0 -33q0 45 6 90q-6 29 -6 62v53q0 123 45 229q-45 104 -45 228v53q0 33 6 61q-6 45 -6 91v53q0 117 77 193.5t193 76.5q125 0 199 -72.5t74 -197.5v-53q0 -31 32 -31q31 0 31 31v53q0 117 78 193.5t195 76.5t193.5 -76.5t76.5 -193.5v-53q0 -45 -6 -91q6 -29 6 -61v-53 q0 -123 -45 -228q45 -106 45 -229v-53q0 -33 -6 -62q6 -45 6 -90v-53q0 -117 -77 -193.5t-193 -76.5q-115 0 -194 77.5t-79 192.5v53q0 33 -31 33q-33 0 -32 -33v-53q0 -117 -78 -193.5t-195 -76.5t-193.5 76.5t-76.5 193.5v53zM133 119q0 -61 38 -99t99 -38t100.5 37.5 t39.5 99.5v53q0 70 48 118t117 48q68 0 116 -49t48 -117v-53q0 -59 40 -98t100 -39q61 0 99 38t38 99v53q0 199 -150 332q150 131 150 330v53q0 61 -38 99t-99 38t-100.5 -38t-39.5 -99v-53q0 -68 -48 -116t-116 -48q-70 0 -117.5 47t-47.5 117v53q0 137 -140 137 q-61 0 -99 -38t-38 -99v-53q0 -199 150 -330q-150 -133 -150 -332v-53z" />
<glyph unicode="y" horiz-adv-x="1079" d="M0 219v668q0 117 77 193.5t193 76.5q125 0 199 -72.5t74 -197.5v-463q0 -33 32 -33q31 0 31 33v463q0 117 78 193.5t195 76.5t193.5 -76.5t76.5 -193.5v-1118q0 -242 -167 -409t-409 -167q-121 0 -200.5 76t-79.5 194q0 53 18 103q-18 47 -18 102q0 23 4 43 q-137 74 -217 208t-80 300zM133 424q0 -190 126 -316t316 -126q86 0 164 30v-39q0 -68 -49 -117t-117 -49h-8q-61 0 -100 -38.5t-39 -100.5q0 -61 39 -99t100 -38h8q188 0 315.5 127t127.5 315v914q0 61 -38 99t-99 38t-100.5 -38t-39.5 -99v-463q0 -70 -47 -118t-117 -48 t-117.5 48t-47.5 118v463q0 137 -140 137q-61 0 -99 -38t-38 -99v-463z" />
<glyph unicode="z" horiz-adv-x="1097" d="M-23 74q0 147 195 383q-115 80 -115 225q0 55 19 102q-18 49 -19 103q0 117 77 193.5t194 76.5h569q106 0 180 -43q100 -57 101 -180q0 -49 -21 -107q21 -43 21 -98q0 -145 -193 -383q119 -78 119 -227q0 -53 -19 -101q18 -49 19 -104q0 -115 -78 -192.5t-192 -77.5h-574 q-109 0 -182 43q-100 57 -101 182q0 49 21 106q-20 43 -21 99zM111 74q0 -92 149 -92h574q59 0 98 38.5t39 98.5q0 61 -38 100t-99 39h-279q225 256 301 346q188 226 188 330q0 90 -147 90h-569q-61 0 -99.5 -38t-38.5 -99q0 -59 39 -99t99 -40h274l-303 -347 q-188 -223 -188 -327z" />
<glyph unicode="{" horiz-adv-x="780" d="M0 -190v1423q0 242 167 408q167 167 408 167h91q117 0 193 -77q77 -78 77 -195q0 -53 -18 -102q18 -49 18 -103q0 -117 -77 -193q-77 -77 -193 -77h-91q-33 0 -32 -33v-1014q0 -33 32 -32h91q117 0 193 -78q77 -78 77 -195q0 -55 -18 -102q18 -50 18 -103 q0 -117 -77 -193q-77 -77 -193 -77h-91q-242 0 -408 167q-167 167 -167 409zM133 14q0 -188 127 -315t315 -127h91q61 0 99 38t38 99t-38 101q-38 39 -99 38h-91q-70 0 -117 49q-48 48 -48 117v1219q0 70 48 118t117 48h91q61 0 99 38t38 99t-38 100t-99 39h-91 q-188 0 -315 -127t-127 -315v-1219z" />
<glyph unicode="|" horiz-adv-x="473" d="M0 -291v1802q0 117 77 194t193 77q117 0 195 -77t78 -194v-1802q0 -117 -79 -193.5t-194 -76.5q-117 0 -193.5 76.5t-76.5 193.5zM133 -86q0 -61 38 -99t99 -38t100.5 38t39.5 99v1597q0 61 -39 99.5t-101 38.5q-61 0 -99 -38t-38 -100v-1597z" />
<glyph unicode="}" horiz-adv-x="780" d="M0 -291q0 117 78 195t194 78h90q33 0 33 32v1014q0 33 -33 33h-90q-117 0 -194 77q-78 77 -78 193q0 53 18 103q-18 49 -18 102q0 117 78 195t194 77h90q240 0 408 -168t168 -407v-1423q0 -242 -167 -409t-409 -167h-90q-117 0 -194 77q-78 77 -78 193q0 53 18 103 q-18 49 -18 102zM133 -291q0 -61 39 -99t100 -38h90q188 0 316 127q127 127 127 315v1219q0 186 -128 314t-315 128h-90q-61 0 -100 -39t-39 -100t39 -99t100 -38h90q68 0 117 -49t49 -117v-1219q0 -70 -48 -117q-48 -48 -118 -49h-90q-61 0 -100 -38q-39 -39 -39 -101z" />
<glyph unicode="~" horiz-adv-x="899" d="M0 1049q0 51 20 102q-20 49 -20 102q0 129 117 228q111 94 243 94q90 0 211 -55q57 31 123 30q113 0 195 -80.5t82 -193.5q0 -51 -21 -100q21 -52 21 -105q0 -127 -119 -227q-111 -94 -242 -94q-76 0 -211 57q-57 -33 -125 -33q-111 0 -192.5 82t-81.5 193zM133 1253 q0 -55 43 -98t98 -43q57 0 103 49q2 2 6 2l90 -37q88 -39 137 -39q102 0 189 97q39 43 39 92q0 57 -43 99t-101 42q-57 0 -100 -49q-2 -2 -8 -2l-84 39q-80 37 -142 37q-104 0 -190 -96q-37 -41 -37 -93z" />
<glyph unicode="&#xa1;" horiz-adv-x="479" d="M-55 1069q0 53 18 105q-18 47 -18 100q0 127 88 215t215 88t215 -88t88 -215q0 -53 -16 -103q16 -49 16 -102q0 -80 -37 -143q6 -29 6 -58v-934q0 -117 -77.5 -194.5t-194.5 -77.5t-194 78t-77 194v934q0 29 5 56q-37 68 -37 145zM78 1274q0 -70 50 -119t120 -49t120 49 t50 119q0 72 -49.5 121t-120.5 49q-72 0 -121 -49t-49 -121zM111 139q0 -61 37.5 -100t99.5 -39q61 0 100 39t39 100v729q0 61 -39 100.5t-100 39.5t-99 -39t-38 -101v-729z" />
<glyph unicode="&#xa2;" horiz-adv-x="772" d="M-23 504q0 51 9 102q-8 51 -9 103q0 170 78 317q76 141 207 229q-12 39 -12 80q0 100 70.5 171t171.5 71q96 0 165.5 -66.5t75.5 -162.5q78 -29 125 -97.5t47 -156.5q0 -53 -18 -103q18 -49 18 -102q0 -117 -77.5 -194t-194.5 -77q-27 0 -49 -12q23 -10 49 -10 q117 0 194.5 -78t77.5 -194q0 -55 -18 -103q18 -49 18 -102q0 -117 -80 -195q-39 -39 -92 -59q0 -100 -71.5 -169t-169.5 -69q-100 0 -171 70t-71 170q0 47 16 90q-133 88 -211 232.5t-78 314.5zM111 709q0 -221 150.5 -372t371.5 -151q61 0 100 38.5t39 99.5t-39 100 t-100 39q-102 0 -174 71.5t-72 174.5q0 102 71.5 174.5t174.5 72.5q61 0 100 38t39 100q0 61 -39 100t-100 39q-223 0 -372.5 -150.5t-149.5 -373.5zM383 72q0 -45 31.5 -76t77.5 -31q45 0 76.5 31t31.5 76t-31.5 76.5t-76.5 31.5t-77 -31.5t-32 -76.5zM383 1335 q0 -45 31.5 -76.5t77.5 -31.5q45 0 76.5 31.5t31.5 76.5t-31.5 77t-76.5 32t-77 -32t-32 -77z" />
<glyph unicode="&#xa3;" horiz-adv-x="1224" d="M-23 -53v1054q0 242 167 409t409 167h90q117 0 193.5 -78t76.5 -194q0 -53 -18 -103q18 -49 18 -102q0 -35 -8 -66q78 -78 78 -192q0 -31 -6 -60q51 23 108 23q117 0 194 -78t77 -195v-90q0 -35 -4 -67q4 -23 4 -47v-90q0 -242 -166 -409t-408 -167h-534q-129 0 -200 80 t-71 205zM111 152q0 -152 137 -152h534q188 0 314.5 127t126.5 315v90q0 61 -38 100.5t-100 39.5q-59 0 -99 -40t-40 -100v-90q0 -70 -47 -118t-117 -48h-395v426h324q61 0 100 39t39 101q0 61 -39 99t-100 38h-324v22q0 70 48 118t118 48h90q61 0 99 38t38 100 q0 61 -37.5 100t-99.5 39h-90q-188 0 -315 -127t-127 -316v-849z" />
<glyph unicode="&#xa5;" horiz-adv-x="1189" d="M-20 186q0 53 18 103q-18 49 -18 102q0 33 6 62q-6 31 -6 63q0 53 18 102q-18 47 -18 103q0 100 59 174q-6 41 -6 84v520q0 117 76.5 193.5t193.5 76.5q125 0 198.5 -72.5t73.5 -197.5v-315q0 -33 33 -33t33 33v317q0 117 77 195t193 78q117 0 195 -78t78 -195v-522 q0 -41 -4 -78q63 -76 63 -180q0 -57 -16 -107q16 -47 16 -98q0 -35 -6 -65q6 -29 6 -60q0 -57 -16 -106q16 -48 16 -99q0 -125 -72.5 -198.5t-197.5 -73.5h-90q0 -117 -77 -193.5t-194 -76.5t-194.5 76.5t-77.5 193.5h-90q-117 0 -193.5 78t-76.5 194zM113 391 q0 -61 37.5 -100t99.5 -39h223v-133q0 -61 39 -99t100 -38t99.5 37.5t38.5 99.5v133h223q137 0 137 139q0 61 -38 99t-99 38h-223v54h223q137 0 137 139q0 61 -38 99t-99 38h-66q143 131 144 326v317q0 61 -39 100t-101 39q-61 0 -99 -38.5t-38 -100.5v-317q0 -70 -48 -118 t-118 -48t-118 48t-48 118v315q0 137 -139 137q-61 0 -99 -37.5t-38 -99.5v-315q0 -195 143 -326h-59q-61 0 -99 -38t-38 -99t37.5 -100t99.5 -39h223v-54h-223q-61 0 -99 -37.5t-38 -99.5z" />
<glyph unicode="&#xa7;" horiz-adv-x="1425" d="M-27 158q0 53 19 102q-18 49 -19 102q0 117 77 195t194 78h14q33 0 33 33v333q0 242 167 409t408 167q115 0 194 -67.5t87 -178.5q20 2 41 2q125 0 202.5 -74.5t77.5 -197.5q0 -53 -16 -100q16 -50 16 -105q0 -117 -76.5 -193.5t-193.5 -76.5q-43 0 -43 -33v-334 q0 -242 -167 -408.5t-408 -166.5h-15q-111 0 -185.5 68.5t-82.5 176.5q-20 -2 -39 -2h-14q-117 0 -194 77t-77 194zM106 362q0 -61 38 -99t100 -38h14q188 0 315 127t127 316v333q0 70 48.5 118t117.5 48h11q61 0 100 38.5t39 99.5t-39 100t-100 39h-11q-188 0 -315 -127 t-127 -316v-333q0 -70 -48 -118t-118 -48h-14q-61 0 -99.5 -39t-38.5 -101zM428 119q0 -61 38 -99t99 -38h15q188 0 315 127t127 315v334q0 70 48 118t118 48h10q61 0 99 38t38 99q0 139 -137 139h-10q-188 0 -315.5 -127t-127.5 -315v-334q0 -70 -48 -118t-117 -48h-15 q-61 0 -99 -39t-38 -100z" />
<glyph unicode="&#xa8;" horiz-adv-x="937" d="M-23 1819q0 53 19 100q-18 51 -19 104q0 125 89.5 213t214.5 88q111 0 194 -71q86 72 199 71q125 0 213 -88t88 -213q0 -55 -17 -104q17 -47 17 -100q0 -127 -87 -215t-214 -88q-113 0 -197 71q-84 -72 -196 -71q-127 0 -215.5 88t-88.5 215zM111 2023q0 -72 49 -121 t121 -49t121 49t49 121q0 70 -50.5 119t-119.5 49q-70 0 -120 -49t-50 -119zM504 2023q0 -72 49 -121t121 -49t120 49t48 121q0 70 -49.5 119t-118.5 49q-72 0 -121 -48t-49 -120z" />
<glyph unicode="&#xa9;" horiz-adv-x="1665" d="M-23 506q0 51 7 102q-6 51 -7 103q0 365 251 615.5t616 250.5t615.5 -251t250.5 -615q0 -53 -6 -105q6 -49 6 -100q0 -362 -252 -614t-614 -252q-365 0 -616 250.5t-251 615.5zM111 711q0 -309 212 -521.5t521 -212.5t521 212.5t212 521.5t-212 521t-521 212t-521 -212 t-212 -521zM387 711q0 197 130 326.5t327 129.5q195 0 325.5 -130.5t130.5 -325.5t-131 -326t-325 -131q-195 0 -326 131t-131 326zM500 711q0 -154 106.5 -260.5t259.5 -106.5q68 0 68 70t-68 69q-96 0 -162.5 65.5t-66.5 162.5q0 96 66.5 162.5t162.5 66.5q68 0 68 68 q0 70 -68 69q-154 0 -260 -106.5t-106 -259.5z" />
<glyph unicode="&#xaa;" horiz-adv-x="2258" d="M76 647q158 -2 215 74q-133 0 -170 190q201 109 266 224q-23 -2 -41 -2q-178 0 -237 161q371 72 458 289q66 227 234 408q131 139 254 139q80 0 155 -57q57 8 111 8q369 0 616 -359q106 -154 174 -358q14 -63 15 -143q0 -100 -29 -195q61 -41 107 -41q88 0 102 141 q68 -90 68 -182q0 -115 -93 -203q10 -29 11 -53q0 -94 -135 -113q2 -16 2 -32q0 -150 -181 -185q-25 -162 -188 -161q-92 0 -201 47l2 -2q-10 4 -20 12q-150 -113 -154 -115q-104 -72 -168 -71q-164 0 -409 239l2 -2q-139 -63 -258 -63q-223 0 -330 194q-35 66 -27 86 q-100 53 -151 125zM662 883q49 -244 137 -355q141 -176 205 -235q131 -121 245 -121q115 0 242 121q68 63 207 237q80 98 96 258q4 40 4 304q-98 379 -512 647q-225 8 -321 -176q-43 -80 -52 -187q-4 -53 -18 -151q29 4 61 4q152 0 207 -76q-12 -8 -35 -8q-41 0 -119 26 q-79 27 -120 25q-63 -229 -176 -274q-12 -16 -51 -39zM823 965q27 -8 45 18q-29 6 -28 35q0 8 2 16q20 -27 49 -26q14 0 27 8q45 25 116 22q10 0 21 -4q106 -14 116 -84l-34 -10q6 10 6 21q0 39 -56 49q10 -16 11 -35q0 -63 -64 -64q-63 0 -63 64q0 14 6 26q-25 -6 -57 -29 q-33 -24 -54 -24q-23 0 -43 17zM1073 502q61 119 178 119q122 0 183 -119h-361zM1077 481h19q61 -47 159 -47t148 47h27q-16 -63 -62 -106q-51 -47 -113 -47q-63 0 -111 45t-67 108zM1352 1147q55 74 204 74q49 0 105 -13q74 -18 84 -49q-18 -10 -43 2q-49 27 -86 27 q-39 0 -114 -26t-113 -25q-25 0 -37 10zM1356 952q35 82 119 86v-2q6 2 12 2q72 2 117 -22q12 -8 26 -8q27 0 47 26q6 -37 -35 -45q20 -16 41 -16q9 0 15 2q-23 -25 -49 -25q-18 0 -50 23q-31 23 -55 28q6 -12 6 -26q0 -63 -63 -64q-63 0 -64 64q0 20 11 37q-49 -20 -50 -51 q0 -8 7 -19z" />
<glyph unicode="&#xab;" horiz-adv-x="1116" d="M-18 315q0 49 24 103q-25 53 -24 102q0 100 104 219q88 86 172 170t195 84q135 0 219 -112q66 61 96 80q55 33 125 32q111 0 192.5 -82t81.5 -192q0 -53 -20 -103q20 -49 20 -102q0 -51 -18 -96q18 -45 18 -96q0 -53 -20 -103q20 -49 20 -102q0 -111 -81.5 -193 t-192.5 -82q-109 0 -223 111q-86 -111 -217 -111q-100 0 -213 97q-59 51 -166 176q-92 106 -92 200zM115 520q0 -45 59 -114q12 -14 180 -183q43 -43 99 -43q55 0 98 43.5t43 98.5q0 53 -43 96l-102 102l102 103q43 43 43 96q0 55 -43 98t-98 43t-99 -43l-180 -182 q-59 -59 -59 -115zM555 520q0 -47 59 -114l183 -183q43 -43 96 -43q55 0 98 43.5t43 98.5q0 53 -43 96l-102 102l102 103q43 43 43 96q0 55 -43 98t-98 43q-53 0 -96 -43l-183 -182q-59 -59 -59 -115z" />
<glyph unicode="&#xac;" horiz-adv-x="2766" d="M12 561q190 0 258 72q-160 -2 -202 180q242 104 319 213q-256 -18 -334 154q442 68 549 274q86 240 279 440q170 176 327 177q82 0 162 -48q508 -8 844 -395q139 -160 233 -383q18 -61 19 -137q0 -96 -35 -184q72 -41 127 -41q104 0 123 135q80 -84 80 -172 q0 -109 -111 -195q12 -27 12 -49q0 -90 -161 -108q2 -16 2 -33q0 -141 -215 -174q-29 -154 -226 -154q-111 0 -237 43v-2q-10 6 -23 12l-184 -110q-111 -66 -203 -66q-133 0 -338 125q-168 102 -289 225q-197 -139 -348 -139q-94 0 -157 58q-94 49 -95 124q0 23 7 39 q-119 51 -183 119zM682 786q41 -154 172 -311q117 -139 268.5 -239.5t292.5 -100.5q139 0 291 103q102 70 246 213q98 98 127 245q14 74 14 289q-35 143 -108 264q-178 293 -525 430q-391 -57 -444 -424q-47 -336 -273 -448q-14 -6 -61 -21zM993 881q0 6 11 2q12 -2 24 -2 q29 0 59 16q-76 27 -75 51q0 12 10 31q12 -31 39 -31q12 0 29 8q57 31 147 27q68 -2 114 -49t46 -115q0 -70 -46 -116t-116 -46q-68 0 -115 47.5t-47 114.5q0 10 2 25q-20 -2 -51 8t-31 29zM1053 1081q6 33 88 60q51 16 108 16q82 0 121 -41q-12 -12 -49 -12q-25 0 -71 9 t-70 9q-49 0 -93 -32q-18 -14 -34 -9zM1110 887q0 -16 14 -17q17 1 17 17t-17 16q-14 0 -14 -16zM1124 815q0 -53 54 -53q53 0 53 53t-53 53t-54 -53zM1178 915q0 -29 28 -28q29 -1 29 28t-29 29t-28 -29zM1225 424q66 113 190 113q132 0 195 -113h-385zM1229 403h22 q63 -45 168 -45q104 0 158 45h29q-18 -61 -70.5 -104t-116.5 -43q-66 0 -118 42t-72 105zM1442 819q0 68 47 115t115 49q90 4 147 -27q16 -8 29 -8q27 0 39 31q12 -18 12 -31q0 -43 -76 -51q31 -16 60 -16q10 0 22 2q10 4 10 -2q0 -18 -30.5 -28.5t-51.5 -8.5v-25 q0 -70 -46 -116t-115 -46q-68 0 -115 47.5t-47 114.5zM1483 887q0 -16 16 -17q17 1 17 17t-17 16q-16 0 -16 -16zM1497 815q0 -53 53 -53q54 0 54 53t-54 53q-53 0 -53 -53zM1503 1104q39 45 131 45q47 0 105 -14q76 -21 82 -54q-6 -2 -11 -2q-12 0 -24 8q-41 29 -84 29 q-27 0 -79 -11t-79 -11q-31 0 -41 10zM1550 915q0 -29 31 -28q29 -1 29 28t-29 29q-31 0 -31 -29z" />
<glyph unicode="&#xad;" horiz-adv-x="534" d="M0 430q0 53 18 102q-18 49 -18 103q0 125 89 214t214 89t214 -89t89 -214q0 -53 -18 -103q18 -49 18 -102q0 -125 -89 -214t-214 -89t-214 89t-89 214zM133 635q0 -70 50 -120t120 -50t120 50t50 120t-50 120t-120 50t-120 -50t-50 -120z" />
<glyph unicode="&#xae;" horiz-adv-x="1654" d="M-23 506q0 51 7 102q-6 51 -7 103q0 365 251 615.5t616 250.5t615.5 -251t250.5 -615q0 -53 -6 -105q6 -49 6 -100q0 -362 -252 -614t-614 -252q-365 0 -616 250.5t-251 615.5zM111 711q0 -309 212 -521.5t521 -212.5t521 212.5t212 521.5t-212 521t-521 212t-521 -212 t-212 -521zM387 711q0 197 130 326.5t327 129.5q195 0 325.5 -130.5t130.5 -325.5t-131 -326t-325 -131q-195 0 -326 131t-131 326zM578 416q0 -68 67 -68q70 0 70 68v401q0 51 35.5 87t87.5 36q51 0 88 -36t37 -87t-37 -87t-88 -36q-27 0 -47.5 -21.5t-20.5 -47.5l-2 -58 q-4 -90 62.5 -155.5t158.5 -65.5q70 0 70 70t-70 69q-78 0 -82 80q86 23 139.5 93.5t53.5 158.5q0 109 -77 185.5t-185 76.5q-109 0 -184.5 -76.5t-75.5 -185.5v-401z" />
<glyph unicode="&#xb0;" horiz-adv-x="538" d="M-23 1026q0 53 15 102q-14 49 -15 103q0 143 102 245q101 101 245 101q143 0 244 -101t102 -245q0 -53 -15 -103q15 -49 15 -102q0 -143 -102 -245q-101 -101 -244 -101t-245 101q-101 101 -102 245zM111 1231q0 -88 62 -151q62 -62 151 -62q88 0 150 62q63 63 63 151 t-63 150q-62 62 -150 63q-88 0 -151 -63q-62 -62 -62 -150zM264 1231q0 59 60 59q59 0 59 -59t-59 -60q-59 0 -60 60z" />
<glyph unicode="&#xb1;" horiz-adv-x="964" d="M-20 -66q0 53 18 103q-18 49 -18 102q0 113 73 191q-74 78 -73 190q0 53 18 103q-18 49 -18 102q0 111 71.5 187.5t181.5 82.5q6 117 79 185.5t194 68.5q111 0 187.5 -71.5t82.5 -182.5q111 -6 182.5 -82.5t71.5 -187.5q0 -57 -16 -107q16 -47 16 -98q0 -121 -69 -194 q72 -76 71 -187q0 -57 -16 -106q16 -48 16 -99q0 -125 -72.5 -198.5t-197.5 -73.5h-512q-117 0 -193.5 78t-76.5 194zM113 139q0 -61 37.5 -100t99.5 -39h512q137 0 137 139q0 61 -38 99t-99 38h-512q-61 0 -99 -37.5t-38 -99.5zM113 725q0 -61 37.5 -100t99.5 -39h117v-117 q0 -61 38.5 -99t100.5 -38q61 0 99 38t38 99v117h117q137 0 137 139q0 61 -38 99t-99 38h-117v117q0 61 -38 99t-99 38q-139 0 -139 -137v-117h-117q-61 0 -99 -38t-38 -99z" />
<glyph unicode="&#xb4;" horiz-adv-x="624" d="M-35 1810q0 43 17 103q-16 49 -17 102q0 70 47 187q35 80 72 161q78 186 278 187q129 0 216.5 -86t87.5 -217q0 -51 -17 -101q17 -49 17 -104q0 -59 -23 -115q-37 -96 -76 -192q-47 -106 -108 -160q-76 -68 -193 -68q-125 0 -213 88t-88 215zM98 2015q0 -111 105 -155 q33 -14 63 -15q115 0 158 105l96 233q12 31 12 64q0 115 -104 157q-31 12 -66 13q-113 0 -155 -105l-96 -231q-12 -29 -13 -66z" />
<glyph unicode="&#xb6;" horiz-adv-x="1497" d="M-23 717q0 51 9 102q-8 51 -9 103q0 276 189.5 465.5t468.5 189.5h653q115 0 190.5 -78t75.5 -192v-1393q0 -117 -77.5 -193.5t-194.5 -76.5q-86 0 -154.5 45t-99.5 125q-29 -78 -98.5 -124t-155.5 -46q-117 0 -193.5 76.5t-76.5 193.5v158q-231 43 -379 225t-148 420z M111 922q0 -223 150.5 -374t373.5 -151h2v-278q0 -61 38 -99t99 -38t100 37.5t39 99.5v1048h232v-1048q0 -61 38 -99t99 -38t100 38t39 99v1188q0 59 -36.5 98t-96.5 39h-653q-223 0 -373.5 -149.5t-150.5 -372.5zM387 922q0 102 72.5 173.5t175.5 71.5h2v-493h-2 q-102 0 -175 72.5t-73 175.5z" />
<glyph unicode="&#xb8;" horiz-adv-x="780" d="M-29 -553q0 61 39 100t101 39h90q70 0 118 48.5t48 117.5v248h276v-248q0 -188 -127 -315t-315 -127h-90q-61 0 -100.5 38t-39.5 99z" />
<glyph unicode="&#xba;" horiz-adv-x="2258" d="M76 647q158 -2 215 74q-133 0 -170 190q201 109 266 224q-23 -2 -41 -2q-178 0 -237 161q371 72 458 289q66 227 234 408q131 139 254 139q80 0 155 -57q57 8 111 8q369 0 616 -359q106 -154 174 -358q14 -63 15 -143q0 -100 -29 -195q61 -41 107 -41q88 0 102 141 q68 -90 68 -182q0 -115 -93 -203q10 -29 11 -53q0 -94 -135 -113q2 -16 2 -32q0 -150 -181 -185q-25 -162 -188 -161q-92 0 -201 47l2 -2q-10 4 -20 12q-150 -113 -154 -115q-104 -72 -168 -71q-164 0 -409 239l2 -2q-139 -63 -258 -63q-223 0 -330 194q-35 66 -27 86 q-100 53 -151 125zM662 883q49 -244 137 -355q141 -176 205 -235q131 -121 245 -121q115 0 242 121q68 63 207 237q80 98 96 258q4 40 4 304q-98 379 -512 647q-225 8 -321 -176q-43 -80 -52 -187q-4 -53 -18 -151q29 4 61 4q152 0 207 -76q-12 -8 -35 -8q-41 0 -119 26 q-79 27 -120 25q-63 -229 -176 -274q-12 -16 -51 -39zM823 965q27 -8 45 18q-29 6 -28 35q0 8 2 16q20 -27 49 -26q14 0 27 8q45 25 116 22q10 0 21 -4q106 -14 116 -84l-34 -10q6 10 6 21q0 39 -56 49q10 -16 11 -35q0 -63 -64 -64q-63 0 -63 64q0 14 6 26q-25 -6 -57 -29 q-33 -24 -54 -24q-23 0 -43 17zM1073 502q61 119 178 119q122 0 183 -119h-361zM1077 481h19q61 -47 159 -47t148 47h27q-16 -63 -62 -106q-51 -47 -113 -47q-63 0 -111 45t-67 108zM1352 1147q55 74 204 74q49 0 105 -13q74 -18 84 -49q-18 -10 -43 2q-49 27 -86 27 q-39 0 -114 -26t-113 -25q-25 0 -37 10zM1356 952q35 82 119 86v-2q6 2 12 2q72 2 117 -22q12 -8 26 -8q27 0 47 26q6 -37 -35 -45q20 -16 41 -16q9 0 15 2q-23 -25 -49 -25q-18 0 -50 23q-31 23 -55 28q6 -12 6 -26q0 -63 -63 -64q-63 0 -64 64q0 20 11 37q-49 -20 -50 -51 q0 -8 7 -19z" />
<glyph unicode="&#xbb;" horiz-adv-x="1120" d="M-27 117q0 53 21 102q-20 49 -21 103q0 51 19 96q-18 45 -19 96q0 53 21 102q-20 49 -21 103q0 113 82 193.5t195 80.5q106 0 223 -108q82 109 217 108q100 0 209 -96q82 -84 162 -168q100 -102 100 -209q0 -49 -24 -100q24 -52 24 -105q0 -96 -94 -202 q-119 -133 -166 -174q-113 -96 -211 -97q-133 0 -217 107q-119 -106 -223 -107q-113 0 -195 81t-82 194zM106 322q0 -57 43.5 -99.5t100.5 -42.5q53 0 96 43l180 183q62 69 62 114q0 53 -62 115l-180 182q-43 43 -96 43q-57 0 -100.5 -42t-43.5 -99q0 -53 44 -96l102 -103 l-102 -102q-43 -43 -44 -96zM549 322q0 -57 42 -99.5t99 -42.5q53 0 96 43l181 183q61 69 61 114q0 53 -61 115l-181 182q-43 43 -96 43q-57 0 -99 -42t-42 -99q0 -53 43 -96l100 -103l-100 -102q-43 -43 -43 -96z" />
<glyph unicode="&#xbf;" horiz-adv-x="1216" d="M-23 311q0 51 9 103q-8 51 -9 102q0 236 142.5 413t365.5 226q2 10 4 19q-16 49 -16 102q0 127 88 214t215 87q125 0 213 -88t88 -213q0 -55 -16 -105q16 -47 16 -100q0 -55 -18 -104q8 -33 8 -66q0 -55 -18 -102q2 -8 4 -15q104 -12 170.5 -86.5t66.5 -181.5 q0 -66 -10 -125q10 -39 10 -80q0 -276 -190.5 -466.5t-466.5 -190.5q-279 0 -467.5 189.5t-188.5 467.5zM111 516q0 -223 149.5 -373.5t372.5 -150.5t373.5 150.5t150.5 373.5q0 61 -39 99t-100 38q-59 0 -98 -39t-39 -98q0 -102 -73 -175t-175 -73t-174 73t-72 175 q0 100 72.5 173t173.5 73h164q61 0 99 39t38 100t-39 99t-100 38h-162q-221 0 -371.5 -150.5t-150.5 -371.5zM584 412q23 -10 49 -11q38 0 67 23h-67q-27 0 -49 -12zM606 1276q0 -72 49.5 -121t120.5 -49q72 0 120 49t48 121q0 70 -49 119t-119 49q-72 0 -121 -48t-49 -120z " />
<glyph unicode="&#xc0;" horiz-adv-x="1273" d="M0 -86v1008q0 279 188 467t467 188t468 -189t190 -466v-949q0 -33 30 -32q121 0 201 -76t80 -197q0 -53 -18 -100q18 -50 18 -105q0 -115 -78 -192q-78 -78 -192 -78q-248 0 -416 165t-168 411v301q-57 -10 -115 -11q-59 0 -112 23v-168q0 -117 -78 -194t-195 -76 q-117 0 -193 76q-77 77 -77 194zM133 119q0 -61 38 -100q38 -38 99 -37q61 0 101 37q39 38 39 100v803q0 102 71 174q72 72 174 71q102 0 175 -71q73 -72 73 -174t-73 -176q-73 -73 -175 -72q-61 0 -99 -38t-38 -99t38 -101q38 -39 99 -39q131 0 248 62v-486 q0 -188 126 -315t314 -127h11q59 0 98 39t39 98q0 61 -38 101q-38 39 -99 38h-11q-70 0 -116 49q-47 48 -47 117v949q0 223 -151 372q-151 150 -374 150t-372 -150q-150 -150 -150 -372v-803zM250 1985q0 55 16 104q-16 47 -16 100q0 131 87 217t214 86q117 0 192 -67 q59 -51 109 -160q37 -94 76 -190q23 -53 22 -117q0 -55 -16 -105q16 -47 16 -100q0 -199 -184 -278q-59 -25 -119 -25q-115 0 -192 68q-59 53 -107 161q-39 96 -76 191q-23 55 -22 115zM383 2189q0 -33 12 -63l97 -234q43 -104 155 -104q33 0 66 14q104 45 104 156 q0 37 -12 65l-96 232q-43 104 -158 104q-33 0 -64 -12q-104 -43 -104 -158zM573 795q48 1 134 24q-25 10 -52 10q-49 0 -82 -34z" />
<glyph unicode="&#xc1;" horiz-adv-x="1243" d="M0 -86v1008q0 279 188 467t467 188t468 -189t190 -466v-949q0 -33 30 -32q121 0 201 -76t80 -197q0 -53 -18 -100q18 -50 18 -105q0 -115 -78 -192q-78 -78 -192 -78q-248 0 -416 165t-168 411v301q-57 -10 -115 -11q-59 0 -112 23v-168q0 -117 -78 -194t-195 -76 q-117 0 -193 76q-77 77 -77 194zM133 119q0 -61 38 -100q38 -38 99 -37q61 0 101 37q39 38 39 100v803q0 102 71 174q72 72 174 71q102 0 175 -71q73 -72 73 -174t-73 -176q-73 -73 -175 -72q-61 0 -99 -38t-38 -99t38 -101q38 -39 99 -39q131 0 248 62v-486 q0 -188 126 -315t314 -127h11q59 0 98 39t39 98q0 61 -38 101q-38 39 -99 38h-11q-70 0 -116 49q-47 48 -47 117v949q0 223 -151 372q-151 150 -374 150t-372 -150q-150 -150 -150 -372v-803zM252 1810q0 43 16 103q-16 49 -16 102q0 70 47 187q35 80 72 161q78 186 278 187 q129 0 216 -86t87 -217q0 -51 -16 -101q16 -49 16 -104q0 -59 -22 -115q-37 -96 -76 -192q-47 -106 -109 -160q-76 -68 -192 -68q-125 0 -213 88t-88 215zM385 2015q0 -111 104 -155q33 -14 64 -15q115 0 158 105l96 233q12 31 12 64q0 115 -104 157q-31 12 -66 13 q-113 0 -155 -105l-97 -231q-12 -29 -12 -66zM573 795q48 1 134 24q-25 10 -52 10q-49 0 -82 -34z" />
<glyph unicode="&#xc2;" horiz-adv-x="1273" d="M0 -86v1008q0 279 188 467t467 188t468 -189t190 -466v-949q0 -33 30 -32q121 0 201 -76t80 -197q0 -53 -18 -100q18 -50 18 -105q0 -115 -78 -192q-78 -78 -192 -78q-248 0 -416 165t-168 411v301q-57 -10 -115 -11q-59 0 -112 23v-168q0 -117 -78 -194t-195 -76 q-117 0 -193 76q-77 77 -77 194zM133 119q0 -61 38 -100q38 -38 99 -37q61 0 101 37q39 38 39 100v803q0 102 71 174q72 72 174 71q102 0 175 -71q73 -72 73 -174t-73 -176q-73 -73 -175 -72q-61 0 -99 -38t-38 -99t38 -101q38 -39 99 -39q131 0 248 62v-486 q0 -188 126 -315t314 -127h11q59 0 98 39t39 98q0 61 -38 101q-38 39 -99 38h-11q-70 0 -116 49q-47 48 -47 117v949q0 223 -151 372q-151 150 -374 150t-372 -150q-150 -150 -150 -372v-803zM186 1708q0 49 23 98q-23 51 -23 107q0 100 97 211q39 43 176 166q106 94 200 94 q92 0 218 -107l176 -174q82 -82 82 -190q0 -55 -21 -105q21 -47 21 -100q0 -113 -82 -194t-195 -80q-106 0 -188 82h-21q-82 -82 -188 -82q-113 0 -194 80q-81 81 -81 194zM319 1913q0 -57 42 -99t100 -42q53 0 96 43l102 100l103 -100q43 -43 96 -43q57 0 100 42t43 99 q0 53 -43 96q-156 154 -184 180q-68 61 -115 62q-43 0 -112 -62q-35 -31 -185 -180q-43 -43 -43 -96zM573 795q48 1 134 24q-25 10 -52 10q-49 0 -82 -34z" />
<glyph unicode="&#xc3;" horiz-adv-x="1157" d="M0 -86v1008q0 279 188 467t467 188t468 -189t190 -466v-949q0 -33 30 -32q121 0 201 -76t80 -197q0 -53 -18 -100q18 -50 18 -105q0 -115 -78 -192q-78 -78 -192 -78q-248 0 -416 165t-168 411v301q-57 -10 -115 -11q-59 0 -112 23v-168q0 -117 -78 -194t-195 -76 q-117 0 -193 76q-77 77 -77 194zM133 119q0 -61 38 -100q38 -38 99 -37q61 0 101 37q39 38 39 100v803q0 102 71 174q72 72 174 71q102 0 175 -71q73 -72 73 -174t-73 -176q-73 -73 -175 -72q-61 0 -99 -38t-38 -99t38 -101q38 -39 99 -39q131 0 248 62v-486 q0 -188 126 -315t314 -127h11q59 0 98 39t39 98q0 61 -38 101q-38 39 -99 38h-11q-70 0 -116 49q-47 48 -47 117v949q0 223 -151 372q-151 150 -374 150t-372 -150q-150 -150 -150 -372v-803zM184 1765q0 51 21 103q-20 49 -21 102q0 129 117 228q111 94 244 94 q90 0 211 -56q57 31 123 31q113 0 194 -81q82 -81 82 -193q0 -51 -20 -101q20 -51 20 -104q0 -127 -119 -227q-111 -94 -241 -95q-76 0 -211 58q-57 -33 -125 -33q-111 0 -193 82t-82 192zM317 1970q0 -55 43 -98t99 -43q57 0 102 49q2 2 6 2l90 -37q88 -39 138 -39 q102 0 188 97q39 43 39 92q0 57 -43 99t-100 42t-101 -49q-2 -2 -8 -2l-84 39q-80 37 -141 37q-104 0 -191 -97q-37 -41 -37 -92zM573 795q48 1 134 24q-25 10 -52 10q-49 0 -82 -34z" />
<glyph unicode="&#xc4;" horiz-adv-x="1157" d="M0 -86v1008q0 279 188 467t467 188t468 -189t190 -466v-949q0 -33 30 -32q121 0 201 -76t80 -197q0 -53 -18 -100q18 -50 18 -105q0 -115 -78 -192q-78 -78 -192 -78q-248 0 -416 165t-168 411v301q-57 -10 -115 -11q-59 0 -112 23v-168q0 -117 -78 -194t-195 -76 q-117 0 -193 76q-77 77 -77 194zM133 119q0 -61 38 -100q38 -38 99 -37q61 0 101 37q39 38 39 100v803q0 102 71 174q72 72 174 71q102 0 175 -71q73 -72 73 -174t-73 -176q-73 -73 -175 -72q-61 0 -99 -38t-38 -99t38 -101q38 -39 99 -39q131 0 248 62v-486 q0 -188 126 -315t314 -127h11q59 0 98 39t39 98q0 61 -38 101q-38 39 -99 38h-11q-70 0 -116 49q-47 48 -47 117v949q0 223 -151 372q-151 150 -374 150t-372 -150q-150 -150 -150 -372v-803zM141 1942q0 53 19 100q-18 51 -19 104q0 125 89 213t214 88q111 0 195 -71 q86 72 199 71q125 0 213 -88t88 -213q0 -55 -17 -104q17 -47 17 -100q0 -127 -87 -216q-87 -88 -214 -88q-113 0 -197 72q-84 -72 -197 -72q-127 0 -215 88t-88 216zM274 2146q0 -72 50 -121q49 -49 120 -49q72 0 121 49t49 121q0 70 -50 119t-120 49t-119 -49 q-50 -49 -51 -119zM573 795q48 1 134 24q-25 10 -52 10q-49 0 -82 -34zM668 2146q0 -72 49 -121t121 -49t119 49q49 49 49 121q0 70 -50 119q-49 49 -118 49q-72 0 -121 -48t-49 -120z" />
<glyph unicode="&#xc5;" horiz-adv-x="1157" d="M0 -86v1008q0 279 188 467t467 188t468 -189t190 -466v-949q0 -33 30 -32q121 0 201 -76t80 -197q0 -53 -18 -100q18 -50 18 -105q0 -115 -78 -192q-78 -78 -192 -78q-248 0 -416 165t-168 411v301q-57 -10 -115 -11q-59 0 -112 23v-168q0 -117 -78 -194t-195 -76 q-117 0 -193 76q-77 77 -77 194zM133 119q0 -61 38 -100q38 -38 99 -37q61 0 101 37q39 38 39 100v803q0 102 71 174q72 72 174 71q102 0 175 -71q73 -72 73 -174t-73 -176q-73 -73 -175 -72q-61 0 -99 -38t-38 -99t38 -101q38 -39 99 -39q131 0 248 62v-486 q0 -188 126 -315t314 -127h11q59 0 98 39t39 98q0 61 -38 101q-38 39 -99 38h-11q-70 0 -116 49q-47 48 -47 117v949q0 223 -151 372q-151 150 -374 150t-372 -150q-150 -150 -150 -372v-803zM264 1559q0 53 15 102q-14 49 -15 102q0 143 102 245q101 101 244 101t245 -101 q101 -101 101 -245q0 -53 -14 -102q14 -49 14 -102q0 -143 -101 -245q-101 -101 -245 -102q-143 0 -244 102q-101 101 -102 245zM397 1763q0 -88 63 -150q62 -62 150 -63q88 0 151 63q62 62 62 150t-62 151q-62 62 -151 62q-88 0 -150 -62t-63 -151zM551 1763q0 59 59 60 q60 -1 60 -60t-60 -59q-59 0 -59 59zM573 795q48 1 134 24q-25 10 -52 10q-49 0 -82 -34z" />
<glyph unicode="&#xc6;" horiz-adv-x="1828" d="M-23 -86v1008q0 279 188.5 467t467.5 188q270 0 452 -178q225 178 529 178q117 0 194.5 -77t77.5 -193q0 -53 -18 -103q18 -49 18 -102q0 -113 -74 -191q74 -78 74 -190q0 -53 -18 -103q18 -49 18 -102q0 -123 -84 -201q84 -78 84 -200q0 -53 -18 -103q18 -49 18 -102 q0 -117 -77.5 -193.5t-194.5 -76.5q-172 0 -324 61v-47q-174 10 -542 6v410q-57 -10 -115 -11q-59 0 -113 23v-168q0 -117 -77.5 -193.5t-194.5 -76.5t-194 76.5t-77 193.5zM111 119q0 -61 37.5 -99t99.5 -38q61 0 100 37.5t39 99.5v803q0 102 71.5 173.5t174.5 71.5 q102 0 175 -71.5t73 -173.5t-73 -175t-175 -73q-61 0 -99 -38t-38 -99t37.5 -100.5t99.5 -39.5q131 0 248 62v-459h276v137q201 -160 457 -160q61 0 100 38.5t39 99.5t-39 100t-100 39q-152 0 -273.5 91t-164.5 237h438q61 0 100 38.5t39 100.5q0 61 -39 99t-100 38h-432 q47 139 165.5 224t266.5 85q61 0 100 39t39 101q0 61 -39 99t-100 38q-324 0 -541 -238q-158 238 -440 238q-223 0 -372.5 -149.5t-149.5 -372.5v-803zM551 795q47 1 133 24q-25 10 -51 10q-49 0 -82 -34z" />
<glyph unicode="&#xc7;" horiz-adv-x="980" d="M-23 506q0 51 7 102q-6 51 -7 103q0 365 251 615.5t616 250.5q117 0 194.5 -77t77.5 -193q0 -53 -18 -103q18 -49 18 -102q0 -117 -77.5 -195t-191.5 -78t-197 -60t-115 -161q33 -100 115.5 -160.5t196.5 -60.5t191.5 -78t77.5 -194q0 -55 -18 -103q18 -49 18 -102 q0 -117 -80 -195q-53 -53 -127 -69q14 -45 15 -92q0 -125 -88 -214.5t-213 -89.5t-214.5 89.5t-89.5 214.5q0 53 19 102q-18 49 -19 102q0 25 5 52q-162 119 -254.5 301t-92.5 395zM111 711q0 -309 212 -521.5t521 -212.5q61 0 100 38.5t39 99.5t-39 100t-100 39 q-195 0 -326 131t-131 326t131 325.5t326 130.5q61 0 100 39t39 101q0 61 -39 99t-100 38q-309 0 -521 -212t-212 -521zM453 -242q0 -70 50 -120t120 -50t119 50t49 120t-49.5 120t-118.5 50q-70 0 -120 -50t-50 -120z" />
<glyph unicode="&#xc8;" horiz-adv-x="974" d="M0 506q0 51 6 102q-6 51 -6 103q0 365 251 615q251 251 615 251q117 0 195 -77t78 -193q0 -53 -19 -103q18 -49 19 -102q0 -113 -74 -191q74 -78 74 -190q0 -53 -19 -103q18 -49 19 -102q0 -123 -84 -201q84 -78 84 -200q0 -53 -19 -103q19 -49 19 -102q0 -117 -78 -194 t-195 -76q-365 0 -615 250q-251 251 -251 616zM133 711q0 -309 212 -522q212 -212 521 -212q61 0 101 38q39 39 39 100t-39 100t-101 39q-152 0 -273 91q-122 91 -165 237h438q61 0 101 39q39 39 39 100t-39 99t-101 38h-432q47 139 166 224t266 85q61 0 101 39 q39 39 39 101q0 61 -39 99t-101 38q-309 0 -521 -212t-212 -521zM246 1980q0 55 16 105q-16 47 -16 100q0 131 87 217t214 86q117 0 192 -67q59 -51 109 -160q37 -94 76 -190q23 -53 22 -117q0 -55 -16 -105q16 -47 16 -100q0 -199 -184 -279q-59 -25 -119 -24 q-115 0 -192 67q-59 53 -107 162q-39 96 -76 191q-23 55 -22 114zM379 2185q0 -33 12 -63l96 -234q43 -104 156 -104q33 0 66 14q104 45 104 156q0 37 -12 65l-96 232q-43 104 -158 104q-33 0 -64 -12q-104 -43 -104 -158z" />
<glyph unicode="&#xc9;" horiz-adv-x="974" d="M0 506q0 51 6 102q-6 51 -6 103q0 365 251 615q251 251 615 251q117 0 195 -77t78 -193q0 -53 -19 -103q18 -49 19 -102q0 -113 -74 -191q74 -78 74 -190q0 -53 -19 -103q18 -49 19 -102q0 -123 -84 -201q84 -78 84 -200q0 -53 -19 -103q19 -49 19 -102q0 -117 -78 -194 t-195 -76q-365 0 -615 250q-251 251 -251 616zM133 711q0 -309 212 -522q212 -212 521 -212q61 0 101 38q39 39 39 100t-39 100t-101 39q-152 0 -273 91q-122 91 -165 237h438q61 0 101 39q39 39 39 100t-39 99t-101 38h-432q47 139 166 224t266 85q61 0 101 39 q39 39 39 101q0 61 -39 99t-101 38q-309 0 -521 -212t-212 -521zM170 1810q0 43 16 103q-16 49 -16 102q0 70 47 187q35 80 72 161q78 186 278 187q129 0 216 -86t87 -217q0 -51 -16 -101q16 -49 16 -104q0 -59 -22 -115q-37 -96 -76 -192q-47 -106 -108 -160 q-76 -68 -193 -68q-125 0 -213 88t-88 215zM303 2015q0 -111 105 -155q33 -14 63 -15q115 0 158 105l96 233q12 31 12 64q0 115 -104 157q-31 12 -66 13q-113 0 -155 -105l-97 -231q-12 -29 -12 -66z" />
<glyph unicode="&#xca;" horiz-adv-x="1093" d="M0 506q0 51 6 102q-6 51 -6 103q0 365 251 615q251 251 615 251q117 0 195 -77t78 -193q0 -53 -19 -103q18 -49 19 -102q0 -113 -74 -191q74 -78 74 -190q0 -53 -19 -103q18 -49 19 -102q0 -123 -84 -201q84 -78 84 -200q0 -53 -19 -103q19 -49 19 -102q0 -117 -78 -194 t-195 -76q-365 0 -615 250q-251 251 -251 616zM133 711q0 -309 212 -522q212 -212 521 -212q61 0 101 38q39 39 39 100t-39 100t-101 39q-152 0 -273 91q-122 91 -165 237h438q61 0 101 39q39 39 39 100t-39 99t-101 38h-432q47 139 166 224t266 85q61 0 101 39 q39 39 39 101q0 61 -39 99t-101 38q-309 0 -521 -212t-212 -521zM166 1749q0 49 22 98q-23 51 -22 107q0 100 96 211q39 43 176 166q106 94 201 94q92 0 217 -107l176 -174q82 -82 82 -190q0 -55 -20 -105q20 -47 20 -100q0 -113 -82 -194t-194 -80q-106 0 -189 81h-20 q-82 -82 -189 -81q-113 0 -193 80q-81 81 -81 194zM299 1954q0 -57 42 -100q42 -42 99 -42q53 0 97 43l102 101l102 -101q43 -43 97 -43q57 0 100 42q43 43 43 100q0 53 -43 96q-156 154 -184 180q-68 61 -115 62q-43 0 -113 -62q-35 -31 -184 -180q-43 -43 -43 -96z" />
<glyph unicode="&#xcb;" horiz-adv-x="974" d="M0 506q0 51 6 102q-6 51 -6 103q0 365 251 615q251 251 615 251q117 0 195 -77t78 -193q0 -53 -19 -103q18 -49 19 -102q0 -113 -74 -191q74 -78 74 -190q0 -53 -19 -103q18 -49 19 -102q0 -123 -84 -201q84 -78 84 -200q0 -53 -19 -103q19 -49 19 -102q0 -117 -78 -194 t-195 -76q-365 0 -615 250q-251 251 -251 616zM133 711q0 -309 212 -522q212 -212 521 -212q61 0 101 38q39 39 39 100t-39 100t-101 39q-152 0 -273 91q-122 91 -165 237h438q61 0 101 39q39 39 39 100t-39 99t-101 38h-432q47 139 166 224t266 85q61 0 101 39 q39 39 39 101q0 61 -39 99t-101 38q-309 0 -521 -212t-212 -521zM141 1942q0 53 19 100q-18 51 -19 104q0 125 89 213t214 88q111 0 195 -71q86 72 199 71q125 0 213 -88t88 -213q0 -55 -17 -104q17 -47 17 -100q0 -127 -87 -216q-87 -88 -214 -88q-113 0 -197 72 q-84 -72 -197 -72q-127 0 -215 88t-88 216zM274 2146q0 -72 50 -121q49 -49 120 -49q72 0 121 49t49 121q0 70 -50 119t-120 49t-119 -49q-50 -49 -51 -119zM668 2146q0 -72 49 -121t121 -49t119 49q49 49 49 121q0 70 -50 119q-49 49 -118 49q-72 0 -121 -48t-49 -120z" />
<glyph unicode="&#xcc;" horiz-adv-x="387" d="M-102 1980q0 55 16 105q-16 47 -16 100q0 131 87 217t214 86q117 0 192 -67q59 -51 109 -160q37 -94 75 -190q23 -53 23 -117q0 -55 -16 -105q16 -47 16 -100q0 -199 -184 -279q-59 -25 -119 -24q-115 0 -193 67q-59 53 -106 162q-39 96 -76 191q-23 55 -22 114zM0 -86 v1393q0 117 77 193q77 77 193 77q117 0 195 -77t78 -193v-1393q0 -117 -79 -194t-194 -76q-117 0 -193 76q-77 77 -77 194zM31 2185q0 -33 12 -63l96 -234q43 -104 156 -104q33 0 65 14q105 45 105 156q0 37 -12 65l-97 232q-43 104 -157 104q-33 0 -64 -12 q-104 -43 -104 -158zM133 119q0 -61 38 -100q38 -38 99 -37q61 0 101 37q39 39 39 100v1188q0 61 -39 99t-101 38q-61 0 -99 -38t-38 -99v-1188z" />
<glyph unicode="&#xcd;" horiz-adv-x="387" d="M-35 1810q0 43 17 103q-16 49 -17 102q0 70 47 187q35 80 72 161q78 186 278 187q129 0 217 -86q87 -86 87 -217q0 -51 -17 -101q17 -49 17 -104q0 -59 -23 -115q-37 -96 -76 -192q-47 -106 -108 -160q-76 -68 -193 -68q-125 0 -213 88t-88 215zM0 -86v1393q0 117 77 193 q77 77 193 77q117 0 195 -77t78 -193v-1393q0 -117 -79 -194t-194 -76q-117 0 -193 76q-77 77 -77 194zM98 2015q0 -111 105 -155q33 -14 63 -15q115 0 158 105l96 233q12 31 12 64q0 115 -104 157q-31 12 -66 13q-113 0 -155 -105l-96 -231q-12 -29 -13 -66zM133 119 q0 -61 38 -100q38 -38 99 -37q61 0 101 37q39 39 39 100v1188q0 61 -39 99t-101 38q-61 0 -99 -38t-38 -99v-1188z" />
<glyph unicode="&#xce;" horiz-adv-x="387" d="M-223 1729q0 49 22 98q-23 51 -22 106q0 100 96 211q39 43 176 166q106 94 201 94q92 0 217 -106l176 -174q82 -82 82 -191q0 -55 -20 -104q20 -47 20 -100q0 -113 -82 -194t-194 -81q-106 0 -189 82h-20q-82 -82 -189 -82q-113 0 -193 81q-81 81 -81 194zM-90 1933 q0 -57 42 -99t99 -42q53 0 96 43l103 100l102 -100q43 -43 97 -43q57 0 100 42t43 99q0 53 -43 97q-156 154 -184 180q-68 61 -115 61q-43 0 -113 -61q-35 -31 -184 -180q-43 -43 -43 -97zM0 -86v1393q0 117 77 193q77 77 193 77q117 0 195 -77t78 -193v-1393 q0 -117 -79 -194t-194 -76q-117 0 -193 76q-77 77 -77 194zM133 119q0 -61 38 -100q38 -38 99 -37q61 0 101 37q39 39 39 100v1188q0 61 -39 99t-101 38q-61 0 -99 -38t-38 -99v-1188z" />
<glyph unicode="&#xcf;" horiz-adv-x="387" d="M-268 1942q0 53 18 100q-18 51 -18 104q0 125 89 213t214 88q111 0 194 -71q86 72 199 71q125 0 213 -88t88 -213q0 -55 -16 -104q16 -47 16 -100q0 -127 -87 -216q-87 -88 -214 -88q-113 0 -197 72q-84 -72 -196 -72q-127 0 -215 88t-88 216zM-135 2146q0 -72 49 -121 t121 -49t121 49t49 121q0 70 -50 119t-120 49t-120 -49t-50 -119zM0 -86v1393q0 117 77 193q77 77 193 77q117 0 195 -77t78 -193v-1393q0 -117 -79 -194t-194 -76q-117 0 -193 76q-77 77 -77 194zM133 119q0 -61 38 -100q38 -38 99 -37q61 0 101 37q39 39 39 100v1188 q0 61 -39 99t-101 38q-61 0 -99 -38t-38 -99v-1188zM258 2146q0 -72 49 -121t121 -49t120 49t48 121q0 70 -49 119t-119 49q-72 0 -121 -48t-49 -120z" />
<glyph unicode="&#xd0;" horiz-adv-x="2258" d="M76 647q158 -2 215 74q-133 0 -170 190q201 109 266 224q-23 -2 -41 -2q-178 0 -237 161q371 72 458 289q66 227 234 408q131 139 254 139q80 0 155 -57q57 8 111 8q369 0 616 -359q106 -154 174 -358q14 -63 15 -143q0 -100 -29 -195q61 -41 107 -41q88 0 102 141 q68 -90 68 -182q0 -115 -93 -203q10 -29 11 -53q0 -94 -135 -113q2 -16 2 -32q0 -150 -181 -185q-25 -162 -188 -161q-92 0 -201 47l2 -2q-10 4 -20 12q-150 -113 -154 -115q-104 -72 -168 -71q-164 0 -409 239l2 -2q-139 -63 -258 -63q-223 0 -330 194q-35 66 -27 86 q-100 53 -151 125zM662 883q49 -244 137 -355q141 -176 205 -235q131 -121 245 -121q115 0 242 121q68 63 207 237q80 98 96 258q4 40 4 304q-98 379 -512 647q-225 8 -321 -176q-43 -80 -52 -187q-4 -53 -18 -151q29 4 61 4q152 0 207 -76q-12 -8 -35 -8q-41 0 -119 26 q-79 27 -120 25q-63 -229 -176 -274q-12 -16 -51 -39zM823 965q27 -8 45 18q-29 6 -28 35q0 8 2 16q20 -27 49 -26q14 0 27 8q45 25 116 22q10 0 21 -4q106 -14 116 -84l-34 -10q6 10 6 21q0 39 -56 49q10 -16 11 -35q0 -63 -64 -64q-63 0 -63 64q0 14 6 26q-25 -6 -57 -29 q-33 -24 -54 -24q-23 0 -43 17zM1073 502q61 119 178 119q122 0 183 -119h-361zM1077 481h19q61 -47 159 -47t148 47h27q-16 -63 -62 -106q-51 -47 -113 -47q-63 0 -111 45t-67 108zM1352 1147q55 74 204 74q49 0 105 -13q74 -18 84 -49q-18 -10 -43 2q-49 27 -86 27 q-39 0 -114 -26t-113 -25q-25 0 -37 10zM1356 952q35 82 119 86v-2q6 2 12 2q72 2 117 -22q12 -8 26 -8q27 0 47 26q6 -37 -35 -45q20 -16 41 -16q9 0 15 2q-23 -25 -49 -25q-18 0 -50 23q-31 23 -55 28q6 -12 6 -26q0 -63 -63 -64q-63 0 -64 64q0 20 11 37q-49 -20 -50 -51 q0 -8 7 -19z" />
<glyph unicode="&#xd1;" d="M0 -86v1087q0 242 167 409t408 167q231 0 400 -158q174 -164 174 -393l2 -1053q0 -33 33 -32q121 0 200 -77q80 -77 80 -196q0 -55 -18 -102q18 -48 18 -103q0 -117 -79 -193q-79 -77 -193 -77q-248 0 -416 164t-168 412v118l-2 910q0 33 -31 32q-33 0 -32 -32v-883 q0 -117 -78 -194t-195 -76q-117 0 -193 76q-77 77 -77 194zM82 1520q0 51 20 102q-20 49 -20 102q0 129 117 228q111 94 243 94q90 0 211 -55q57 31 123 30q113 0 195 -81t82 -193q0 -51 -21 -100q21 -52 21 -105q0 -127 -119 -227q-111 -94 -242 -94q-76 0 -211 57 q-57 -33 -125 -33q-111 0 -192 82q-82 82 -82 193zM133 119q0 -61 38 -100q38 -38 99 -37q61 0 101 37q39 38 39 100v882q0 70 48 118t117 48q68 0 116 -49t48 -117l2 -1028q0 -190 126 -316t317 -126h8q61 0 100 38t39 99t-39 101q-39 39 -100 38h-8q-70 0 -118 49 q-48 48 -48 117l-2 1053q0 174 -132 296t-309 122q-188 0 -315 -127t-127 -316v-882zM215 1724q0 -55 43 -98t98 -43q57 0 103 49q2 2 6 2l90 -37q88 -39 137 -38q102 0 189 96q39 43 39 92q0 57 -43 99t-101 42q-57 0 -100 -49q-2 -2 -8 -2l-84 39q-80 37 -142 37 q-104 0 -190 -96q-37 -41 -37 -93z" />
<glyph unicode="&#xd2;" horiz-adv-x="1574" d="M-6 506q0 51 6 102q-6 51 -6 103q0 365 251 615q251 251 615 251q365 0 616 -251t250 -615q0 -53 -6 -105q6 -49 6 -100q0 -362 -251 -615q-252 -252 -615 -251q-365 0 -615 250q-251 251 -251 616zM127 711q0 -309 212 -522q212 -212 521 -212t521 212q212 213 212 522 t-212 521t-521 212t-521 -212t-212 -521zM403 711q0 197 132 326q131 130 325 130q195 0 326 -131q131 -130 131 -325t-131 -326t-326 -131q-193 0 -324 131q-132 131 -133 326zM451 2062q0 55 16 105q-16 47 -16 100q0 131 87 217t214 86q117 0 192 -67q59 -51 109 -160 q37 -94 75 -191q23 -53 23 -116q0 -55 -16 -105q16 -47 16 -100q0 -199 -184 -279q-59 -25 -119 -24q-115 0 -193 67q-59 53 -106 162q-39 96 -76 191q-23 55 -22 114zM553 608q31 -98 114 -159t193 -62q111 0 195 62q83 61 114 161q-23 70 -77 127q-94 92 -232 92 q-111 0 -194 -60q-84 -60 -113 -161zM584 2267q0 -33 12 -63l96 -234q43 -104 156 -104q33 0 65 14q105 45 105 156q0 37 -12 65l-97 232q-43 104 -157 104q-33 0 -64 -12q-104 -43 -104 -158z" />
<glyph unicode="&#xd3;" horiz-adv-x="1574" d="M-6 506q0 51 6 102q-6 51 -6 103q0 365 251 615q251 251 615 251q365 0 616 -251t250 -615q0 -53 -6 -105q6 -49 6 -100q0 -362 -251 -615q-252 -252 -615 -251q-365 0 -615 250q-251 251 -251 616zM127 711q0 -309 212 -522q212 -212 521 -212t521 212q212 213 212 522 t-212 521t-521 212t-521 -212t-212 -521zM403 711q0 197 132 326q131 130 325 130q195 0 326 -131q131 -130 131 -325t-131 -326t-326 -131q-193 0 -324 131q-132 131 -133 326zM553 608q31 -98 114 -159t193 -62q111 0 195 62q83 61 114 161q-23 70 -77 127q-94 92 -232 92 q-111 0 -194 -60q-84 -60 -113 -161zM580 1790q0 43 16 102q-16 49 -16 103q0 70 47 186q35 80 71 162q78 186 279 186q129 0 216 -86t87 -217q0 -51 -16 -100q16 -50 16 -105q0 -59 -23 -114q-37 -96 -75 -193q-47 -106 -109 -160q-76 -68 -192 -67q-125 0 -213 88t-88 215 zM713 1995q0 -111 104 -156q33 -14 64 -14q115 0 157 104l97 234q12 30 12 63q0 115 -105 158q-31 12 -65 12q-113 0 -156 -104l-96 -232q-12 -29 -12 -65z" />
<glyph unicode="&#xd4;" horiz-adv-x="1574" d="M-6 506q0 51 6 102q-6 51 -6 103q0 365 251 615q251 251 615 251q365 0 616 -251t250 -615q0 -53 -6 -105q6 -49 6 -100q0 -362 -251 -615q-252 -252 -615 -251q-365 0 -615 250q-251 251 -251 616zM127 711q0 -309 212 -522q212 -212 521 -212t521 212q212 213 212 522 t-212 521t-521 212t-521 -212t-212 -521zM391 1749q0 49 23 98q-23 51 -23 107q0 100 96 211q39 43 177 166q106 94 200 94q92 0 217 -107l176 -174q82 -82 82 -190q0 -55 -20 -105q20 -47 20 -100q0 -113 -82 -194t-194 -80q-106 0 -189 81h-20q-82 -82 -188 -81 q-113 0 -194 80q-81 81 -81 194zM403 711q0 197 132 326q131 130 325 130q195 0 326 -131q131 -130 131 -325t-131 -326t-326 -131q-193 0 -324 131q-132 131 -133 326zM524 1954q0 -57 42 -100q42 -42 100 -42q53 0 96 43l102 101l103 -101q43 -43 96 -43q57 0 100 42 q43 43 43 100q0 53 -43 96q-156 154 -184 180q-68 61 -115 62q-43 0 -112 -62q-35 -31 -185 -180q-43 -43 -43 -96zM553 608q31 -98 114 -159t193 -62q111 0 195 62q83 61 114 161q-23 70 -77 127q-94 92 -232 92q-111 0 -194 -60q-84 -60 -113 -161z" />
<glyph unicode="&#xd5;" horiz-adv-x="1574" d="M-6 506q0 51 6 102q-6 51 -6 103q0 365 251 615q251 251 615 251q365 0 616 -251t250 -615q0 -53 -6 -105q6 -49 6 -100q0 -362 -251 -615q-252 -252 -615 -251q-365 0 -615 250q-251 251 -251 616zM127 711q0 -309 212 -522q212 -212 521 -212t521 212q212 213 212 522 t-212 521t-521 212t-521 -212t-212 -521zM403 711q0 197 132 326q131 130 325 130q195 0 326 -131q131 -130 131 -325t-131 -326t-326 -131q-193 0 -324 131q-132 131 -133 326zM410 1765q0 51 20 103q-20 49 -20 102q0 129 116 228q111 94 244 94q90 0 211 -56 q57 31 123 31q113 0 194 -81q82 -81 82 -193q0 -51 -20 -101q20 -51 20 -104q0 -127 -118 -227q-111 -94 -242 -95q-76 0 -211 58q-57 -33 -125 -33q-111 0 -192 82q-82 82 -82 192zM543 1970q0 -55 43 -98t98 -43q57 0 102 49q2 2 7 2l90 -37q88 -39 137 -39q102 0 188 97 q39 43 39 92q0 57 -43 99t-100 42t-100 -49q-2 -2 -9 -2l-84 39q-80 37 -141 37q-104 0 -190 -97q-37 -41 -37 -92zM553 608q31 -98 114 -159t193 -62q111 0 195 62q83 61 114 161q-23 70 -77 127q-94 92 -232 92q-111 0 -194 -60q-84 -60 -113 -161z" />
<glyph unicode="&#xd6;" horiz-adv-x="1574" d="M-6 506q0 51 6 102q-6 51 -6 103q0 365 251 615q251 251 615 251q365 0 616 -251t250 -615q0 -53 -6 -105q6 -49 6 -100q0 -362 -251 -615q-252 -252 -615 -251q-365 0 -615 250q-251 251 -251 616zM127 711q0 -309 212 -522q212 -212 521 -212t521 212q212 213 212 522 t-212 521t-521 212t-521 -212t-212 -521zM346 1942q0 53 19 100q-18 51 -19 104q0 125 89 213t214 88q111 0 195 -71q86 72 198 71q125 0 213 -88t88 -213q0 -55 -16 -104q16 -47 16 -100q0 -127 -87 -216q-87 -88 -214 -88q-113 0 -196 72q-84 -72 -197 -72q-127 0 -215 88 t-88 216zM403 711q0 197 132 326q131 130 325 130q195 0 326 -131q131 -130 131 -325t-131 -326t-326 -131q-193 0 -324 131q-132 131 -133 326zM479 2146q0 -72 49 -121t121 -49t121 49t49 121q0 70 -50 119t-120 49t-120 -49t-50 -119zM553 608q31 -98 114 -159t193 -62 q111 0 195 62q83 61 114 161q-23 70 -77 127q-94 92 -232 92q-111 0 -194 -60q-84 -60 -113 -161zM872 2146q0 -72 50 -121q49 -49 120 -49q72 0 120 49t48 121q0 70 -49 119t-119 49q-72 0 -120 -48q-49 -48 -50 -120z" />
<glyph unicode="&#xd8;" horiz-adv-x="1677" d="M-6 506q0 51 6 102q-6 51 -6 103q0 365 251 615q251 251 615 251q365 0 616 -251t250 -615q0 -53 -6 -105q6 -49 6 -100q0 -362 -251 -615q-252 -252 -615 -251q-365 0 -615 250q-251 251 -251 616zM127 711q0 -309 212 -522q212 -212 521 -212t521 212q212 213 212 522 t-212 521t-521 212t-521 -212t-212 -521zM403 711q0 197 132 326q131 130 325 130q195 0 326 -131q131 -130 131 -325t-131 -326t-326 -131q-193 0 -324 131q-132 131 -133 326zM553 608q31 -98 114 -159t193 -62q111 0 195 62q83 61 114 161q-23 70 -77 127q-94 92 -232 92 q-111 0 -194 -60q-84 -60 -113 -161z" />
<glyph unicode="&#xd9;" d="M0 219v1088q0 117 77 193q77 77 193 77q117 0 195 -77t78 -193v-883q0 -33 32 -33q31 0 31 33v885q0 115 79 193q79 79 194 79q117 0 193 -78q77 -78 77 -194v-1090q0 -242 -166 -408q-166 -167 -408 -167q-244 0 -409 166q-166 166 -166 409zM133 424q0 -190 126 -316 t316 -126q188 0 315 127q126 127 126 315v885q0 61 -38 100t-99 39q-59 0 -100 -40q-40 -40 -40 -99v-885q0 -70 -47 -118t-117 -48t-117 48q-48 48 -48 118v883q0 61 -39 99t-101 38q-61 0 -99 -38t-38 -99v-883zM246 1939q0 55 16 105q-16 47 -16 100q0 131 87 217t214 86 q117 0 192 -67q59 -51 109 -160q37 -94 76 -190q23 -53 22 -117q0 -55 -16 -105q16 -47 16 -100q0 -199 -184 -278q-59 -25 -119 -25q-115 0 -192 68q-59 53 -107 161q-39 96 -76 191q-23 55 -22 114zM379 2144q0 -33 12 -63l96 -234q43 -104 156 -104q33 0 66 14 q104 45 104 156q0 37 -12 65l-96 232q-43 104 -158 104q-33 0 -64 -12q-104 -43 -104 -158z" />
<glyph unicode="&#xda;" d="M0 219v1088q0 117 77 193q77 77 193 77q117 0 195 -77t78 -193v-883q0 -33 32 -33q31 0 31 33v885q0 115 79 193q79 79 194 79q117 0 193 -78q77 -78 77 -194v-1090q0 -242 -166 -408q-166 -167 -408 -167q-244 0 -409 166q-166 166 -166 409zM133 424q0 -190 126 -316 t316 -126q188 0 315 127q126 127 126 315v885q0 61 -38 100t-99 39q-59 0 -100 -40q-40 -40 -40 -99v-885q0 -70 -47 -118t-117 -48t-117 48q-48 48 -48 118v883q0 61 -39 99t-101 38q-61 0 -99 -38t-38 -99v-883zM252 1810q0 43 16 103q-16 49 -16 102q0 70 47 187 q35 80 72 161q78 186 278 187q129 0 216 -86t87 -217q0 -51 -16 -101q16 -49 16 -104q0 -59 -22 -115q-37 -96 -76 -192q-47 -106 -109 -160q-76 -68 -192 -68q-125 0 -213 88t-88 215zM385 2015q0 -111 104 -155q33 -14 64 -15q115 0 158 105l96 233q12 31 12 64 q0 115 -104 157q-31 12 -66 13q-113 0 -155 -105l-97 -231q-12 -29 -12 -66z" />
<glyph unicode="&#xdb;" d="M0 219v1088q0 117 77 193q77 77 193 77q117 0 195 -77t78 -193v-883q0 -33 32 -33q31 0 31 33v885q0 115 79 193q79 79 194 79q117 0 193 -78q77 -78 77 -194v-1090q0 -242 -166 -408q-166 -167 -408 -167q-244 0 -409 166q-166 166 -166 409zM84 1729q0 49 22 98 q-23 51 -22 106q0 100 96 211q39 43 176 166q106 94 201 94q92 0 217 -106l176 -174q82 -82 82 -191q0 -55 -20 -104q20 -47 20 -100q0 -113 -82 -194t-194 -81q-106 0 -189 82h-20q-82 -82 -189 -82q-113 0 -193 81q-81 81 -81 194zM133 424q0 -190 126 -316t316 -126 q188 0 315 127q126 127 126 315v885q0 61 -38 100t-99 39q-59 0 -100 -40q-40 -40 -40 -99v-885q0 -70 -47 -118t-117 -48t-117 48q-48 48 -48 118v883q0 61 -39 99t-101 38q-61 0 -99 -38t-38 -99v-883zM217 1933q0 -57 42 -99t99 -42q53 0 97 43l102 100l102 -100 q43 -43 97 -43q57 0 100 42t43 99q0 53 -43 97q-156 154 -184 180q-68 61 -115 61q-43 0 -113 -61q-35 -31 -184 -180q-43 -43 -43 -97z" />
<glyph unicode="&#xdc;" d="M0 219v1088q0 117 77 193q77 77 193 77q117 0 195 -77t78 -193v-883q0 -33 32 -33q31 0 31 33v885q0 115 79 193q79 79 194 79q117 0 193 -78q77 -78 77 -194v-1090q0 -242 -166 -408q-166 -167 -408 -167q-244 0 -409 166q-166 166 -166 409zM80 1942q0 53 18 100 q-18 51 -18 104q0 125 89 213t214 88q111 0 195 -71q86 72 198 71q125 0 213 -88t88 -213q0 -55 -16 -104q16 -47 16 -100q0 -127 -87 -216q-87 -88 -214 -88q-113 0 -196 72q-84 -72 -197 -72q-127 0 -215 88t-88 216zM133 424q0 -190 126 -316t316 -126q188 0 315 127 q126 127 126 315v885q0 61 -38 100t-99 39q-59 0 -100 -40q-40 -40 -40 -99v-885q0 -70 -47 -118t-117 -48t-117 48q-48 48 -48 118v883q0 61 -39 99t-101 38q-61 0 -99 -38t-38 -99v-883zM213 2146q0 -72 49 -121t121 -49t121 49t49 121q0 70 -50 119t-120 49t-120 -49 t-50 -119zM606 2146q0 -72 49 -121t121 -49t120 49t48 121q0 70 -49 119t-119 49q-72 0 -121 -48t-49 -120z" />
<glyph unicode="&#xdd;" d="M111 424v20q0 61 37.5 99.5t99.5 38.5q61 0 100 -38t39 -100v-20q0 -70 48 -118t118 -48t117 48t47 118v197q-78 -33 -164 -33q-190 0 -316 126t-126 316v277q0 61 37.5 99t99.5 38q61 0 100 -38t39 -99v-277q0 -70 48 -118t118 -48t117 48.5t47 117.5v277q0 59 40 98 t99 39q61 0 99 -38t38 -99v-883q0 -188 -126 -315t-314 -127q-190 0 -316 125.5t-126 316.5zM385 1708q0 37 12 66l97 231q43 104 155 104q35 0 66 -12q104 -43 104 -158q0 -33 -12 -63l-96 -234q-43 -104 -158 -104q-31 0 -64 14q-104 45 -104 156z" />
<glyph unicode="&#xde;" horiz-adv-x="2258" d="M76 647q158 -2 215 74q-133 0 -170 190q201 109 266 224q-23 -2 -41 -2q-178 0 -237 161q371 72 458 289q66 227 234 408q131 139 254 139q80 0 155 -57q57 8 111 8q369 0 616 -359q106 -154 174 -358q14 -63 15 -143q0 -100 -29 -195q61 -41 107 -41q88 0 102 141 q68 -90 68 -182q0 -115 -93 -203q10 -29 11 -53q0 -94 -135 -113q2 -16 2 -32q0 -150 -181 -185q-25 -162 -188 -161q-92 0 -201 47l2 -2q-10 4 -20 12q-150 -113 -154 -115q-104 -72 -168 -71q-164 0 -409 239l2 -2q-139 -63 -258 -63q-223 0 -330 194q-35 66 -27 86 q-100 53 -151 125zM662 883q49 -244 137 -355q141 -176 205 -235q131 -121 245 -121q115 0 242 121q68 63 207 237q80 98 96 258q4 40 4 304q-98 379 -512 647q-225 8 -321 -176q-43 -80 -52 -187q-4 -53 -18 -151q29 4 61 4q152 0 207 -76q-12 -8 -35 -8q-41 0 -119 26 q-79 27 -120 25q-63 -229 -176 -274q-12 -16 -51 -39zM823 965q27 -8 45 18q-29 6 -28 35q0 8 2 16q20 -27 49 -26q14 0 27 8q45 25 116 22q10 0 21 -4q106 -14 116 -84l-34 -10q6 10 6 21q0 39 -56 49q10 -16 11 -35q0 -63 -64 -64q-63 0 -63 64q0 14 6 26q-25 -6 -57 -29 q-33 -24 -54 -24q-23 0 -43 17zM1073 502q61 119 178 119q122 0 183 -119h-361zM1077 481h19q61 -47 159 -47t148 47h27q-16 -63 -62 -106q-51 -47 -113 -47q-63 0 -111 45t-67 108zM1352 1147q55 74 204 74q49 0 105 -13q74 -18 84 -49q-18 -10 -43 2q-49 27 -86 27 q-39 0 -114 -26t-113 -25q-25 0 -37 10zM1356 952q35 82 119 86v-2q6 2 12 2q72 2 117 -22q12 -8 26 -8q27 0 47 26q6 -37 -35 -45q20 -16 41 -16q9 0 15 2q-23 -25 -49 -25q-18 0 -50 23q-31 23 -55 28q6 -12 6 -26q0 -63 -63 -64q-63 0 -64 64q0 20 11 37q-49 -20 -50 -51 q0 -8 7 -19z" />
<glyph unicode="&#xdf;" horiz-adv-x="1032" d="M-23 -479v1491q0 238 164 401.5t402 163.5t402.5 -164t164.5 -401q0 -53 -8 -103q8 -51 8 -102q0 -104 -35 -197q35 -92 35 -196q0 -53 -8 -103q8 -51 8 -102q0 -238 -165 -401.5t-402 -163.5h-23v-123q0 -117 -76.5 -195t-193.5 -78t-195 78t-78 195zM111 -274 q0 -61 38.5 -100.5t100.5 -39.5q61 0 99 39t38 101v1286q0 63 46 109t110 46q66 0 111.5 -45t45.5 -110q0 -66 -46 -111t-111.5 -47t-108.5 -38t-43 -99q0 -55 40 -93t97 -44q70 -8 121 -53.5t51 -112.5q0 -63 -46 -109.5t-108.5 -46.5t-101 -39t-38.5 -100q0 -59 38.5 -98 t98.5 -39q184 0 309 124t125 308q0 174 -121 297q121 125 121 301q0 184 -125 308t-309 124t-308 -124t-124 -308v-1286z" />
<glyph unicode="&#xe0;" horiz-adv-x="1157" d="M0 297q0 51 8 102q-8 51 -8 103q0 279 188 467t467 188t468 -189t190 -466v-588q0 -117 -79 -194t-194 -76q-115 0 -190 73q-78 -78 -195 -77q-279 0 -467 189t-188 468zM133 502q0 -223 150 -374t372 -151q61 0 101 39q39 39 39 101q0 61 -39 99t-101 38q-102 0 -174 73 t-71 175q0 102 71 174q72 72 174 72t175 -72t73 -174v-383q0 -61 38 -100q38 -38 99 -37q61 0 101 37q39 39 39 100v383q0 223 -151 372q-151 150 -374 150t-372 -150q-150 -150 -150 -372zM246 1653q0 55 16 104q-16 47 -16 101q0 131 87 217t214 86q117 0 192 -68 q59 -51 109 -160q37 -94 76 -190q23 -53 22 -117q0 -55 -16 -104q16 -48 16 -101q0 -199 -184 -278q-59 -25 -119 -25q-115 0 -192 68q-59 53 -107 162q-39 96 -76 190q-23 55 -22 115zM379 1858q0 -33 12 -64l96 -233q43 -104 156 -105q33 0 66 14q104 45 104 156 q0 37 -12 66l-96 231q-43 104 -158 105q-33 0 -64 -13q-104 -43 -104 -157zM606 399q20 -10 64 -14q51 -4 69 -10q-35 35 -84 35q-27 0 -49 -11z" />
<glyph unicode="&#xe1;" horiz-adv-x="1157" d="M0 297q0 51 8 102q-8 51 -8 103q0 279 188 467t467 188t468 -189t190 -466v-588q0 -117 -79 -194t-194 -76q-115 0 -190 73q-78 -78 -195 -77q-279 0 -467 189t-188 468zM133 502q0 -223 150 -374t372 -151q61 0 101 39q39 39 39 101q0 61 -39 99t-101 38q-102 0 -174 73 t-71 175q0 102 71 174q72 72 174 72t175 -72t73 -174v-383q0 -61 38 -100q38 -38 99 -37q61 0 101 37q39 39 39 100v383q0 223 -151 372q-151 150 -374 150t-372 -150q-150 -150 -150 -372zM252 1606q0 43 16 102q-16 49 -16 102q0 70 47 187q35 80 72 162q78 186 278 186 q129 0 216 -86t87 -217q0 -51 -16 -100q16 -50 16 -105q0 -59 -22 -115q-37 -96 -76 -192q-47 -106 -109 -160q-76 -68 -192 -67q-125 0 -213 88t-88 215zM385 1810q0 -111 104 -155q33 -14 64 -15q115 0 158 105l96 233q12 31 12 64q0 115 -104 158q-31 12 -66 12 q-113 0 -155 -105l-97 -231q-12 -29 -12 -66zM606 399q20 -10 64 -14q51 -4 69 -10q-35 35 -84 35q-27 0 -49 -11z" />
<glyph unicode="&#xe2;" horiz-adv-x="1157" d="M0 297q0 51 8 102q-8 51 -8 103q0 279 188 467t467 188t468 -189t190 -466v-588q0 -117 -79 -194t-194 -76q-115 0 -190 73q-78 -78 -195 -77q-279 0 -467 189t-188 468zM133 502q0 -223 150 -374t372 -151q61 0 101 39q39 39 39 101q0 61 -39 99t-101 38q-102 0 -174 73 t-71 175q0 102 71 174q72 72 174 72t175 -72t73 -174v-383q0 -61 38 -100q38 -38 99 -37q61 0 101 37q39 39 39 100v383q0 223 -151 372q-151 150 -374 150t-372 -150q-150 -150 -150 -372zM186 1298q0 49 23 99q-23 51 -23 106q0 100 97 211q39 43 176 166q106 94 200 94 q92 0 218 -106l176 -174q82 -82 82 -191q0 -55 -21 -104q21 -48 21 -101q0 -113 -82 -193q-82 -81 -195 -81q-106 0 -188 82h-21q-82 -82 -188 -82q-113 0 -194 81t-81 193zM319 1503q0 -57 42 -99t100 -42q53 0 96 43l102 100l103 -100q43 -43 96 -43q57 0 100 42t43 99 q0 53 -43 96q-156 154 -184 181q-68 61 -115 61q-43 0 -112 -61q-35 -31 -185 -181q-43 -43 -43 -96zM606 399q20 -10 64 -14q51 -4 69 -10q-35 35 -84 35q-27 0 -49 -11z" />
<glyph unicode="&#xe3;" horiz-adv-x="1157" d="M0 297q0 51 8 102q-8 51 -8 103q0 279 188 467t467 188t468 -189t190 -466v-588q0 -117 -79 -194t-194 -76q-115 0 -190 73q-78 -78 -195 -77q-279 0 -467 189t-188 468zM133 502q0 -223 150 -374t372 -151q61 0 101 39q39 39 39 101q0 61 -39 99t-101 38q-102 0 -174 73 t-71 175q0 102 71 174q72 72 174 72t175 -72t73 -174v-383q0 -61 38 -100q38 -38 99 -37q61 0 101 37q39 39 39 100v383q0 223 -151 372q-151 150 -374 150t-372 -150q-150 -150 -150 -372zM184 1335q0 51 21 103q-20 49 -21 102q0 129 117 227q111 94 244 95q90 0 211 -56 q57 31 123 31q113 0 194 -81q82 -81 82 -193q0 -51 -20 -101q20 -51 20 -104q0 -127 -119 -228q-111 -94 -241 -94q-76 0 -211 58q-57 -33 -125 -33q-111 0 -193 82t-82 192zM317 1540q0 -55 43 -98t99 -43q57 0 102 49q2 2 6 2l90 -37q88 -39 138 -39q102 0 188 96 q39 44 39 93q0 57 -43 99t-100 42t-101 -49q-2 -2 -8 -2l-84 39q-80 37 -141 37q-104 0 -191 -97q-37 -41 -37 -92zM606 399q20 -10 64 -14q51 -4 69 -10q-35 35 -84 35q-27 0 -49 -11z" />
<glyph unicode="&#xe4;" horiz-adv-x="1157" d="M0 297q0 51 8 102q-8 51 -8 103q0 279 188 467t467 188t468 -189t190 -466v-588q0 -117 -79 -194t-194 -76q-115 0 -190 73q-78 -78 -195 -77q-279 0 -467 189t-188 468zM133 502q0 -223 150 -374t372 -151q61 0 101 39q39 39 39 101q0 61 -39 99t-101 38q-102 0 -174 73 t-71 175q0 102 71 174q72 72 174 72t175 -72t73 -174v-383q0 -61 38 -100q38 -38 99 -37q61 0 101 37q39 39 39 100v383q0 223 -151 372q-151 150 -374 150t-372 -150q-150 -150 -150 -372zM141 1532q0 53 19 100q-18 51 -19 105q0 125 89 213t214 88q111 0 195 -72 q86 72 199 72q125 0 213 -88t88 -213q0 -55 -17 -105q17 -47 17 -100q0 -127 -87 -215t-214 -88q-113 0 -197 71q-84 -72 -197 -71q-127 0 -215 88t-88 215zM274 1737q0 -72 50 -121q49 -49 120 -49q72 0 121 49t49 121q0 70 -50 118q-50 49 -120 50q-70 0 -119 -50 q-50 -49 -51 -118zM606 399q20 -10 64 -14q51 -4 69 -10q-35 35 -84 35q-27 0 -49 -11zM668 1737q0 -72 49 -121t121 -49t119 49q49 49 49 121q0 70 -50 118q-49 49 -118 50q-72 0 -121 -48t-49 -120z" />
<glyph unicode="&#xe5;" horiz-adv-x="1157" d="M0 297q0 51 8 102q-8 51 -8 103q0 279 188 467t467 188t468 -189t190 -466v-588q0 -117 -79 -194t-194 -76q-115 0 -190 73q-78 -78 -195 -77q-279 0 -467 189t-188 468zM133 502q0 -223 150 -374t372 -151q61 0 101 39q39 39 39 101q0 61 -39 99t-101 38q-102 0 -174 73 t-71 175q0 102 71 174q72 72 174 72t175 -72t73 -174v-383q0 -61 38 -100q38 -38 99 -37q61 0 101 37q39 39 39 100v383q0 223 -151 372q-151 150 -374 150t-372 -150q-150 -150 -150 -372zM264 1477q0 53 15 102q-14 49 -15 102q0 143 102 245q101 101 244 102 q143 0 245 -102q101 -101 101 -245q0 -53 -14 -102q14 -49 14 -102q0 -143 -101 -245q-101 -101 -245 -102q-143 0 -244 102q-101 101 -102 245zM397 1681q0 -88 63 -150q62 -62 150 -63q88 0 151 63q62 62 62 150t-62 151q-62 62 -151 62q-88 0 -150 -62t-63 -151z M551 1681q0 59 59 60q60 -1 60 -60t-60 -59q-59 0 -59 59zM606 399q20 -10 64 -14q51 -4 69 -10q-35 35 -84 35q-27 0 -49 -11z" />
<glyph unicode="&#xe6;" horiz-adv-x="1894" d="M-23 297q0 51 9 102q-8 51 -9 103q0 279 188.5 467t467.5 188q217 0 385 -123q168 123 385 123q182 0 354 -100q199 -115 199 -287q0 -55 -21 -102q21 -50 21 -103q0 -129 -105 -213q-16 -14 -55 -59q61 -74 62 -176q0 -53 -19 -103q18 -47 19 -102q0 -115 -79 -193.5 t-194 -78.5h-182q-307 0 -502 229q-14 -100 -89 -164.5t-179 -64.5q-279 0 -467.5 189t-188.5 468zM111 502q0 -223 149.5 -374t372.5 -151q61 0 100 39t39 101q0 61 -39 99t-100 38q-102 0 -174 72.5t-72 175.5q0 102 71.5 174t174.5 72q102 0 175 -72t73 -174 q0 -221 150.5 -373t371.5 -152h182q59 0 99 40t40 100q0 61 -38.5 99t-100.5 38h-182q-102 0 -174 72.5t-72 175.5q0 102 71.5 174t174.5 72q27 0 53 -5l-147 -145q-45 -45 -45 -96q0 -57 43 -100.5t100 -43.5q49 0 94 43l262 256q60 45 60 113q0 51 -41 94 q-156 160 -379 160q-229 0 -385 -168q-156 168 -385 168q-223 0 -372.5 -149.5t-149.5 -372.5zM584 399q20 -10 63 -14q52 -4 68 -10q-33 35 -82 35q-27 0 -49 -11z" />
<glyph unicode="&#xe7;" horiz-adv-x="772" d="M-23 299q0 51 9 102q-8 51 -9 103q0 279 188.5 468t467.5 189q117 0 194.5 -77.5t77.5 -194.5q0 -53 -18 -103q18 -49 18 -102q0 -117 -77.5 -193.5t-194.5 -76.5q-27 0 -49 -13q23 -10 49 -10q117 0 194.5 -77.5t77.5 -194.5q0 -55 -18 -103q18 -49 18 -102 q0 -121 -80 -195l-8 -8q-4 -29 -14 -55q18 -49 18 -102q0 -125 -88 -214.5t-213 -89.5t-214 89.5t-89 214.5q0 53 19 102q-18 49 -19 102q0 14 2 29q-242 195 -242 512zM111 504q0 -221 150.5 -371.5t371.5 -150.5q61 0 100 38t39 99t-39 100t-100 39q-102 0 -174 71.5 t-72 174.5q0 102 71.5 175t174.5 73q61 0 100 37.5t39 99.5q0 61 -39 100t-100 39q-223 0 -372.5 -150.5t-149.5 -373.5zM350 -242q0 -70 50.5 -120t119.5 -50q70 0 119 50t49 120t-49 120t-119 50t-120 -50t-50 -120z" />
<glyph unicode="&#xe8;" horiz-adv-x="1052" d="M0 297q0 51 8 102q-8 51 -8 103q0 279 188 467t467 188q182 0 355 -100q199 -115 198 -287q0 -55 -20 -102q20 -50 20 -103q0 -129 -104 -213q-16 -16 -57 -59q61 -74 61 -176q0 -53 -18 -103q18 -49 18 -102q0 -117 -77 -195t-193 -77h-183q-276 0 -466 189 q-189 189 -189 468zM133 502q0 -223 150 -374t372 -151h183q61 0 99 39t38 101q0 61 -38 99t-99 38h-183q-102 0 -174 73t-71 175q0 102 71 174q72 72 174 72q27 0 54 -5l-148 -145q-45 -45 -45 -96q0 -57 42 -101q42 -43 99 -43q51 0 97 43l262 256q59 45 59 113 q0 51 -41 94q-156 160 -379 160t-372 -150q-150 -150 -150 -372zM246 1571q0 55 16 104q-16 47 -16 101q0 131 87 217t214 86q117 0 192 -68q59 -51 109 -160q37 -94 76 -190q23 -53 22 -117q0 -55 -16 -104q16 -48 16 -101q0 -199 -184 -278q-59 -25 -119 -25 q-115 0 -192 68q-59 53 -107 162q-39 96 -76 190q-23 55 -22 115zM379 1776q0 -33 12 -64l96 -233q43 -104 156 -105q33 0 66 15q104 44 104 155q0 37 -12 66l-96 231q-43 104 -158 105q-33 0 -64 -13q-104 -43 -104 -157z" />
<glyph unicode="&#xe9;" horiz-adv-x="1052" d="M0 297q0 51 8 102q-8 51 -8 103q0 279 188 467t467 188q182 0 355 -100q199 -115 198 -287q0 -55 -20 -102q20 -50 20 -103q0 -129 -104 -213q-16 -16 -57 -59q61 -74 61 -176q0 -53 -18 -103q18 -49 18 -102q0 -117 -77 -195t-193 -77h-183q-276 0 -466 189 q-189 189 -189 468zM133 502q0 -223 150 -374t372 -151h183q61 0 99 39t38 101q0 61 -38 99t-99 38h-183q-102 0 -174 73t-71 175q0 102 71 174q72 72 174 72q27 0 54 -5l-148 -145q-45 -45 -45 -96q0 -57 42 -101q42 -43 99 -43q51 0 97 43l262 256q59 45 59 113 q0 51 -41 94q-156 160 -379 160t-372 -150q-150 -150 -150 -372zM252 1380q0 43 16 103q-16 49 -16 102q0 70 47 187q35 80 72 161q78 186 278 187q129 0 216 -86t87 -217q0 -51 -16 -101q16 -49 16 -104q0 -59 -22 -115q-37 -96 -76 -192q-47 -106 -109 -160 q-76 -68 -192 -68q-125 0 -213 88t-88 215zM385 1585q0 -111 104 -155q33 -14 64 -15q115 0 158 105l96 233q12 31 12 64q0 115 -104 157q-31 12 -66 13q-113 0 -155 -105l-97 -231q-12 -29 -12 -66z" />
<glyph unicode="&#xea;" horiz-adv-x="1052" d="M0 297q0 51 8 102q-8 51 -8 103q0 279 188 467t467 188q182 0 355 -100q199 -115 198 -287q0 -55 -20 -102q20 -50 20 -103q0 -129 -104 -213q-16 -16 -57 -59q61 -74 61 -176q0 -53 -18 -103q18 -49 18 -102q0 -117 -77 -195t-193 -77h-183q-276 0 -466 189 q-189 189 -189 468zM133 502q0 -223 150 -374t372 -151h183q61 0 99 39t38 101q0 61 -38 99t-99 38h-183q-102 0 -174 73t-71 175q0 102 71 174q72 72 174 72q27 0 54 -5l-148 -145q-45 -45 -45 -96q0 -57 42 -101q42 -43 99 -43q51 0 97 43l262 256q59 45 59 113 q0 51 -41 94q-156 160 -379 160t-372 -150q-150 -150 -150 -372zM166 1319q0 49 22 98q-23 51 -22 107q0 100 96 211q39 43 176 166q106 94 201 94q92 0 217 -107l176 -174q82 -82 82 -190q0 -55 -20 -105q20 -47 20 -100q0 -113 -82 -194t-194 -81q-106 0 -189 82h-20 q-82 -82 -189 -82q-113 0 -193 81q-81 81 -81 194zM299 1524q0 -57 42 -100q42 -42 99 -42q53 0 97 43l102 101l102 -101q43 -43 97 -43q57 0 100 42q43 43 43 100q0 53 -43 96q-156 154 -184 180q-68 61 -115 62q-43 0 -113 -62q-35 -31 -184 -180q-43 -43 -43 -96z" />
<glyph unicode="&#xeb;" horiz-adv-x="1052" d="M0 297q0 51 8 102q-8 51 -8 103q0 279 188 467t467 188q182 0 355 -100q199 -115 198 -287q0 -55 -20 -102q20 -50 20 -103q0 -129 -104 -213q-16 -16 -57 -59q61 -74 61 -176q0 -53 -18 -103q18 -49 18 -102q0 -117 -77 -195t-193 -77h-183q-276 0 -466 189 q-189 189 -189 468zM121 1532q0 53 18 100q-18 51 -18 105q0 125 89 213t214 88q111 0 194 -72q86 72 199 72q125 0 213 -88t88 -213q0 -55 -16 -105q16 -47 16 -100q0 -127 -87 -215t-214 -88q-113 0 -196 71q-84 -72 -197 -71q-127 0 -215 88t-88 215zM133 502 q0 -223 150 -374t372 -151h183q61 0 99 39t38 101q0 61 -38 99t-99 38h-183q-102 0 -174 73t-71 175q0 102 71 174q72 72 174 72q27 0 54 -5l-148 -145q-45 -45 -45 -96q0 -57 42 -101q42 -43 99 -43q51 0 97 43l262 256q59 45 59 113q0 51 -41 94q-156 160 -379 160 t-372 -150q-150 -150 -150 -372zM254 1737q0 -72 49 -121t121 -49t121 49t49 121q0 70 -50 118q-50 49 -120 50q-70 0 -120 -50q-50 -49 -50 -118zM647 1737q0 -72 49 -121t121 -49t120 49t48 121q0 70 -49 118q-49 49 -119 50q-72 0 -121 -48t-49 -120z" />
<glyph unicode="&#xec;" horiz-adv-x="389" d="M-164 1591q0 55 17 105q-16 47 -17 100q0 131 87 217t214 86q117 0 193 -67q59 -51 108 -160q37 -94 76 -191q23 -53 23 -116q0 -55 -17 -105q17 -47 17 -100q0 -199 -185 -279q-59 -25 -119 -24q-115 0 -192 67q-59 53 -107 162q-39 96 -75 191q-23 55 -23 114z M-31 1796q0 -33 13 -63l96 -234q43 -104 155 -104q33 0 66 14q104 45 104 156q0 37 -12 65l-96 232q-43 104 -158 104q-33 0 -63 -12q-104 -43 -105 -158zM-23 -86v973q0 117 77 193q77 77 194 77q125 0 198 -73q74 -73 74 -197v-973q0 -117 -79 -194t-193 -76 q-117 0 -194 76q-77 77 -77 194zM111 119q0 -61 37 -100q38 -38 100 -37q61 0 100 37q39 39 39 100v768q0 137 -139 137q-61 0 -100 -38q-38 -38 -37 -99v-768z" />
<glyph unicode="&#xed;" horiz-adv-x="389" d="M-55 1380q0 43 16 103q-16 49 -16 102q0 70 47 187q35 80 71 161q78 186 279 187q129 0 216 -86t87 -217q0 -51 -16 -101q16 -49 16 -104q0 -59 -22 -115q-37 -96 -76 -192q-47 -106 -109 -160q-76 -68 -192 -68q-125 0 -213 88t-88 215zM-23 -86v973q0 117 77 193 q77 77 194 77q125 0 198 -73q74 -73 74 -197v-973q0 -117 -79 -194t-193 -76q-117 0 -194 76q-77 77 -77 194zM78 1585q0 -111 104 -155q33 -14 64 -15q115 0 157 105l97 233q12 31 12 64q0 115 -104 157q-31 12 -66 13q-113 0 -156 -105l-96 -231q-12 -29 -12 -66zM111 119 q0 -61 37 -100q38 -38 100 -37q61 0 100 37q39 39 39 100v768q0 137 -139 137q-61 0 -100 -38q-38 -38 -37 -99v-768z" />
<glyph unicode="&#xee;" horiz-adv-x="389" d="M-223 1319q0 49 22 98q-23 51 -22 107q0 100 96 211q39 43 176 166q106 94 201 94q92 0 217 -107l176 -174q82 -82 82 -190q0 -55 -20 -105q20 -47 20 -100q0 -113 -82 -194t-194 -81q-106 0 -189 82h-20q-82 -82 -189 -82q-113 0 -193 81q-81 81 -81 194zM-90 1524 q0 -57 42 -100q42 -42 99 -42q53 0 96 43l103 101l102 -101q43 -43 97 -43q57 0 100 42q43 43 43 100q0 53 -43 96q-156 154 -184 180q-68 61 -115 62q-43 0 -113 -62q-35 -31 -184 -180q-43 -43 -43 -96zM-23 -86v973q0 117 77 193q77 77 194 77q125 0 198 -73 q74 -73 74 -197v-973q0 -117 -79 -194t-193 -76q-117 0 -194 76q-77 77 -77 194zM111 119q0 -61 37 -100q38 -38 100 -37q61 0 100 37q39 39 39 100v768q0 137 -139 137q-61 0 -100 -38q-38 -38 -37 -99v-768z" />
<glyph unicode="&#xef;" horiz-adv-x="389" d="M-248 1532q0 53 19 100q-18 51 -19 105q0 125 89 213t214 88q111 0 195 -72q86 72 199 72q125 0 213 -88t88 -213q0 -55 -17 -105q17 -47 17 -100q0 -127 -87 -215t-214 -88q-113 0 -197 71q-84 -72 -197 -71q-127 0 -215 88t-88 215zM-115 1737q0 -72 49 -121t121 -49 t121 49t49 121q0 70 -50 118q-50 49 -120 50q-70 0 -120 -50q-50 -49 -50 -118zM-23 -86v973q0 117 77 193q77 77 194 77q125 0 198 -73q74 -73 74 -197v-973q0 -117 -79 -194t-193 -76q-117 0 -194 76q-77 77 -77 194zM111 119q0 -61 37 -100q38 -38 100 -37q61 0 100 37 q39 39 39 100v768q0 137 -139 137q-61 0 -100 -38q-38 -38 -37 -99v-768zM279 1737q0 -72 49 -121t121 -49t119 49q48 49 48 121q0 70 -49 118q-49 49 -118 50q-72 0 -121 -48t-49 -120z" />
<glyph unicode="&#xf0;" horiz-adv-x="2258" d="M76 647q158 -2 215 74q-133 0 -170 190q201 109 266 224q-23 -2 -41 -2q-178 0 -237 161q371 72 458 289q66 227 234 408q131 139 254 139q80 0 155 -57q57 8 111 8q369 0 616 -359q106 -154 174 -358q14 -63 15 -143q0 -100 -29 -195q61 -41 107 -41q88 0 102 141 q68 -90 68 -182q0 -115 -93 -203q10 -29 11 -53q0 -94 -135 -113q2 -16 2 -32q0 -150 -181 -185q-25 -162 -188 -161q-92 0 -201 47l2 -2q-10 4 -20 12q-150 -113 -154 -115q-104 -72 -168 -71q-164 0 -409 239l2 -2q-139 -63 -258 -63q-223 0 -330 194q-35 66 -27 86 q-100 53 -151 125zM662 883q49 -244 137 -355q141 -176 205 -235q131 -121 245 -121q115 0 242 121q68 63 207 237q80 98 96 258q4 40 4 304q-98 379 -512 647q-225 8 -321 -176q-43 -80 -52 -187q-4 -53 -18 -151q29 4 61 4q152 0 207 -76q-12 -8 -35 -8q-41 0 -119 26 q-79 27 -120 25q-63 -229 -176 -274q-12 -16 -51 -39zM823 965q27 -8 45 18q-29 6 -28 35q0 8 2 16q20 -27 49 -26q14 0 27 8q45 25 116 22q10 0 21 -4q106 -14 116 -84l-34 -10q6 10 6 21q0 39 -56 49q10 -16 11 -35q0 -63 -64 -64q-63 0 -63 64q0 14 6 26q-25 -6 -57 -29 q-33 -24 -54 -24q-23 0 -43 17zM1073 502q61 119 178 119q122 0 183 -119h-361zM1077 481h19q61 -47 159 -47t148 47h27q-16 -63 -62 -106q-51 -47 -113 -47q-63 0 -111 45t-67 108zM1352 1147q55 74 204 74q49 0 105 -13q74 -18 84 -49q-18 -10 -43 2q-49 27 -86 27 q-39 0 -114 -26t-113 -25q-25 0 -37 10zM1356 952q35 82 119 86v-2q6 2 12 2q72 2 117 -22q12 -8 26 -8q27 0 47 26q6 -37 -35 -45q20 -16 41 -16q9 0 15 2q-23 -25 -49 -25q-18 0 -50 23q-31 23 -55 28q6 -12 6 -26q0 -63 -63 -64q-63 0 -64 64q0 20 11 37q-49 -20 -50 -51 q0 -8 7 -19z" />
<glyph unicode="&#xf1;" d="M0 -86v670q0 242 167 407q167 166 408 166q242 0 409 -166t167 -407v-611q0 -33 33 -32q121 0 200 -77q80 -77 80 -196q0 -55 -18 -102q18 -48 18 -103q0 -117 -79 -193q-79 -77 -193 -77q-248 0 -416 164t-168 412v96l-2 514q0 31 -31 31q-33 0 -32 -31v-465 q0 -117 -78 -194t-195 -76q-117 0 -193 76q-77 77 -77 194zM102 1376q0 51 21 103q-20 49 -21 102q0 129 117 227q111 94 244 95q90 0 211 -56q57 31 123 31q113 0 194 -81q82 -81 82 -193q0 -51 -20 -101q20 -51 20 -104q0 -127 -119 -228q-111 -94 -241 -94q-76 0 -211 58 q-57 -33 -125 -33q-111 0 -193 82t-82 192zM133 119q0 -61 38 -100q38 -38 99 -37q61 0 101 37q39 38 39 100v465q0 70 48 116q48 47 117 48q68 0 116 -49q48 -48 48 -115l2 -611q0 -190 126 -316t317 -126h8q61 0 100 38t39 99t-39 101q-39 39 -100 38h-8q-70 0 -118 49 q-48 48 -48 117v611q0 188 -127 314t-316 126q-188 0 -315 -126t-127 -314v-465zM236 1581q0 -55 43 -98t98 -43q57 0 102 49q2 2 6 2l90 -37q88 -39 138 -39q102 0 188 96q39 44 39 93q0 57 -43 99t-100 42t-101 -49q-2 -2 -8 -2l-84 39q-80 37 -141 36q-104 0 -191 -96 q-37 -41 -36 -92z" />
<glyph unicode="&#xf2;" horiz-adv-x="1159" d="M0 297q0 51 8 102q-8 51 -8 103q0 279 188 467t467 188t468 -188t190 -467q0 -53 -8 -105q8 -49 8 -100q0 -276 -191 -467q-190 -190 -467 -190q-279 0 -467 189t-188 468zM133 502q0 -223 150 -374t372 -151q223 0 374 151t151 374t-151 372q-151 150 -374 150 t-372 -150q-150 -150 -150 -372zM246 1591q0 55 16 105q-16 47 -16 100q0 131 87 217t214 86q117 0 192 -67q59 -51 109 -160q37 -94 76 -191q23 -53 22 -116q0 -55 -16 -105q16 -47 16 -100q0 -199 -184 -279q-59 -25 -119 -24q-115 0 -192 67q-59 53 -107 162 q-39 96 -76 191q-23 55 -22 114zM379 1796q0 -33 12 -63l96 -234q43 -104 156 -104q33 0 66 14q104 45 104 156q0 37 -12 65l-96 232q-43 104 -158 104q-33 0 -64 -12q-104 -43 -104 -158zM410 502q0 102 71 174q72 72 174 72t175 -72t73 -174t-73 -175t-175 -73t-174 73 t-71 175z" />
<glyph unicode="&#xf3;" horiz-adv-x="1159" d="M0 297q0 51 8 102q-8 51 -8 103q0 279 188 467t467 188t468 -188t190 -467q0 -53 -8 -105q8 -49 8 -100q0 -276 -191 -467q-190 -190 -467 -190q-279 0 -467 189t-188 468zM133 502q0 -223 150 -374t372 -151q223 0 374 151t151 374t-151 372q-151 150 -374 150 t-372 -150q-150 -150 -150 -372zM293 1380q0 43 16 103q-16 49 -16 102q0 70 47 187q35 80 72 161q78 186 278 187q129 0 216 -86t87 -217q0 -51 -16 -101q16 -49 16 -104q0 -59 -22 -115q-37 -96 -76 -192q-47 -106 -109 -160q-76 -68 -192 -68q-125 0 -213 88t-88 215z M410 502q0 102 71 174q72 72 174 72t175 -72t73 -174t-73 -175t-175 -73t-174 73t-71 175zM426 1585q0 -111 104 -155q33 -14 64 -15q115 0 158 105l96 233q12 31 12 64q0 115 -104 157q-31 12 -66 13q-113 0 -155 -105l-97 -231q-12 -29 -12 -66z" />
<glyph unicode="&#xf4;" horiz-adv-x="1159" d="M0 297q0 51 8 102q-8 51 -8 103q0 279 188 467t467 188t468 -188t190 -467q0 -53 -8 -105q8 -49 8 -100q0 -276 -191 -467q-190 -190 -467 -190q-279 0 -467 189t-188 468zM133 502q0 -223 150 -374t372 -151q223 0 374 151t151 374t-151 372q-151 150 -374 150 t-372 -150q-150 -150 -150 -372zM166 1319q0 49 22 98q-23 51 -22 107q0 100 96 211q39 43 176 166q106 94 201 94q92 0 217 -107l176 -174q82 -82 82 -190q0 -55 -20 -105q20 -47 20 -100q0 -113 -82 -194t-194 -81q-106 0 -189 82h-20q-82 -82 -189 -82q-113 0 -193 81 q-81 81 -81 194zM299 1524q0 -57 42 -100q42 -42 99 -42q53 0 97 43l102 101l102 -101q43 -43 97 -43q57 0 100 42q43 43 43 100q0 53 -43 96q-156 154 -184 180q-68 61 -115 62q-43 0 -113 -62q-35 -31 -184 -180q-43 -43 -43 -96zM410 502q0 102 71 174q72 72 174 72 t175 -72t73 -174t-73 -175t-175 -73t-174 73t-71 175z" />
<glyph unicode="&#xf5;" horiz-adv-x="1159" d="M0 297q0 51 8 102q-8 51 -8 103q0 279 188 467t467 188t468 -188t190 -467q0 -53 -8 -105q8 -49 8 -100q0 -276 -191 -467q-190 -190 -467 -190q-279 0 -467 189t-188 468zM133 502q0 -223 150 -374t372 -151q223 0 374 151t151 374t-151 372q-151 150 -374 150 t-372 -150q-150 -150 -150 -372zM205 1397q0 51 20 102q-20 49 -20 103q0 129 117 227q111 94 243 94q90 0 211 -55q57 31 123 30q113 0 195 -80q82 -81 82 -194q0 -51 -21 -100q21 -52 21 -105q0 -127 -119 -227q-111 -94 -242 -94q-76 0 -211 57q-57 -33 -125 -33 q-111 0 -192 82q-82 82 -82 193zM338 1602q0 -55 43 -99q43 -43 98 -43q57 0 103 49q2 2 6 2l90 -36q88 -39 137 -39q102 0 189 96q38 43 38 92q0 57 -43 99t-100 42t-100 -49q-2 -2 -8 -2l-84 39q-80 37 -142 37q-104 0 -190 -96q-37 -41 -37 -92zM410 502q0 102 71 174 q72 72 174 72t175 -72t73 -174t-73 -175t-175 -73t-174 73t-71 175z" />
<glyph unicode="&#xf6;" horiz-adv-x="1159" d="M0 297q0 51 8 102q-8 51 -8 103q0 279 188 467t467 188t468 -188t190 -467q0 -53 -8 -105q8 -49 8 -100q0 -276 -191 -467q-190 -190 -467 -190q-279 0 -467 189t-188 468zM133 502q0 -223 150 -374t372 -151q223 0 374 151t151 374t-151 372q-151 150 -374 150 t-372 -150q-150 -150 -150 -372zM141 1532q0 53 19 100q-18 51 -19 105q0 125 89 213t214 88q111 0 195 -72q86 72 199 72q125 0 213 -88t88 -213q0 -55 -17 -105q17 -47 17 -100q0 -127 -87 -215t-214 -88q-113 0 -197 71q-84 -72 -197 -71q-127 0 -215 88t-88 215z M274 1737q0 -72 50 -121q49 -49 120 -49q72 0 121 49t49 121q0 70 -50 118q-50 49 -120 50q-70 0 -119 -50q-50 -49 -51 -118zM410 502q0 102 71 174q72 72 174 72t175 -72t73 -174t-73 -175t-175 -73t-174 73t-71 175zM668 1737q0 -72 49 -121t121 -49t119 49q49 49 49 121 q0 70 -50 118q-49 49 -118 50q-72 0 -121 -48t-49 -120z" />
<glyph unicode="&#xf7;" horiz-adv-x="2258" d="M76 647q158 -2 215 74q-133 0 -170 190q201 109 266 224q-23 -2 -41 -2q-178 0 -237 161q371 72 458 289q66 227 234 408q131 139 254 139q80 0 155 -57q57 8 111 8q369 0 616 -359q106 -154 174 -358q14 -63 15 -143q0 -100 -29 -195q61 -41 107 -41q88 0 102 141 q68 -90 68 -182q0 -115 -93 -203q10 -29 11 -53q0 -94 -135 -113q2 -16 2 -32q0 -150 -181 -185q-25 -162 -188 -161q-92 0 -201 47l2 -2q-10 4 -20 12q-150 -113 -154 -115q-104 -72 -168 -71q-164 0 -409 239l2 -2q-139 -63 -258 -63q-223 0 -330 194q-35 66 -27 86 q-100 53 -151 125zM662 883q49 -244 137 -355q141 -176 205 -235q131 -121 245 -121q115 0 242 121q68 63 207 237q80 98 96 258q4 40 4 304q-98 379 -512 647q-225 8 -321 -176q-43 -80 -52 -187q-4 -53 -18 -151q29 4 61 4q152 0 207 -76q-12 -8 -35 -8q-41 0 -119 26 q-79 27 -120 25q-63 -229 -176 -274q-12 -16 -51 -39zM823 965q27 -8 45 18q-29 6 -28 35q0 8 2 16q20 -27 49 -26q14 0 27 8q45 25 116 22q10 0 21 -4q106 -14 116 -84l-34 -10q6 10 6 21q0 39 -56 49q10 -16 11 -35q0 -63 -64 -64q-63 0 -63 64q0 14 6 26q-25 -6 -57 -29 q-33 -24 -54 -24q-23 0 -43 17zM1073 502q61 119 178 119q122 0 183 -119h-361zM1077 481h19q61 -47 159 -47t148 47h27q-16 -63 -62 -106q-51 -47 -113 -47q-63 0 -111 45t-67 108zM1352 1147q55 74 204 74q49 0 105 -13q74 -18 84 -49q-18 -10 -43 2q-49 27 -86 27 q-39 0 -114 -26t-113 -25q-25 0 -37 10zM1356 952q35 82 119 86v-2q6 2 12 2q72 2 117 -22q12 -8 26 -8q27 0 47 26q6 -37 -35 -45q20 -16 41 -16q9 0 15 2q-23 -25 -49 -25q-18 0 -50 23q-31 23 -55 28q6 -12 6 -26q0 -63 -63 -64q-63 0 -64 64q0 20 11 37q-49 -20 -50 -51 q0 -8 7 -19z" />
<glyph unicode="&#xf8;" horiz-adv-x="1646" d="M-6 506q0 51 6 102q-6 51 -6 103q0 365 251 615q251 251 615 251q365 0 616 -251t250 -615q0 -53 -6 -105q6 -49 6 -100q0 -362 -251 -615q-252 -252 -615 -251q-365 0 -615 250q-251 251 -251 616zM127 711q0 -309 212 -522q212 -212 521 -212t521 212q212 213 212 522 t-212 521t-521 212t-521 -212t-212 -521zM403 711q0 197 132 326q131 130 325 130q195 0 326 -131q131 -130 131 -325t-131 -326t-326 -131q-193 0 -324 131q-132 131 -133 326zM553 608q31 -98 114 -159t193 -62q111 0 195 62q83 61 114 161q-23 70 -77 127q-94 92 -232 92 q-111 0 -194 -60q-84 -60 -113 -161z" />
<glyph unicode="&#xf9;" d="M0 219v664q0 117 77 194q77 78 193 78q117 0 195 -78t78 -194v-459q0 -33 32 -33q31 0 31 33v463q0 117 78 193q78 77 195 77t193 -77q77 -77 77 -193v-668q0 -242 -166 -408q-166 -167 -408 -167q-244 0 -409 166q-166 166 -166 409zM133 424q0 -190 126 -316t316 -126 q188 0 315 127q126 127 126 315v463q0 61 -38 99t-99 38t-101 -38q-39 -38 -39 -99v-463q0 -70 -47 -118t-117 -48t-117 48q-48 48 -48 118v459q0 61 -39 100t-101 39q-61 0 -99 -39t-38 -100v-459zM205 1530q0 55 16 104q-16 47 -16 101q0 131 87 217t214 86q117 0 192 -68 q59 -51 109 -160q37 -94 76 -190q23 -53 22 -117q0 -55 -16 -104q16 -48 16 -101q0 -199 -184 -278q-59 -25 -119 -25q-115 0 -192 68q-59 53 -107 162q-39 96 -76 190q-23 55 -22 115zM338 1735q0 -33 12 -64l96 -233q43 -104 156 -105q33 0 66 15q104 44 104 155 q0 37 -12 66l-96 231q-43 104 -158 105q-33 0 -64 -13q-104 -43 -104 -157z" />
<glyph unicode="&#xfa;" d="M0 219v664q0 117 77 194q77 78 193 78q117 0 195 -78t78 -194v-459q0 -33 32 -33q31 0 31 33v463q0 117 78 193q78 77 195 77t193 -77q77 -77 77 -193v-668q0 -242 -166 -408q-166 -167 -408 -167q-244 0 -409 166q-166 166 -166 409zM133 424q0 -190 126 -316t316 -126 q188 0 315 127q126 127 126 315v463q0 61 -38 99t-99 38t-101 -38q-39 -38 -39 -99v-463q0 -70 -47 -118t-117 -48t-117 48q-48 48 -48 118v459q0 61 -39 100t-101 39q-61 0 -99 -39t-38 -100v-459zM252 1380q0 43 16 103q-16 49 -16 102q0 70 47 187q35 80 72 161 q78 186 278 187q129 0 216 -86t87 -217q0 -51 -16 -101q16 -49 16 -104q0 -59 -22 -115q-37 -96 -76 -192q-47 -106 -109 -160q-76 -68 -192 -68q-125 0 -213 88t-88 215zM385 1585q0 -111 104 -155q33 -14 64 -15q115 0 158 105l96 233q12 31 12 64q0 115 -104 157 q-31 12 -66 13q-113 0 -155 -105l-97 -231q-12 -29 -12 -66z" />
<glyph unicode="&#xfb;" d="M0 219v664q0 117 77 194q77 78 193 78q117 0 195 -78t78 -194v-459q0 -33 32 -33q31 0 31 33v463q0 117 78 193q78 77 195 77t193 -77q77 -77 77 -193v-668q0 -242 -166 -408q-166 -167 -408 -167q-244 0 -409 166q-166 166 -166 409zM104 1319q0 49 23 98 q-23 51 -23 107q0 100 97 211q39 43 176 166q106 94 201 94q92 0 217 -107l176 -174q82 -82 82 -190q0 -55 -21 -105q21 -47 21 -100q0 -113 -82 -194t-195 -81q-106 0 -188 82h-21q-82 -82 -188 -82q-113 0 -194 81t-81 194zM133 424q0 -190 126 -316t316 -126 q188 0 315 127q126 127 126 315v463q0 61 -38 99t-99 38t-101 -38q-39 -38 -39 -99v-463q0 -70 -47 -118t-117 -48t-117 48q-48 48 -48 118v459q0 61 -39 100t-101 39q-61 0 -99 -39t-38 -100v-459zM238 1524q0 -57 42 -100q42 -42 99 -42q53 0 96 43l103 101l102 -101 q43 -43 96 -43q57 0 101 42q43 43 43 100q0 53 -43 96q-156 154 -185 180q-68 61 -114 62q-43 0 -113 -62q-35 -31 -184 -180q-43 -43 -43 -96z" />
<glyph unicode="&#xfc;" d="M0 219v664q0 117 77 194q77 78 193 78q117 0 195 -78t78 -194v-459q0 -33 32 -33q31 0 31 33v463q0 117 78 193q78 77 195 77t193 -77q77 -77 77 -193v-668q0 -242 -166 -408q-166 -167 -408 -167q-244 0 -409 166q-166 166 -166 409zM59 1532q0 53 19 100 q-18 51 -19 105q0 125 89 213t214 88q111 0 195 -72q86 72 199 72q125 0 213 -88t88 -213q0 -55 -17 -105q17 -47 17 -100q0 -127 -87 -215t-214 -88q-113 0 -197 71q-84 -72 -197 -71q-127 0 -215 88t-88 215zM133 424q0 -190 126 -316t316 -126q188 0 315 127 q126 127 126 315v463q0 61 -38 99t-99 38t-101 -38q-39 -38 -39 -99v-463q0 -70 -47 -118t-117 -48t-117 48q-48 48 -48 118v459q0 61 -39 100t-101 39q-61 0 -99 -39t-38 -100v-459zM193 1737q0 -72 49 -121t120 -49q72 0 121 49t49 121q0 70 -50 118q-50 49 -120 50 q-70 0 -119 -50q-50 -49 -50 -118zM586 1737q0 -72 49 -121t121 -49t120 49t48 121q0 70 -50 118q-49 49 -118 50q-72 0 -121 -48t-49 -120z" />
<glyph unicode="&#xfe;" horiz-adv-x="2258" d="M76 647q158 -2 215 74q-133 0 -170 190q201 109 266 224q-23 -2 -41 -2q-178 0 -237 161q371 72 458 289q66 227 234 408q131 139 254 139q80 0 155 -57q57 8 111 8q369 0 616 -359q106 -154 174 -358q14 -63 15 -143q0 -100 -29 -195q61 -41 107 -41q88 0 102 141 q68 -90 68 -182q0 -115 -93 -203q10 -29 11 -53q0 -94 -135 -113q2 -16 2 -32q0 -150 -181 -185q-25 -162 -188 -161q-92 0 -201 47l2 -2q-10 4 -20 12q-150 -113 -154 -115q-104 -72 -168 -71q-164 0 -409 239l2 -2q-139 -63 -258 -63q-223 0 -330 194q-35 66 -27 86 q-100 53 -151 125zM662 883q49 -244 137 -355q141 -176 205 -235q131 -121 245 -121q115 0 242 121q68 63 207 237q80 98 96 258q4 40 4 304q-98 379 -512 647q-225 8 -321 -176q-43 -80 -52 -187q-4 -53 -18 -151q29 4 61 4q152 0 207 -76q-12 -8 -35 -8q-41 0 -119 26 q-79 27 -120 25q-63 -229 -176 -274q-12 -16 -51 -39zM823 965q27 -8 45 18q-29 6 -28 35q0 8 2 16q20 -27 49 -26q14 0 27 8q45 25 116 22q10 0 21 -4q106 -14 116 -84l-34 -10q6 10 6 21q0 39 -56 49q10 -16 11 -35q0 -63 -64 -64q-63 0 -63 64q0 14 6 26q-25 -6 -57 -29 q-33 -24 -54 -24q-23 0 -43 17zM1073 502q61 119 178 119q122 0 183 -119h-361zM1077 481h19q61 -47 159 -47t148 47h27q-16 -63 -62 -106q-51 -47 -113 -47q-63 0 -111 45t-67 108zM1352 1147q55 74 204 74q49 0 105 -13q74 -18 84 -49q-18 -10 -43 2q-49 27 -86 27 q-39 0 -114 -26t-113 -25q-25 0 -37 10zM1356 952q35 82 119 86v-2q6 2 12 2q72 2 117 -22q12 -8 26 -8q27 0 47 26q6 -37 -35 -45q20 -16 41 -16q9 0 15 2q-23 -25 -49 -25q-18 0 -50 23q-31 23 -55 28q6 -12 6 -26q0 -63 -63 -64q-63 0 -64 64q0 20 11 37q-49 -20 -50 -51 q0 -8 7 -19z" />
<glyph unicode="&#xff;" horiz-adv-x="1132" d="M0 219v668q0 117 77 193q77 77 193 77q125 0 199 -73t74 -197v-463q0 -33 32 -33q31 0 31 33v463q0 117 78 193q78 77 195 77t193 -77q77 -77 77 -193v-1118q0 -242 -167 -409t-409 -167q-121 0 -200 76q-80 76 -80 194q0 53 18 103q-18 47 -18 102q0 23 4 43 q-137 74 -217 208t-80 300zM59 1532q0 53 19 100q-18 51 -19 105q0 125 89 213t214 88q111 0 195 -72q86 72 199 72q125 0 213 -88t88 -213q0 -55 -17 -105q17 -47 17 -100q0 -127 -87 -215t-214 -88q-113 0 -197 71q-84 -72 -197 -71q-127 0 -215 88t-88 215zM133 424 q0 -190 126 -316t316 -126q86 0 164 30v-39q0 -68 -49 -116q-49 -49 -117 -50h-8q-61 0 -100 -38q-39 -39 -39 -101q0 -61 39 -99t100 -38h8q188 0 316 127q127 127 127 315v914q0 61 -38 99t-99 38t-101 -38q-39 -38 -39 -99v-463q0 -70 -47 -118t-117 -48t-117 48 q-48 48 -48 118v463q0 137 -140 137q-61 0 -99 -38t-38 -99v-463zM193 1737q0 -72 49 -121t120 -49q72 0 121 49t49 121q0 70 -50 118q-50 49 -120 50q-70 0 -119 -50q-50 -49 -50 -118zM586 1737q0 -72 49 -121t121 -49t120 49t48 121q0 70 -50 118q-49 49 -118 50 q-72 0 -121 -48t-49 -120z" />
<glyph unicode="&#x152;" horiz-adv-x="2179" d="M-23 506q0 51 7 102q-6 51 -7 103q0 365 251 615.5t616 250.5q356 0 596 -236q250 236 594 236q117 0 194.5 -77t77.5 -193q0 -53 -18 -103q18 -49 18 -102q0 -113 -74 -191q74 -78 74 -190q0 -53 -18 -103q18 -49 18 -102q0 -123 -84 -201q84 -78 84 -200 q0 -53 -18 -103q18 -49 18 -102q0 -117 -78 -193.5t-194 -76.5q-346 0 -594 237q-252 -238 -596 -237q-365 0 -616 250.5t-251 615.5zM111 711q0 -309 212 -521.5t521 -212.5q176 0 333.5 81t262.5 225q102 -143 258.5 -224.5t335.5 -81.5q61 0 100 38.5t39 99.5t-39 100 t-100 39q-152 0 -274 91t-165 237h439q61 0 100 38.5t39 100.5q0 61 -39 99t-100 38h-432q47 139 165.5 224t266.5 85q61 0 100 39t39 101q0 61 -39 99t-100 38q-178 0 -335 -81t-259 -224q-221 305 -596 305q-309 0 -521 -212t-212 -521zM387 711q0 197 130 326.5 t327 129.5q195 0 325.5 -130.5t130.5 -325.5t-131 -326t-325 -131q-195 0 -326 131t-131 326zM535 608q31 -98 114.5 -159.5t194.5 -61.5t194.5 61.5t114.5 161.5q-23 70 -78 127q-94 92 -231 92q-113 0 -196 -60t-113 -161z" />
<glyph unicode="&#x153;" horiz-adv-x="1824" d="M-23 297q0 51 9 102q-8 51 -9 103q0 279 188.5 467t467.5 188q217 0 385 -123q168 123 385 123q182 0 354 -100q199 -115 199 -287q0 -55 -21 -102q21 -50 21 -103q0 -129 -105 -213q-16 -14 -55 -59q61 -74 62 -176q0 -53 -19 -103q18 -47 19 -102q0 -115 -79 -193.5 t-194 -78.5h-182q-217 0 -385 124q-168 -125 -385 -124q-279 0 -467.5 189t-188.5 468zM111 502q0 -223 149.5 -374t372.5 -151q229 0 385 170q156 -170 385 -170h182q59 0 99 40t40 100q0 61 -38.5 99t-100.5 38h-182q-102 0 -174 72.5t-72 175.5q0 102 71.5 174t174.5 72 q27 0 53 -5l-147 -145q-45 -45 -45 -96q0 -57 43 -100.5t100 -43.5q49 0 94 43l262 256q60 45 60 113q0 51 -41 94q-156 160 -379 160q-229 0 -385 -168q-156 168 -385 168q-223 0 -372.5 -149.5t-149.5 -372.5zM387 502q0 102 71.5 174t174.5 72q102 0 175 -72t73 -174 t-73 -175t-175 -73t-174 72.5t-72 175.5z" />
<glyph unicode="&#x178;" horiz-adv-x="1089" d="M0 219v21q0 39 10 75q-10 53 -10 109v20q0 86 45 154q-45 106 -45 227v482q0 117 77 193q77 77 193 77q117 0 195 -77t78 -193v-277q0 -33 32 -33q31 0 31 33v277q0 115 79 192q79 78 194 78q117 0 193 -77q77 -77 77 -193v-1088q0 -242 -166 -408q-166 -167 -408 -167 q-244 0 -409 166q-166 166 -166 409zM59 1942q0 53 19 100q-18 51 -19 104q0 125 89 213t214 88q111 0 195 -71q86 72 199 71q125 0 213 -88t88 -213q0 -55 -17 -104q17 -47 17 -100q0 -127 -87 -216q-87 -88 -214 -88q-113 0 -197 72q-84 -72 -197 -72q-127 0 -215 88 t-88 216zM133 424q0 -190 126 -316t316 -126q188 0 315 127q126 127 126 315v883q0 61 -38 99t-99 38q-59 0 -100 -39q-40 -39 -40 -98v-277q-6 -27 -12 -47q-14 -51 -35 -70q-47 -49 -117 -49t-117 48q-48 48 -48 118v277q0 61 -39 99t-101 38q-61 0 -99 -38t-38 -99v-277 q0 -190 126 -316t316 -126q86 0 164 33v-197q0 -70 -47 -118t-117 -48t-117 48q-48 48 -48 118v20q0 61 -39 100q-39 38 -101 38q-61 0 -99 -38t-38 -100v-20zM193 2146q0 -72 49 -121t120 -49q72 0 121 49t49 121q0 70 -50 119t-120 49t-119 -49q-50 -49 -50 -119z M586 2146q0 -72 49 -121t121 -49t120 49t48 121q0 70 -50 119q-49 49 -118 49q-72 0 -121 -48t-49 -120z" />
<glyph unicode="&#x2c6;" horiz-adv-x="796" d="M-18 1380q0 49 22 99q-23 51 -22 106q0 100 96 211q39 43 176 166q106 94 201 94q92 0 217 -106l176 -174q82 -82 82 -191q0 -55 -21 -104q21 -48 21 -101q0 -113 -82 -193.5t-195 -80.5q-106 0 -188 82h-21q-82 -82 -188 -82q-113 0 -193.5 81t-80.5 193zM115 1585 q0 -57 42 -99t99 -42q53 0 96 43l103 100l102 -100q43 -43 96 -43q57 0 100.5 42t43.5 99q0 53 -43 96q-156 154 -185 181q-68 61 -114 61q-43 0 -113 -61q-35 -31 -184 -181q-43 -43 -43 -96z" />
<glyph unicode="&#x2dc;" horiz-adv-x="804" d="M-33 1376q0 51 21 103q-20 49 -21 102q0 129 117 227q111 94 244 95q90 0 211 -56q57 31 123 31q113 0 194.5 -81t81.5 -193q0 -51 -20 -101q20 -51 20 -104q0 -127 -119 -228q-111 -94 -241 -94q-76 0 -211 58q-57 -33 -125 -33q-111 0 -193 82t-82 192zM100 1581 q0 -55 43 -98t99 -43q57 0 102 49q2 2 6 2l90 -37q88 -39 138 -39q102 0 188 96q39 44 39 93q0 57 -43 99t-100 42t-101 -49q-2 -2 -8 -2l-84 39q-80 37 -141 36q-104 0 -191 -96q-37 -41 -37 -92z" />
<glyph unicode="&#x2000;" horiz-adv-x="1285" />
<glyph unicode="&#x2001;" horiz-adv-x="2570" />
<glyph unicode="&#x2002;" horiz-adv-x="1285" />
<glyph unicode="&#x2003;" horiz-adv-x="2570" />
<glyph unicode="&#x2004;" horiz-adv-x="856" />
<glyph unicode="&#x2005;" horiz-adv-x="642" />
<glyph unicode="&#x2006;" horiz-adv-x="428" />
<glyph unicode="&#x2007;" horiz-adv-x="428" />
<glyph unicode="&#x2008;" horiz-adv-x="321" />
<glyph unicode="&#x2009;" horiz-adv-x="514" />
<glyph unicode="&#x200a;" horiz-adv-x="142" />
<glyph unicode="&#x2010;" horiz-adv-x="534" d="M0 430q0 53 18 102q-18 49 -18 103q0 125 89 214t214 89t214 -89t89 -214q0 -53 -18 -103q18 -49 18 -102q0 -125 -89 -214t-214 -89t-214 89t-89 214zM133 635q0 -70 50 -120t120 -50t120 50t50 120t-50 120t-120 50t-120 -50t-50 -120z" />
<glyph unicode="&#x2011;" horiz-adv-x="534" d="M0 430q0 53 18 102q-18 49 -18 103q0 125 89 214t214 89t214 -89t89 -214q0 -53 -18 -103q18 -49 18 -102q0 -125 -89 -214t-214 -89t-214 89t-89 214zM133 635q0 -70 50 -120t120 -50t120 50t50 120t-50 120t-120 50t-120 -50t-50 -120z" />
<glyph unicode="&#x2012;" horiz-adv-x="534" d="M0 430q0 53 18 102q-18 49 -18 103q0 125 89 214t214 89t214 -89t89 -214q0 -53 -18 -103q18 -49 18 -102q0 -125 -89 -214t-214 -89t-214 89t-89 214zM133 635q0 -70 50 -120t120 -50t120 50t50 120t-50 120t-120 50t-120 -50t-50 -120z" />
<glyph unicode="&#x2013;" horiz-adv-x="864" d="M-29 299q0 53 19 102q-18 49 -19 103q0 117 78 193.5t195 76.5h483q117 0 194.5 -76.5t77.5 -193.5q0 -55 -18 -103q18 -49 18 -102q0 -117 -77.5 -194.5t-194.5 -77.5h-483q-117 0 -195 77.5t-78 194.5zM104 504q0 -61 39 -100t101 -39h483q61 0 100 39t39 100t-39 99 t-100 38h-483q-61 0 -100.5 -38t-39.5 -99z" />
<glyph unicode="&#x2014;" horiz-adv-x="1275" d="M-29 299q0 53 19 102q-18 49 -19 103q0 117 78 193.5t195 76.5h893q117 0 194.5 -76.5t77.5 -193.5q0 -55 -18 -103q18 -49 18 -102q0 -117 -78 -194.5t-194 -77.5h-893q-117 0 -195 77.5t-78 194.5zM104 504q0 -61 39 -100t101 -39h893q61 0 100 39t39 100t-39 99 t-100 38h-893q-61 0 -100.5 -38t-39.5 -99z" />
<glyph unicode="&#x2018;" horiz-adv-x="530" d="M0 817v457q0 125 89 214t214 89t214 -89t89 -214v-457q0 -125 -89 -213t-214 -88t-214 88t-89 213zM133 1022q0 -70 50 -119t120 -49t120 49t50 119v252q0 70 -50 120t-120 50t-120 -50t-50 -120v-252z" />
<glyph unicode="&#x2019;" horiz-adv-x="530" d="M0 817v457q0 125 89 214t214 89t214 -89t89 -214v-457q0 -125 -89 -213t-214 -88t-214 88t-89 213zM133 1022q0 -70 50 -119t120 -49t120 49t50 119v252q0 70 -50 120t-120 50t-120 -50t-50 -120v-252z" />
<glyph unicode="&#x201a;" horiz-adv-x="532" d="M0 170q0 125 89 213t214 88t214 -88t89 -213v-457q0 -125 -89 -214t-214 -89t-214 89t-89 214v457zM133 -82q0 -70 50 -120t120 -50t120 50t50 120v252q0 70 -50 119t-120 49t-120 -49t-50 -119v-252z" />
<glyph unicode="&#x201c;" horiz-adv-x="948" d="M0 817v457q0 125 89 214t214 89q127 0 215 -90q88 90 215 90t215 -88t88 -215v-457q0 -127 -88 -214t-215 -87t-215 90l-2 -2q-88 -88 -213 -88t-214 88t-89 213zM133 1022q0 -70 50 -119t120 -49t120 49t50 119v252q0 70 -50 120t-120 50t-120 -50t-50 -120v-252z M565 1022q0 -70 49 -119t119 -49q72 0 121 48t49 120v252q0 72 -49 121t-121 49q-70 0 -119 -50t-49 -120v-252z" />
<glyph unicode="&#x201d;" horiz-adv-x="921" d="M0 817v457q0 125 89 214t214 89q127 0 215 -90q88 90 215 90t215 -88t88 -215v-457q0 -127 -88 -214t-215 -87t-215 90l-2 -2q-88 -88 -213 -88t-214 88t-89 213zM133 1022q0 -70 50 -119t120 -49t120 49t50 119v252q0 70 -50 120t-120 50t-120 -50t-50 -120v-252z M565 1022q0 -70 49 -119t119 -49q72 0 121 48t49 120v252q0 72 -49 121t-121 49q-70 0 -119 -50t-49 -120v-252z" />
<glyph unicode="&#x201e;" horiz-adv-x="1089" d="M0 170q0 125 89 213t214 88t214 -88t89 -213v-457q0 -125 -89 -214t-214 -89t-214 89t-89 214v457zM133 -82q0 -70 50 -120t120 -50t120 50t50 120v252q0 70 -50 119t-120 49t-120 -49t-50 -119v-252zM539 170q0 125 89 213t214 88t214 -88t89 -213v-457q0 -125 -89 -214 t-214 -89t-214 89t-89 214v457zM672 -82q0 -70 50 -120t120 -50t120 50t50 120v252q0 70 -50 119t-120 49t-120 -49t-50 -119v-252z" />
<glyph unicode="&#x2022;" horiz-adv-x="770" d="M-23 481q0 53 13 103q-12 49 -13 102q0 170 119 288t289 118q168 0 287 -119t119 -287q0 -53 -13 -102q13 -52 13 -103q0 -168 -119 -287.5t-287 -119.5q-170 0 -289 118.5t-119 288.5zM111 686q0 -115 79.5 -194.5t194.5 -79.5q113 0 192.5 80.5t79.5 193.5t-79.5 192.5 t-192.5 79.5q-115 0 -194.5 -78.5t-79.5 -193.5z" />
<glyph unicode="&#x2026;" horiz-adv-x="1517" d="M-55 -35q0 53 18 101q-18 51 -18 104q0 125 89 213t214 88q147 0 239 -117q90 117 238 117q158 0 248 -125q90 125 244 125q127 0 215 -87t88 -214q0 -53 -17 -102q17 -50 17 -103q0 -127 -88.5 -215t-214.5 -88q-156 0 -246 125q-90 -125 -246 -125q-150 0 -238 115 q-92 -115 -239 -115q-127 0 -215 88t-88 215zM78 170q0 -72 49 -121t121 -49t121 49t49 121q0 70 -50.5 119t-119.5 49q-70 0 -120 -49t-50 -119zM557 170q0 -72 48 -121t120 -49t121 49t49 121t-49 120t-121 48q-70 0 -119 -49t-49 -119zM1049 170q0 -72 48 -121t120 -49 t120.5 49t48.5 121t-49 120t-120 48q-70 0 -119 -49t-49 -119z" />
<glyph unicode="&#x202f;" horiz-adv-x="514" />
<glyph unicode="&#x2039;" horiz-adv-x="708" d="M0 315q0 49 25 103q-25 53 -25 102q0 100 104 219q88 86 172 170t195 84t193 -82t81 -192q0 -53 -20 -103q20 -49 20 -102q0 -51 -18 -96q18 -45 18 -96q0 -53 -20 -103q20 -49 20 -102q0 -111 -81 -193q-82 -82 -193 -82q-100 0 -213 97q-59 51 -166 176 q-92 106 -92 200zM133 520q0 -45 60 -114q12 -14 180 -183q43 -43 98 -43t98 43q43 44 43 99q0 53 -43 96l-102 102l102 103q43 43 43 96q0 55 -43 98t-98 43t-98 -43l-180 -182q-59 -59 -60 -115z" />
<glyph unicode="&#x203a;" horiz-adv-x="698" d="M0 117q0 53 20 102q-20 49 -20 103q0 51 18 96q-18 45 -18 96q0 53 20 102q-20 49 -20 103q0 111 82 192q82 82 192 82q102 0 211 -96q82 -84 162 -168q98 -100 98 -209q0 -49 -24 -100q24 -52 24 -105q0 -94 -92 -200q-106 -125 -166 -176q-113 -96 -213 -97 q-111 0 -192 82q-82 82 -82 193zM133 322q0 -55 43 -99q43 -43 98 -43t99 43l180 183q59 69 59 114q0 55 -59 115l-180 182q-43 43 -99 43q-55 0 -98 -43t-43 -98q0 -53 43 -96l103 -103l-103 -102q-43 -43 -43 -96z" />
<glyph unicode="&#x205f;" horiz-adv-x="642" />
<glyph unicode="&#x20ac;" horiz-adv-x="1196" d="M-37 311q0 53 19 103q-18 47 -19 102q0 51 19 100q-16 45 -17 95q0 53 19 102q-18 49 -19 102q0 117 77 195t194 78h26q119 182 312.5 285.5t412.5 103.5q117 0 195 -77t78 -193q0 -53 -19 -103q18 -47 19 -102q0 -117 -78 -195q-2 -49 -19 -94q18 -47 19 -102 q0 -51 -17 -97q16 -47 17 -98q0 -55 -19 -102q18 -49 19 -103v-2q78 -78 78 -194q0 -55 -19 -103q19 -49 19 -102q0 -117 -78 -193.5t-195 -76.5q-221 0 -416.5 106.5t-314.5 292.5h-20q-117 0 -195 78t-78 194zM96 516q0 -61 39 -100t101 -39h98q94 -184 270 -292t383 -108 q61 0 100 38.5t39 99.5t-38.5 100t-100.5 39q-180 0 -311 123h233q61 0 100.5 39t39.5 100t-39 99t-101 38h-374q-4 29 -5 58q0 33 5 67h374q61 0 100.5 38t39.5 99t-39 100.5t-101 39.5h-223q129 113 301 112q61 0 100 39t39 101q0 61 -38.5 99t-100.5 38 q-205 0 -379 -104.5t-270 -284.5h-102q-61 0 -99.5 -39t-38.5 -101q0 -61 38 -99t100 -38h20q-2 -35 -2 -67q0 -29 2 -58h-20q-61 0 -100.5 -37.5t-39.5 -99.5z" />
<glyph unicode="&#x2122;" horiz-adv-x="1349" d="M-23 817v557q0 90 56.5 146.5t146.5 56.5q143 0 189 -123h53q94 0 151 -61q86 55 191 55q76 0 143 -31q68 31 144 31q147 0 250.5 -103.5t103.5 -250.5v-437q0 -90 -56.5 -146t-146.5 -56q-94 0 -151 63q-55 -63 -152 -63q-125 0 -178 100q-100 -92 -260 -92h-129 q-147 0 -251 103.5t-104 250.5zM111 1022q0 -92 64.5 -156.5t156.5 -64.5h129q94 0 153 43q68 47 68 137v113q0 35 23.5 58.5t58.5 23.5q41 0 65 -33v-281q0 -70 70 -69q70 0 70 69v232q0 35 23.5 58.5t58.5 23.5t59.5 -24t24.5 -58v-232q0 -70 67 -69q70 -1 70 69v232 q0 92 -64.5 156.5t-156.5 64.5q-82 0 -144 -53q-61 53 -143 53q-92 0 -156.5 -64.5t-64.5 -156.5v-72q0 -35 -23.5 -59.5t-58.5 -24.5h-129q-35 0 -58.5 24.5t-23.5 59.5v160h172q70 0 70 69q0 70 -70 70h-172v53q0 70 -70 70t-69 -70v-352z" />
<glyph unicode="&#xe000;" horiz-adv-x="1157" d="M0 0v1157h1157v-1157h-1157z" />
</font>
</defs>
</svg>
